<mxfile host="Electron" modified="2024-12-16T20:33:02.234Z" agent="Mozilla/5.0 (Windows NT 10.0; Win64; x64) AppleWebKit/537.36 (KHTML, like Gecko) draw.io/24.6.1 Chrome/124.0.6367.207 Electron/30.0.6 Safari/537.36" etag="KLYHEYbC0I9DD7jXQW0P" version="24.6.1" type="device" pages="10">
  <diagram name="Design" id="UxmXo-My01-UiETa3CM1">
    <mxGraphModel dx="2582" dy="1495" grid="1" gridSize="10" guides="1" tooltips="1" connect="1" arrows="1" fold="1" page="1" pageScale="1" pageWidth="827" pageHeight="1169" math="0" shadow="0">
      <root>
        <mxCell id="0" />
        <mxCell id="1" parent="0" />
      </root>
    </mxGraphModel>
  </diagram>
  <diagram id="vGiaRdJSOMbxO_RmzHI1" name="Type">
    <mxGraphModel dx="3149" dy="3203" grid="1" gridSize="10" guides="1" tooltips="1" connect="1" arrows="1" fold="1" page="1" pageScale="1" pageWidth="827" pageHeight="1169" math="0" shadow="0">
      <root>
        <mxCell id="0" />
        <mxCell id="1" parent="0" />
        <mxCell id="UtdcIfN6HxOS2olpDKWv-53" style="edgeStyle=orthogonalEdgeStyle;rounded=0;orthogonalLoop=1;jettySize=auto;html=1;exitX=1;exitY=0.25;exitDx=0;exitDy=0;entryX=0;entryY=0.5;entryDx=0;entryDy=0;fontFamily=Helvetica;fontSize=12;fontColor=#000000;" edge="1" parent="1" source="QTdOFbBlQ-zmw4fpiqV5-3" target="QTdOFbBlQ-zmw4fpiqV5-55">
          <mxGeometry relative="1" as="geometry">
            <Array as="points">
              <mxPoint x="-760" y="313" />
              <mxPoint x="-760" y="45" />
            </Array>
          </mxGeometry>
        </mxCell>
        <mxCell id="Ukl2UAED8yIwZjnMGLM--1" style="edgeStyle=orthogonalEdgeStyle;rounded=0;orthogonalLoop=1;jettySize=auto;html=1;exitX=1;exitY=0.25;exitDx=0;exitDy=0;fontFamily=Helvetica;fontSize=12;fontColor=#000000;jumpStyle=arc;" edge="1" parent="1" source="QTdOFbBlQ-zmw4fpiqV5-3" target="zeV6oMh_QtqGCtAVX_7u-7">
          <mxGeometry relative="1" as="geometry">
            <Array as="points">
              <mxPoint x="-760" y="313" />
              <mxPoint x="-760" y="515" />
            </Array>
          </mxGeometry>
        </mxCell>
        <mxCell id="QTdOFbBlQ-zmw4fpiqV5-3" value="Enum : t_eFMKSRL_SerialSoftType" style="swimlane;fontStyle=0;childLayout=stackLayout;horizontal=1;startSize=40;horizontalStack=0;resizeParent=1;resizeParentMax=0;resizeLast=0;collapsible=1;marginBottom=0;whiteSpace=wrap;html=1;fillColor=#f8cecc;gradientColor=#ea6b66;strokeColor=#b85450;fontColor=#000000;" vertex="1" parent="1">
          <mxGeometry x="-1600" y="280" width="240" height="130" as="geometry">
            <mxRectangle x="-720" y="-400" width="240" height="40" as="alternateBounds" />
          </mxGeometry>
        </mxCell>
        <mxCell id="QTdOFbBlQ-zmw4fpiqV5-8" value="FMKSRL_SERIAL_SOFTYPE_UART" style="text;strokeColor=#b85450;fillColor=#f8cecc;align=left;verticalAlign=middle;spacingLeft=4;spacingRight=4;overflow=hidden;points=[[0,0.5],[1,0.5]];portConstraint=eastwest;rotatable=0;whiteSpace=wrap;html=1;gradientColor=#ea6b66;fontColor=#000000;" vertex="1" parent="QTdOFbBlQ-zmw4fpiqV5-3">
          <mxGeometry y="40" width="240" height="30" as="geometry" />
        </mxCell>
        <mxCell id="QTdOFbBlQ-zmw4fpiqV5-4" value="FMKSRL_SERIAL_SOFTYPE_USART" style="text;strokeColor=#b85450;fillColor=#f8cecc;align=left;verticalAlign=middle;spacingLeft=4;spacingRight=4;overflow=hidden;points=[[0,0.5],[1,0.5]];portConstraint=eastwest;rotatable=0;whiteSpace=wrap;html=1;gradientColor=#ea6b66;fontColor=#000000;" vertex="1" parent="QTdOFbBlQ-zmw4fpiqV5-3">
          <mxGeometry y="70" width="240" height="30" as="geometry" />
        </mxCell>
        <mxCell id="QTdOFbBlQ-zmw4fpiqV5-17" value="FMKSRL_SERIAL_SOFTYPE_NB" style="text;strokeColor=#b85450;fillColor=#f8cecc;align=left;verticalAlign=middle;spacingLeft=4;spacingRight=4;overflow=hidden;points=[[0,0.5],[1,0.5]];portConstraint=eastwest;rotatable=0;whiteSpace=wrap;html=1;gradientColor=#ea6b66;fontColor=#000000;" vertex="1" parent="QTdOFbBlQ-zmw4fpiqV5-3">
          <mxGeometry y="100" width="240" height="30" as="geometry" />
        </mxCell>
        <mxCell id="QTdOFbBlQ-zmw4fpiqV5-11" value="Enum : t_eFMKSRL_SerialLine&lt;div&gt;in ConfigPublic&lt;/div&gt;" style="swimlane;fontStyle=0;childLayout=stackLayout;horizontal=1;startSize=40;horizontalStack=0;resizeParent=1;resizeParentMax=0;resizeLast=0;collapsible=1;marginBottom=0;whiteSpace=wrap;html=1;fillColor=#f8cecc;gradientColor=#ea6b66;strokeColor=#b85450;fontColor=#000000;" vertex="1" parent="1">
          <mxGeometry x="-1610" y="40" width="203" height="190" as="geometry">
            <mxRectangle x="-1000" y="-400" width="240" height="40" as="alternateBounds" />
          </mxGeometry>
        </mxCell>
        <mxCell id="QTdOFbBlQ-zmw4fpiqV5-12" value="FMKSRL_SERIAL_LINE_1" style="text;strokeColor=#b85450;fillColor=#f8cecc;align=left;verticalAlign=middle;spacingLeft=4;spacingRight=4;overflow=hidden;points=[[0,0.5],[1,0.5]];portConstraint=eastwest;rotatable=0;whiteSpace=wrap;html=1;gradientColor=#ea6b66;fontColor=#000000;" vertex="1" parent="QTdOFbBlQ-zmw4fpiqV5-11">
          <mxGeometry y="40" width="203" height="30" as="geometry" />
        </mxCell>
        <mxCell id="QTdOFbBlQ-zmw4fpiqV5-13" value="FMKSRL_SERIAL_LINE_2" style="text;strokeColor=#b85450;fillColor=#f8cecc;align=left;verticalAlign=middle;spacingLeft=4;spacingRight=4;overflow=hidden;points=[[0,0.5],[1,0.5]];portConstraint=eastwest;rotatable=0;whiteSpace=wrap;html=1;gradientColor=#ea6b66;fontColor=#000000;" vertex="1" parent="QTdOFbBlQ-zmw4fpiqV5-11">
          <mxGeometry y="70" width="203" height="30" as="geometry" />
        </mxCell>
        <mxCell id="QTdOFbBlQ-zmw4fpiqV5-14" value="FMKSRL_SERIAL_LINE_3" style="text;strokeColor=#b85450;fillColor=#f8cecc;align=left;verticalAlign=middle;spacingLeft=4;spacingRight=4;overflow=hidden;points=[[0,0.5],[1,0.5]];portConstraint=eastwest;rotatable=0;whiteSpace=wrap;html=1;gradientColor=#ea6b66;fontColor=#000000;" vertex="1" parent="QTdOFbBlQ-zmw4fpiqV5-11">
          <mxGeometry y="100" width="203" height="30" as="geometry" />
        </mxCell>
        <mxCell id="QTdOFbBlQ-zmw4fpiqV5-15" value="FMKSRL_SERIAL_LINE_4" style="text;strokeColor=#b85450;fillColor=#f8cecc;align=left;verticalAlign=middle;spacingLeft=4;spacingRight=4;overflow=hidden;points=[[0,0.5],[1,0.5]];portConstraint=eastwest;rotatable=0;whiteSpace=wrap;html=1;gradientColor=#ea6b66;fontColor=#000000;" vertex="1" parent="QTdOFbBlQ-zmw4fpiqV5-11">
          <mxGeometry y="130" width="203" height="30" as="geometry" />
        </mxCell>
        <mxCell id="QTdOFbBlQ-zmw4fpiqV5-16" value="FMKSRL_SERIAL_LINE_NB" style="text;strokeColor=#b85450;fillColor=#f8cecc;align=left;verticalAlign=middle;spacingLeft=4;spacingRight=4;overflow=hidden;points=[[0,0.5],[1,0.5]];portConstraint=eastwest;rotatable=0;whiteSpace=wrap;html=1;gradientColor=#ea6b66;fontColor=#000000;" vertex="1" parent="QTdOFbBlQ-zmw4fpiqV5-11">
          <mxGeometry y="160" width="203" height="30" as="geometry" />
        </mxCell>
        <mxCell id="ZFEEeemjDuWysc22bOcN-10" style="edgeStyle=orthogonalEdgeStyle;rounded=0;orthogonalLoop=1;jettySize=auto;html=1;exitX=1;exitY=0.25;exitDx=0;exitDy=0;entryX=0;entryY=0.5;entryDx=0;entryDy=0;fontFamily=Helvetica;fontSize=12;fontColor=#000000;jumpStyle=arc;" edge="1" parent="1" source="QTdOFbBlQ-zmw4fpiqV5-18" target="AI8ar0mX3AMzn60uEfUP-13">
          <mxGeometry relative="1" as="geometry">
            <Array as="points">
              <mxPoint x="-750" y="-1412" />
              <mxPoint x="-750" y="-1130" />
              <mxPoint x="-380" y="-1130" />
              <mxPoint x="-380" y="-1025" />
              <mxPoint x="-280" y="-1025" />
            </Array>
          </mxGeometry>
        </mxCell>
        <mxCell id="QTdOFbBlQ-zmw4fpiqV5-18" value="Enum : t_eFMKSRL_UartTypeCfg" style="swimlane;fontStyle=0;childLayout=stackLayout;horizontal=1;startSize=40;horizontalStack=0;resizeParent=1;resizeParentMax=0;resizeLast=0;collapsible=1;marginBottom=0;whiteSpace=wrap;html=1;fillColor=#f8cecc;gradientColor=#ea6b66;strokeColor=#b85450;fontColor=#000000;" vertex="1" parent="1">
          <mxGeometry x="-1160" y="-1460" width="260" height="190" as="geometry">
            <mxRectangle x="-440" y="-400" width="240" height="40" as="alternateBounds" />
          </mxGeometry>
        </mxCell>
        <mxCell id="QTdOFbBlQ-zmw4fpiqV5-19" value="FMKSRL_UART_TYPCFG_UART" style="text;strokeColor=#b85450;fillColor=#f8cecc;align=left;verticalAlign=middle;spacingLeft=4;spacingRight=4;overflow=hidden;points=[[0,0.5],[1,0.5]];portConstraint=eastwest;rotatable=0;whiteSpace=wrap;html=1;gradientColor=#ea6b66;fontColor=#000000;" vertex="1" parent="QTdOFbBlQ-zmw4fpiqV5-18">
          <mxGeometry y="40" width="260" height="30" as="geometry" />
        </mxCell>
        <mxCell id="QTdOFbBlQ-zmw4fpiqV5-20" value="FMKSRL_UART_TYPCFG_HALF_DUPLEX" style="text;strokeColor=#b85450;fillColor=#f8cecc;align=left;verticalAlign=middle;spacingLeft=4;spacingRight=4;overflow=hidden;points=[[0,0.5],[1,0.5]];portConstraint=eastwest;rotatable=0;whiteSpace=wrap;html=1;gradientColor=#ea6b66;fontColor=#000000;" vertex="1" parent="QTdOFbBlQ-zmw4fpiqV5-18">
          <mxGeometry y="70" width="260" height="30" as="geometry" />
        </mxCell>
        <mxCell id="QTdOFbBlQ-zmw4fpiqV5-21" value="FMKSRL_UART_TYPCFG_LIN" style="text;strokeColor=#b85450;fillColor=#f8cecc;align=left;verticalAlign=middle;spacingLeft=4;spacingRight=4;overflow=hidden;points=[[0,0.5],[1,0.5]];portConstraint=eastwest;rotatable=0;whiteSpace=wrap;html=1;gradientColor=#ea6b66;fontColor=#000000;" vertex="1" parent="QTdOFbBlQ-zmw4fpiqV5-18">
          <mxGeometry y="100" width="260" height="30" as="geometry" />
        </mxCell>
        <mxCell id="QTdOFbBlQ-zmw4fpiqV5-23" value="FMKSRL_UART_TYPCFG_MULTI_PROCESS" style="text;strokeColor=#b85450;fillColor=#f8cecc;align=left;verticalAlign=middle;spacingLeft=4;spacingRight=4;overflow=hidden;points=[[0,0.5],[1,0.5]];portConstraint=eastwest;rotatable=0;whiteSpace=wrap;html=1;gradientColor=#ea6b66;fontColor=#000000;" vertex="1" parent="QTdOFbBlQ-zmw4fpiqV5-18">
          <mxGeometry y="130" width="260" height="30" as="geometry" />
        </mxCell>
        <mxCell id="UtdcIfN6HxOS2olpDKWv-1" value="FMKSRL_UART_TYPCFG_NB" style="text;strokeColor=#b85450;fillColor=#f8cecc;align=left;verticalAlign=middle;spacingLeft=4;spacingRight=4;overflow=hidden;points=[[0,0.5],[1,0.5]];portConstraint=eastwest;rotatable=0;whiteSpace=wrap;html=1;gradientColor=#ea6b66;fontColor=#000000;" vertex="1" parent="QTdOFbBlQ-zmw4fpiqV5-18">
          <mxGeometry y="160" width="260" height="30" as="geometry" />
        </mxCell>
        <mxCell id="UtdcIfN6HxOS2olpDKWv-31" style="edgeStyle=orthogonalEdgeStyle;rounded=0;orthogonalLoop=1;jettySize=auto;html=1;exitX=1;exitY=0.25;exitDx=0;exitDy=0;entryX=0;entryY=0.5;entryDx=0;entryDy=0;fontFamily=Helvetica;fontSize=12;fontColor=#000000;" edge="1" parent="1" source="QTdOFbBlQ-zmw4fpiqV5-24" target="UtdcIfN6HxOS2olpDKWv-12">
          <mxGeometry relative="1" as="geometry">
            <Array as="points">
              <mxPoint x="-940" y="-440" />
              <mxPoint x="-870" y="-440" />
              <mxPoint x="-870" y="-410" />
            </Array>
          </mxGeometry>
        </mxCell>
        <mxCell id="QTdOFbBlQ-zmw4fpiqV5-24" value="Enum : t_eFMKSRL_LineParity" style="swimlane;fontStyle=0;childLayout=stackLayout;horizontal=1;startSize=40;horizontalStack=0;resizeParent=1;resizeParentMax=0;resizeLast=0;collapsible=1;marginBottom=0;whiteSpace=wrap;html=1;fillColor=#f8cecc;gradientColor=#ea6b66;strokeColor=#b85450;fontColor=#000000;" vertex="1" collapsed="1" parent="1">
          <mxGeometry x="-1180" y="-480" width="240" height="40" as="geometry">
            <mxRectangle x="-1180" y="-480" width="260" height="160" as="alternateBounds" />
          </mxGeometry>
        </mxCell>
        <mxCell id="QTdOFbBlQ-zmw4fpiqV5-25" value="FMKSRL_LINE_PARITY_NONE" style="text;strokeColor=#b85450;fillColor=#f8cecc;align=left;verticalAlign=middle;spacingLeft=4;spacingRight=4;overflow=hidden;points=[[0,0.5],[1,0.5]];portConstraint=eastwest;rotatable=0;whiteSpace=wrap;html=1;gradientColor=#ea6b66;fontColor=#000000;" vertex="1" parent="QTdOFbBlQ-zmw4fpiqV5-24">
          <mxGeometry y="40" width="260" height="30" as="geometry" />
        </mxCell>
        <mxCell id="QTdOFbBlQ-zmw4fpiqV5-26" value="FMKSRL_LINE_PARITY_EVEN" style="text;strokeColor=#b85450;fillColor=#f8cecc;align=left;verticalAlign=middle;spacingLeft=4;spacingRight=4;overflow=hidden;points=[[0,0.5],[1,0.5]];portConstraint=eastwest;rotatable=0;whiteSpace=wrap;html=1;gradientColor=#ea6b66;fontColor=#000000;" vertex="1" parent="QTdOFbBlQ-zmw4fpiqV5-24">
          <mxGeometry y="70" width="260" height="30" as="geometry" />
        </mxCell>
        <mxCell id="QTdOFbBlQ-zmw4fpiqV5-27" value="FMKSRL_LINE_PARITY_ODD" style="text;strokeColor=#b85450;fillColor=#f8cecc;align=left;verticalAlign=middle;spacingLeft=4;spacingRight=4;overflow=hidden;points=[[0,0.5],[1,0.5]];portConstraint=eastwest;rotatable=0;whiteSpace=wrap;html=1;gradientColor=#ea6b66;fontColor=#000000;" vertex="1" parent="QTdOFbBlQ-zmw4fpiqV5-24">
          <mxGeometry y="100" width="260" height="30" as="geometry" />
        </mxCell>
        <mxCell id="QTdOFbBlQ-zmw4fpiqV5-28" value="FMKSRL_LINE_PARITY_NB" style="text;strokeColor=#b85450;fillColor=#f8cecc;align=left;verticalAlign=middle;spacingLeft=4;spacingRight=4;overflow=hidden;points=[[0,0.5],[1,0.5]];portConstraint=eastwest;rotatable=0;whiteSpace=wrap;html=1;gradientColor=#ea6b66;fontColor=#000000;" vertex="1" parent="QTdOFbBlQ-zmw4fpiqV5-24">
          <mxGeometry y="130" width="260" height="30" as="geometry" />
        </mxCell>
        <mxCell id="QTdOFbBlQ-zmw4fpiqV5-30" value="Enum : t_eFMKSRL_BspCallbackList" style="swimlane;fontStyle=4;childLayout=stackLayout;horizontal=1;startSize=40;horizontalStack=0;resizeParent=1;resizeParentMax=0;resizeLast=0;collapsible=1;marginBottom=0;whiteSpace=wrap;html=1;fillColor=#f8cecc;gradientColor=#ea6b66;strokeColor=#b85450;fontColor=#000000;" vertex="1" parent="1">
          <mxGeometry x="-1600" y="-700" width="280" height="370" as="geometry">
            <mxRectangle x="120" y="-400" width="240" height="40" as="alternateBounds" />
          </mxGeometry>
        </mxCell>
        <mxCell id="QTdOFbBlQ-zmw4fpiqV5-31" value="FMKSRL_SERIAL_BSP_CB_TX_HLF_CPLT" style="text;strokeColor=#b85450;fillColor=#f8cecc;align=left;verticalAlign=middle;spacingLeft=4;spacingRight=4;overflow=hidden;points=[[0,0.5],[1,0.5]];portConstraint=eastwest;rotatable=0;whiteSpace=wrap;html=1;gradientColor=#ea6b66;fontColor=#000000;" vertex="1" parent="QTdOFbBlQ-zmw4fpiqV5-30">
          <mxGeometry y="40" width="280" height="30" as="geometry" />
        </mxCell>
        <mxCell id="QTdOFbBlQ-zmw4fpiqV5-32" value="FMKSRL_SERIAL_BSP_CB_TX_CPLT" style="text;strokeColor=#b85450;fillColor=#f8cecc;align=left;verticalAlign=middle;spacingLeft=4;spacingRight=4;overflow=hidden;points=[[0,0.5],[1,0.5]];portConstraint=eastwest;rotatable=0;whiteSpace=wrap;html=1;gradientColor=#ea6b66;fontColor=#000000;" vertex="1" parent="QTdOFbBlQ-zmw4fpiqV5-30">
          <mxGeometry y="70" width="280" height="30" as="geometry" />
        </mxCell>
        <mxCell id="QTdOFbBlQ-zmw4fpiqV5-33" value="FMKSRL_SERIAL_BSP_CB_RX_HLF_CPLT" style="text;strokeColor=#b85450;fillColor=#f8cecc;align=left;verticalAlign=middle;spacingLeft=4;spacingRight=4;overflow=hidden;points=[[0,0.5],[1,0.5]];portConstraint=eastwest;rotatable=0;whiteSpace=wrap;html=1;gradientColor=#ea6b66;fontColor=#000000;" vertex="1" parent="QTdOFbBlQ-zmw4fpiqV5-30">
          <mxGeometry y="100" width="280" height="30" as="geometry" />
        </mxCell>
        <mxCell id="QTdOFbBlQ-zmw4fpiqV5-34" value="FMKSRL_SERIAL_BSP_CB_RX_CPLT" style="text;strokeColor=#b85450;fillColor=#f8cecc;align=left;verticalAlign=middle;spacingLeft=4;spacingRight=4;overflow=hidden;points=[[0,0.5],[1,0.5]];portConstraint=eastwest;rotatable=0;whiteSpace=wrap;html=1;gradientColor=#ea6b66;fontColor=#000000;" vertex="1" parent="QTdOFbBlQ-zmw4fpiqV5-30">
          <mxGeometry y="130" width="280" height="30" as="geometry" />
        </mxCell>
        <mxCell id="QTdOFbBlQ-zmw4fpiqV5-35" value="FMKSRL_SERIAL_BSP_CB_TX_RX_CPLT" style="text;strokeColor=#b85450;fillColor=#f8cecc;align=left;verticalAlign=middle;spacingLeft=4;spacingRight=4;overflow=hidden;points=[[0,0.5],[1,0.5]];portConstraint=eastwest;rotatable=0;whiteSpace=wrap;html=1;gradientColor=#ea6b66;fontColor=#000000;" vertex="1" parent="QTdOFbBlQ-zmw4fpiqV5-30">
          <mxGeometry y="160" width="280" height="30" as="geometry" />
        </mxCell>
        <mxCell id="QTdOFbBlQ-zmw4fpiqV5-37" value="FMKSRL_SERIAL_BSP_CB_ERROR" style="text;strokeColor=#b85450;fillColor=#f8cecc;align=left;verticalAlign=middle;spacingLeft=4;spacingRight=4;overflow=hidden;points=[[0,0.5],[1,0.5]];portConstraint=eastwest;rotatable=0;whiteSpace=wrap;html=1;gradientColor=#ea6b66;fontColor=#000000;" vertex="1" parent="QTdOFbBlQ-zmw4fpiqV5-30">
          <mxGeometry y="190" width="280" height="30" as="geometry" />
        </mxCell>
        <mxCell id="QTdOFbBlQ-zmw4fpiqV5-36" value="FMKSRL_SERIAL_BSP_CB_ABORT" style="text;strokeColor=#b85450;fillColor=#f8cecc;align=left;verticalAlign=middle;spacingLeft=4;spacingRight=4;overflow=hidden;points=[[0,0.5],[1,0.5]];portConstraint=eastwest;rotatable=0;whiteSpace=wrap;html=1;gradientColor=#ea6b66;fontColor=#000000;" vertex="1" parent="QTdOFbBlQ-zmw4fpiqV5-30">
          <mxGeometry y="220" width="280" height="30" as="geometry" />
        </mxCell>
        <mxCell id="QTdOFbBlQ-zmw4fpiqV5-38" value="FMKSRL_SERIAL_BSP_CB_UART_RECEIVE" style="text;strokeColor=#b85450;fillColor=#f8cecc;align=left;verticalAlign=middle;spacingLeft=4;spacingRight=4;overflow=hidden;points=[[0,0.5],[1,0.5]];portConstraint=eastwest;rotatable=0;whiteSpace=wrap;html=1;gradientColor=#ea6b66;fontColor=#000000;" vertex="1" parent="QTdOFbBlQ-zmw4fpiqV5-30">
          <mxGeometry y="250" width="280" height="30" as="geometry" />
        </mxCell>
        <mxCell id="QTdOFbBlQ-zmw4fpiqV5-40" value="FMKSRL_SERIAL_BSP_CB_UART_TRANSMIT" style="text;strokeColor=#b85450;fillColor=#f8cecc;align=left;verticalAlign=middle;spacingLeft=4;spacingRight=4;overflow=hidden;points=[[0,0.5],[1,0.5]];portConstraint=eastwest;rotatable=0;whiteSpace=wrap;html=1;gradientColor=#ea6b66;fontColor=#000000;" vertex="1" parent="QTdOFbBlQ-zmw4fpiqV5-30">
          <mxGeometry y="280" width="280" height="30" as="geometry" />
        </mxCell>
        <mxCell id="QTdOFbBlQ-zmw4fpiqV5-39" value="&lt;font color=&quot;#000000&quot;&gt;FMKSRL_SERIAL_BSP_CB_RX_EVNT&lt;/font&gt;" style="text;strokeColor=#82b366;fillColor=#d5e8d4;align=left;verticalAlign=middle;spacingLeft=4;spacingRight=4;overflow=hidden;points=[[0,0.5],[1,0.5]];portConstraint=eastwest;rotatable=0;whiteSpace=wrap;html=1;gradientColor=#97d077;" vertex="1" parent="QTdOFbBlQ-zmw4fpiqV5-30">
          <mxGeometry y="310" width="280" height="30" as="geometry" />
        </mxCell>
        <mxCell id="QTdOFbBlQ-zmw4fpiqV5-41" value="FMKSRL_SERIAL_BSP_CB_NB" style="text;strokeColor=#b85450;fillColor=#f8cecc;align=left;verticalAlign=middle;spacingLeft=4;spacingRight=4;overflow=hidden;points=[[0,0.5],[1,0.5]];portConstraint=eastwest;rotatable=0;whiteSpace=wrap;html=1;gradientColor=#ea6b66;fontColor=#000000;" vertex="1" parent="QTdOFbBlQ-zmw4fpiqV5-30">
          <mxGeometry y="340" width="280" height="30" as="geometry" />
        </mxCell>
        <mxCell id="QTdOFbBlQ-zmw4fpiqV5-42" value="Struct: t_eFMKSRL_DrvSerialCfg&lt;div&gt;in .h&lt;/div&gt;" style="swimlane;fontStyle=0;childLayout=stackLayout;horizontal=1;startSize=40;horizontalStack=0;resizeParent=1;resizeParentMax=0;resizeLast=0;collapsible=1;marginBottom=0;whiteSpace=wrap;html=1;fillColor=#dae8fc;gradientColor=#7ea6e0;strokeColor=#6c8ebf;fontColor=#000000;" vertex="1" parent="1">
          <mxGeometry x="-320" y="-100" width="280" height="190" as="geometry">
            <mxRectangle x="-360" y="-160" width="240" height="40" as="alternateBounds" />
          </mxGeometry>
        </mxCell>
        <mxCell id="QTdOFbBlQ-zmw4fpiqV5-43" value="&lt;span style=&quot;text-align: center;&quot;&gt;t_sFMKSRL_HwProtocolCfg HwCfg_s&lt;/span&gt;" style="text;strokeColor=#6c8ebf;fillColor=#dae8fc;align=left;verticalAlign=middle;spacingLeft=4;spacingRight=4;overflow=hidden;points=[[0,0.5],[1,0.5]];portConstraint=eastwest;rotatable=0;whiteSpace=wrap;html=1;gradientColor=#7ea6e0;fontColor=#000000;" vertex="1" parent="QTdOFbBlQ-zmw4fpiqV5-42">
          <mxGeometry y="40" width="280" height="30" as="geometry" />
        </mxCell>
        <mxCell id="ZFEEeemjDuWysc22bOcN-16" value="&lt;span style=&quot;text-align: center;&quot;&gt;t_uFMKSRL_SerialCfgSpec CfgSpec_u&lt;/span&gt;" style="text;strokeColor=#6c8ebf;fillColor=#dae8fc;align=left;verticalAlign=middle;spacingLeft=4;spacingRight=4;overflow=hidden;points=[[0,0.5],[1,0.5]];portConstraint=eastwest;rotatable=0;whiteSpace=wrap;html=1;gradientColor=#7ea6e0;fontColor=#000000;" vertex="1" parent="QTdOFbBlQ-zmw4fpiqV5-42">
          <mxGeometry y="70" width="280" height="30" as="geometry" />
        </mxCell>
        <mxCell id="QTdOFbBlQ-zmw4fpiqV5-52" value="&lt;span style=&quot;text-align: center;&quot;&gt;t_eFMKSRL_LineRunMode&lt;/span&gt;" style="text;strokeColor=#6c8ebf;fillColor=#dae8fc;align=left;verticalAlign=middle;spacingLeft=4;spacingRight=4;overflow=hidden;points=[[0,0.5],[1,0.5]];portConstraint=eastwest;rotatable=0;whiteSpace=wrap;html=1;gradientColor=#7ea6e0;fontColor=#000000;" vertex="1" parent="QTdOFbBlQ-zmw4fpiqV5-42">
          <mxGeometry y="100" width="280" height="30" as="geometry" />
        </mxCell>
        <UserObject label="t_eFMKSRL_SerialHwType HwType_e" link="data:page/id,vGiaRdJSOMbxO_RmzHI1" id="QTdOFbBlQ-zmw4fpiqV5-55">
          <mxCell style="text;strokeColor=#6c8ebf;fillColor=#dae8fc;align=left;verticalAlign=middle;spacingLeft=4;spacingRight=4;overflow=hidden;points=[[0,0.5],[1,0.5]];portConstraint=eastwest;rotatable=0;whiteSpace=wrap;html=1;gradientColor=#7ea6e0;fontColor=#000000;" vertex="1" parent="QTdOFbBlQ-zmw4fpiqV5-42">
            <mxGeometry y="130" width="280" height="30" as="geometry" />
          </mxCell>
        </UserObject>
        <mxCell id="xQh-mG5bKiS9Qte0-cDq-1" value="t_eFMKSRL_FifoOpeMode" style="text;strokeColor=#6c8ebf;fillColor=#dae8fc;align=left;verticalAlign=middle;spacingLeft=4;spacingRight=4;overflow=hidden;points=[[0,0.5],[1,0.5]];portConstraint=eastwest;rotatable=0;whiteSpace=wrap;html=1;gradientColor=#7ea6e0;fontColor=#000000;" vertex="1" parent="QTdOFbBlQ-zmw4fpiqV5-42">
          <mxGeometry y="160" width="280" height="30" as="geometry" />
        </mxCell>
        <mxCell id="S7oYvu6ifitzoL-0lYBm-2" style="edgeStyle=orthogonalEdgeStyle;rounded=0;orthogonalLoop=1;jettySize=auto;html=1;exitX=0;exitY=0.5;exitDx=0;exitDy=0;entryX=0;entryY=0.5;entryDx=0;entryDy=0;fontFamily=Helvetica;fontSize=12;fontColor=#000000;" edge="1" parent="1" source="QTdOFbBlQ-zmw4fpiqV5-48" target="zeV6oMh_QtqGCtAVX_7u-2">
          <mxGeometry relative="1" as="geometry" />
        </mxCell>
        <mxCell id="QTdOFbBlQ-zmw4fpiqV5-48" value="Union: t_uFMKSRL_SerialHardware" style="swimlane;fontStyle=0;childLayout=stackLayout;horizontal=1;startSize=40;horizontalStack=0;resizeParent=1;resizeParentMax=0;resizeLast=0;collapsible=1;marginBottom=0;whiteSpace=wrap;html=1;fillColor=#fff2cc;gradientColor=#ffd966;strokeColor=#d6b656;fontColor=#000000;" vertex="1" parent="1">
          <mxGeometry x="-470" y="230" width="260" height="100" as="geometry">
            <mxRectangle x="-470" y="230" width="240" height="40" as="alternateBounds" />
          </mxGeometry>
        </mxCell>
        <mxCell id="QTdOFbBlQ-zmw4fpiqV5-49" value="uart_s" style="text;strokeColor=#d6b656;fillColor=#fff2cc;align=left;verticalAlign=middle;spacingLeft=4;spacingRight=4;overflow=hidden;points=[[0,0.5],[1,0.5]];portConstraint=eastwest;rotatable=0;whiteSpace=wrap;html=1;gradientColor=#ffd966;fontColor=#000000;" vertex="1" parent="QTdOFbBlQ-zmw4fpiqV5-48">
          <mxGeometry y="40" width="260" height="30" as="geometry" />
        </mxCell>
        <mxCell id="QTdOFbBlQ-zmw4fpiqV5-50" value="usart_s" style="text;strokeColor=#d6b656;fillColor=#fff2cc;align=left;verticalAlign=middle;spacingLeft=4;spacingRight=4;overflow=hidden;points=[[0,0.5],[1,0.5]];portConstraint=eastwest;rotatable=0;whiteSpace=wrap;html=1;gradientColor=#ffd966;fontColor=#000000;" vertex="1" parent="QTdOFbBlQ-zmw4fpiqV5-48">
          <mxGeometry y="70" width="260" height="30" as="geometry" />
        </mxCell>
        <mxCell id="UtdcIfN6HxOS2olpDKWv-61" style="edgeStyle=orthogonalEdgeStyle;rounded=0;orthogonalLoop=1;jettySize=auto;html=1;exitX=1;exitY=0.5;exitDx=0;exitDy=0;entryX=0;entryY=0.5;entryDx=0;entryDy=0;fontFamily=Helvetica;fontSize=12;fontColor=#000000;" edge="1" parent="1" source="QTdOFbBlQ-zmw4fpiqV5-57" target="rPeMrsSt5RIhjVvPCvoP-2">
          <mxGeometry relative="1" as="geometry">
            <Array as="points">
              <mxPoint x="-620" y="1251" />
              <mxPoint x="-620" y="1465" />
            </Array>
          </mxGeometry>
        </mxCell>
        <mxCell id="QTdOFbBlQ-zmw4fpiqV5-57" value="&lt;span style=&quot;color: rgb(0, 0, 0); text-wrap: nowrap;&quot;&gt;typedef: HAL_StatusTypeDef t_cbTransmit_Poll(void * bspInstc, uint8_t *pTxData, uint16_t Size, uint32_t Timeout)&lt;/span&gt;" style="rounded=0;whiteSpace=wrap;html=1;verticalAlign=top;fillColor=#ffcd28;gradientColor=#ffa500;strokeColor=#d79b00;fontSize=16;align=left;" vertex="1" parent="1">
          <mxGeometry x="-1620" y="1230" width="810" height="41.43" as="geometry" />
        </mxCell>
        <mxCell id="UtdcIfN6HxOS2olpDKWv-62" style="edgeStyle=orthogonalEdgeStyle;rounded=0;orthogonalLoop=1;jettySize=auto;html=1;exitX=1;exitY=0.5;exitDx=0;exitDy=0;entryX=0;entryY=0.5;entryDx=0;entryDy=0;fontFamily=Helvetica;fontSize=12;fontColor=#000000;" edge="1" parent="1" source="QTdOFbBlQ-zmw4fpiqV5-62" target="rPeMrsSt5RIhjVvPCvoP-3">
          <mxGeometry relative="1" as="geometry">
            <Array as="points">
              <mxPoint x="-630" y="1331" />
              <mxPoint x="-630" y="1495" />
            </Array>
          </mxGeometry>
        </mxCell>
        <mxCell id="QTdOFbBlQ-zmw4fpiqV5-62" value="&lt;span style=&quot;color: rgb(0, 0, 0); text-wrap: nowrap;&quot;&gt;typedef: HAL_StatusTypeDef t_cbTransmit_IT&lt;/span&gt;&lt;span style=&quot;color: rgb(0, 0, 0); text-wrap: nowrap;&quot;&gt;(void * bspInstc)&lt;/span&gt;" style="rounded=0;whiteSpace=wrap;html=1;verticalAlign=top;fillColor=#ffcd28;gradientColor=#ffa500;strokeColor=#d79b00;fontSize=16;align=left;" vertex="1" parent="1">
          <mxGeometry x="-1620" y="1310" width="810" height="41.43" as="geometry" />
        </mxCell>
        <mxCell id="UtdcIfN6HxOS2olpDKWv-63" style="edgeStyle=orthogonalEdgeStyle;rounded=0;orthogonalLoop=1;jettySize=auto;html=1;exitX=1;exitY=0.5;exitDx=0;exitDy=0;entryX=0;entryY=0.5;entryDx=0;entryDy=0;fontFamily=Helvetica;fontSize=12;fontColor=#000000;" edge="1" parent="1" source="QTdOFbBlQ-zmw4fpiqV5-63" target="rPeMrsSt5RIhjVvPCvoP-4">
          <mxGeometry relative="1" as="geometry">
            <Array as="points">
              <mxPoint x="-640" y="1411" />
              <mxPoint x="-640" y="1525" />
            </Array>
          </mxGeometry>
        </mxCell>
        <mxCell id="QTdOFbBlQ-zmw4fpiqV5-63" value="&lt;span style=&quot;color: rgb(0, 0, 0); text-wrap: nowrap;&quot;&gt;typedef: HAL_StatusTypeDef t_cbTransmit_DMA&lt;/span&gt;&lt;span style=&quot;color: rgb(0, 0, 0); text-wrap: nowrap;&quot;&gt;(void * bspInstc)&lt;/span&gt;" style="rounded=0;whiteSpace=wrap;html=1;verticalAlign=top;fillColor=#ffcd28;gradientColor=#ffa500;strokeColor=#d79b00;fontSize=16;align=left;" vertex="1" parent="1">
          <mxGeometry x="-1620" y="1390" width="810" height="41.43" as="geometry" />
        </mxCell>
        <mxCell id="UtdcIfN6HxOS2olpDKWv-64" style="edgeStyle=orthogonalEdgeStyle;rounded=0;orthogonalLoop=1;jettySize=auto;html=1;exitX=1;exitY=0.5;exitDx=0;exitDy=0;fontFamily=Helvetica;fontSize=12;fontColor=#000000;" edge="1" parent="1" source="QTdOFbBlQ-zmw4fpiqV5-64" target="rPeMrsSt5RIhjVvPCvoP-5">
          <mxGeometry relative="1" as="geometry">
            <Array as="points">
              <mxPoint x="-650" y="1491" />
              <mxPoint x="-650" y="1555" />
            </Array>
          </mxGeometry>
        </mxCell>
        <mxCell id="QTdOFbBlQ-zmw4fpiqV5-64" value="&lt;span style=&quot;color: rgb(0, 0, 0); text-wrap: nowrap;&quot;&gt;typedef: HAL_StatusTypeDef t_cbReceive_Poll(void * bspInstc, uint8_t *pTxData, uint16_t Size, uint32_t Timeout)&lt;/span&gt;" style="rounded=0;whiteSpace=wrap;html=1;verticalAlign=top;fillColor=#ffcd28;gradientColor=#ffa500;strokeColor=#d79b00;fontSize=16;align=left;" vertex="1" parent="1">
          <mxGeometry x="-1620" y="1470" width="810" height="41.43" as="geometry" />
        </mxCell>
        <mxCell id="UtdcIfN6HxOS2olpDKWv-65" style="edgeStyle=orthogonalEdgeStyle;rounded=0;orthogonalLoop=1;jettySize=auto;html=1;exitX=1;exitY=0.5;exitDx=0;exitDy=0;fontFamily=Helvetica;fontSize=12;fontColor=#000000;" edge="1" parent="1" source="QTdOFbBlQ-zmw4fpiqV5-65" target="rPeMrsSt5RIhjVvPCvoP-6">
          <mxGeometry relative="1" as="geometry" />
        </mxCell>
        <mxCell id="QTdOFbBlQ-zmw4fpiqV5-65" value="&lt;span style=&quot;color: rgb(0, 0, 0); text-wrap: nowrap;&quot;&gt;typedef: HAL_StatusTypeDef t_cbReceive_IT(void * bspInstc)&lt;/span&gt;" style="rounded=0;whiteSpace=wrap;html=1;verticalAlign=top;fillColor=#ffcd28;gradientColor=#ffa500;strokeColor=#d79b00;fontSize=16;align=left;" vertex="1" parent="1">
          <mxGeometry x="-1620" y="1550" width="810" height="41.43" as="geometry" />
        </mxCell>
        <mxCell id="UtdcIfN6HxOS2olpDKWv-66" style="edgeStyle=orthogonalEdgeStyle;rounded=0;orthogonalLoop=1;jettySize=auto;html=1;exitX=1;exitY=0.5;exitDx=0;exitDy=0;entryX=0;entryY=0.5;entryDx=0;entryDy=0;fontFamily=Helvetica;fontSize=12;fontColor=#000000;" edge="1" parent="1" source="QTdOFbBlQ-zmw4fpiqV5-66" target="rPeMrsSt5RIhjVvPCvoP-7">
          <mxGeometry relative="1" as="geometry">
            <Array as="points">
              <mxPoint x="-610" y="1651" />
              <mxPoint x="-610" y="1615" />
            </Array>
          </mxGeometry>
        </mxCell>
        <mxCell id="QTdOFbBlQ-zmw4fpiqV5-66" value="&lt;span style=&quot;color: rgb(0, 0, 0); text-wrap: nowrap;&quot;&gt;typedef: HAL_StatusTypeDef t_cbReceive_DMA&lt;/span&gt;&lt;span style=&quot;color: rgb(0, 0, 0); text-wrap: nowrap;&quot;&gt;(void * bspInstc)&lt;/span&gt;" style="rounded=0;whiteSpace=wrap;html=1;verticalAlign=top;fillColor=#ffcd28;gradientColor=#ffa500;strokeColor=#d79b00;fontSize=16;align=left;" vertex="1" parent="1">
          <mxGeometry x="-1620" y="1630" width="810" height="41.43" as="geometry" />
        </mxCell>
        <mxCell id="UtdcIfN6HxOS2olpDKWv-67" style="edgeStyle=orthogonalEdgeStyle;rounded=0;orthogonalLoop=1;jettySize=auto;html=1;exitX=1;exitY=0.5;exitDx=0;exitDy=0;fontFamily=Helvetica;fontSize=12;fontColor=#000000;" edge="1" parent="1" source="QTdOFbBlQ-zmw4fpiqV5-68" target="rPeMrsSt5RIhjVvPCvoP-8">
          <mxGeometry relative="1" as="geometry">
            <Array as="points">
              <mxPoint x="-600" y="1731" />
              <mxPoint x="-600" y="1645" />
            </Array>
          </mxGeometry>
        </mxCell>
        <mxCell id="QTdOFbBlQ-zmw4fpiqV5-68" value="&lt;span style=&quot;color: rgb(0, 0, 0); text-wrap: nowrap;&quot;&gt;typedef: HAL_StatusTypeDef t_cbAbort_Poll&lt;/span&gt;&lt;span style=&quot;color: rgb(0, 0, 0); text-wrap: nowrap;&quot;&gt;(void * bspInstc)&lt;/span&gt;" style="rounded=0;whiteSpace=wrap;html=1;verticalAlign=top;fillColor=#ffcd28;gradientColor=#ffa500;strokeColor=#d79b00;fontSize=16;align=left;" vertex="1" parent="1">
          <mxGeometry x="-1620" y="1710" width="810" height="41.43" as="geometry" />
        </mxCell>
        <mxCell id="UtdcIfN6HxOS2olpDKWv-68" style="edgeStyle=orthogonalEdgeStyle;rounded=0;orthogonalLoop=1;jettySize=auto;html=1;exitX=1;exitY=0.5;exitDx=0;exitDy=0;fontFamily=Helvetica;fontSize=12;fontColor=#000000;" edge="1" parent="1" source="QTdOFbBlQ-zmw4fpiqV5-69" target="rPeMrsSt5RIhjVvPCvoP-9">
          <mxGeometry relative="1" as="geometry">
            <Array as="points">
              <mxPoint x="-590" y="1811" />
              <mxPoint x="-590" y="1675" />
            </Array>
          </mxGeometry>
        </mxCell>
        <mxCell id="QTdOFbBlQ-zmw4fpiqV5-69" value="&lt;span style=&quot;color: rgb(0, 0, 0); text-wrap: nowrap;&quot;&gt;typedef: HAL_StatusTypeDef t_cbAbort_IT&lt;/span&gt;&lt;span style=&quot;color: rgb(0, 0, 0); text-wrap: nowrap;&quot;&gt;(void * bspInstc)&lt;/span&gt;" style="rounded=0;whiteSpace=wrap;html=1;verticalAlign=top;fillColor=#ffcd28;gradientColor=#ffa500;strokeColor=#d79b00;fontSize=16;align=left;" vertex="1" parent="1">
          <mxGeometry x="-1620" y="1790" width="810" height="41.43" as="geometry" />
        </mxCell>
        <mxCell id="zeV6oMh_QtqGCtAVX_7u-11" style="edgeStyle=orthogonalEdgeStyle;rounded=0;orthogonalLoop=1;jettySize=auto;html=1;exitX=1;exitY=0.5;exitDx=0;exitDy=0;entryX=0.5;entryY=0;entryDx=0;entryDy=0;" edge="1" parent="1" source="rPeMrsSt5RIhjVvPCvoP-1" target="rPeMrsSt5RIhjVvPCvoP-13">
          <mxGeometry relative="1" as="geometry" />
        </mxCell>
        <mxCell id="rPeMrsSt5RIhjVvPCvoP-1" value="Struct: t_sFMKSRL_BspTxRxFunc" style="swimlane;fontStyle=0;childLayout=stackLayout;horizontal=1;startSize=40;horizontalStack=0;resizeParent=1;resizeParentMax=0;resizeLast=0;collapsible=1;marginBottom=0;whiteSpace=wrap;html=1;fillColor=#dae8fc;gradientColor=#7ea6e0;strokeColor=#6c8ebf;fontColor=#000000;fontSize=12;" vertex="1" parent="1">
          <mxGeometry x="-420" y="1410" width="280" height="280" as="geometry">
            <mxRectangle x="-560" y="-640" width="240" height="40" as="alternateBounds" />
          </mxGeometry>
        </mxCell>
        <mxCell id="rPeMrsSt5RIhjVvPCvoP-2" value="&lt;span style=&quot;font-size: 12px; text-wrap: nowrap;&quot;&gt;t_cbTransmit_Poll * TransmitPoll_pcb&lt;/span&gt;" style="text;strokeColor=#6c8ebf;fillColor=#dae8fc;align=left;verticalAlign=middle;spacingLeft=4;spacingRight=4;overflow=hidden;points=[[0,0.5],[1,0.5]];portConstraint=eastwest;rotatable=0;whiteSpace=wrap;html=1;gradientColor=#7ea6e0;fontColor=#000000;fontSize=12;" vertex="1" parent="rPeMrsSt5RIhjVvPCvoP-1">
          <mxGeometry y="40" width="280" height="30" as="geometry" />
        </mxCell>
        <mxCell id="rPeMrsSt5RIhjVvPCvoP-3" value="&lt;span style=&quot;font-size: 12px; text-wrap: nowrap;&quot;&gt;t_cbTransmit_IT * TransmitIT_pcb&lt;/span&gt;" style="text;strokeColor=#6c8ebf;fillColor=#dae8fc;align=left;verticalAlign=middle;spacingLeft=4;spacingRight=4;overflow=hidden;points=[[0,0.5],[1,0.5]];portConstraint=eastwest;rotatable=0;whiteSpace=wrap;html=1;gradientColor=#7ea6e0;fontColor=#000000;fontSize=12;" vertex="1" parent="rPeMrsSt5RIhjVvPCvoP-1">
          <mxGeometry y="70" width="280" height="30" as="geometry" />
        </mxCell>
        <mxCell id="rPeMrsSt5RIhjVvPCvoP-4" value="&lt;span style=&quot;font-size: 12px; text-wrap: nowrap;&quot;&gt;t_cbTransmit_DMA * TransmitDMA_pcb&lt;/span&gt;" style="text;strokeColor=#6c8ebf;fillColor=#dae8fc;align=left;verticalAlign=middle;spacingLeft=4;spacingRight=4;overflow=hidden;points=[[0,0.5],[1,0.5]];portConstraint=eastwest;rotatable=0;whiteSpace=wrap;html=1;gradientColor=#7ea6e0;fontColor=#000000;fontSize=12;" vertex="1" parent="rPeMrsSt5RIhjVvPCvoP-1">
          <mxGeometry y="100" width="280" height="30" as="geometry" />
        </mxCell>
        <mxCell id="rPeMrsSt5RIhjVvPCvoP-5" value="&lt;span style=&quot;font-size: 12px; text-wrap: nowrap;&quot;&gt;t_cbReceive_Poll * ReceivePoll_pcb&lt;/span&gt;" style="text;strokeColor=#6c8ebf;fillColor=#dae8fc;align=left;verticalAlign=middle;spacingLeft=4;spacingRight=4;overflow=hidden;points=[[0,0.5],[1,0.5]];portConstraint=eastwest;rotatable=0;whiteSpace=wrap;html=1;gradientColor=#7ea6e0;fontColor=#000000;fontSize=12;" vertex="1" parent="rPeMrsSt5RIhjVvPCvoP-1">
          <mxGeometry y="130" width="280" height="30" as="geometry" />
        </mxCell>
        <mxCell id="rPeMrsSt5RIhjVvPCvoP-6" value="&lt;span style=&quot;font-size: 12px; text-wrap: nowrap;&quot;&gt;t_cbReceive_IT * ReceiveIT_pcb&lt;/span&gt;" style="text;strokeColor=#6c8ebf;fillColor=#dae8fc;align=left;verticalAlign=middle;spacingLeft=4;spacingRight=4;overflow=hidden;points=[[0,0.5],[1,0.5]];portConstraint=eastwest;rotatable=0;whiteSpace=wrap;html=1;gradientColor=#7ea6e0;fontColor=#000000;fontSize=12;" vertex="1" parent="rPeMrsSt5RIhjVvPCvoP-1">
          <mxGeometry y="160" width="280" height="30" as="geometry" />
        </mxCell>
        <mxCell id="rPeMrsSt5RIhjVvPCvoP-7" value="&lt;span style=&quot;font-size: 12px; text-wrap: nowrap;&quot;&gt;t_cbReceive_DMA * ReceiveDMA_pcb&lt;/span&gt;" style="text;strokeColor=#6c8ebf;fillColor=#dae8fc;align=left;verticalAlign=middle;spacingLeft=4;spacingRight=4;overflow=hidden;points=[[0,0.5],[1,0.5]];portConstraint=eastwest;rotatable=0;whiteSpace=wrap;html=1;gradientColor=#7ea6e0;fontColor=#000000;fontSize=12;" vertex="1" parent="rPeMrsSt5RIhjVvPCvoP-1">
          <mxGeometry y="190" width="280" height="30" as="geometry" />
        </mxCell>
        <mxCell id="rPeMrsSt5RIhjVvPCvoP-8" value="&lt;span style=&quot;font-size: 12px; text-wrap: nowrap;&quot;&gt;t_cbAbort_Poll * AbortPoll_pcb&lt;/span&gt;" style="text;strokeColor=#6c8ebf;fillColor=#dae8fc;align=left;verticalAlign=middle;spacingLeft=4;spacingRight=4;overflow=hidden;points=[[0,0.5],[1,0.5]];portConstraint=eastwest;rotatable=0;whiteSpace=wrap;html=1;gradientColor=#7ea6e0;fontColor=#000000;fontSize=12;" vertex="1" parent="rPeMrsSt5RIhjVvPCvoP-1">
          <mxGeometry y="220" width="280" height="30" as="geometry" />
        </mxCell>
        <mxCell id="rPeMrsSt5RIhjVvPCvoP-9" value="&lt;span style=&quot;font-size: 12px; text-wrap: nowrap;&quot;&gt;t_cbAbort_IT * AbortIT_pcb&lt;/span&gt;" style="text;strokeColor=#6c8ebf;fillColor=#dae8fc;align=left;verticalAlign=middle;spacingLeft=4;spacingRight=4;overflow=hidden;points=[[0,0.5],[1,0.5]];portConstraint=eastwest;rotatable=0;whiteSpace=wrap;html=1;gradientColor=#7ea6e0;fontColor=#000000;fontSize=12;" vertex="1" parent="rPeMrsSt5RIhjVvPCvoP-1">
          <mxGeometry y="250" width="280" height="30" as="geometry" />
        </mxCell>
        <mxCell id="rPeMrsSt5RIhjVvPCvoP-11" value="" style="group;fontSize=12;" connectable="0" vertex="1" parent="1">
          <mxGeometry x="960" y="1490" width="500" height="90" as="geometry" />
        </mxCell>
        <mxCell id="rPeMrsSt5RIhjVvPCvoP-12" value="" style="rounded=0;whiteSpace=wrap;html=1;fillColor=#fff2cc;gradientColor=#ffd966;strokeColor=#d6b656;fontColor=#000000;fontSize=12;" vertex="1" parent="rPeMrsSt5RIhjVvPCvoP-11">
          <mxGeometry width="499.99999999999994" height="90" as="geometry" />
        </mxCell>
        <mxCell id="rPeMrsSt5RIhjVvPCvoP-13" value="t_sFMKSRL_BspTxRxFunc&lt;br style=&quot;font-size: 12px;&quot;&gt;&lt;div style=&quot;font-size: 12px;&quot;&gt;&lt;span style=&quot;font-size: 12px; text-align: left; text-wrap: nowrap; background-color: initial;&quot;&gt;In ConfigPrivate.c&lt;/span&gt;&lt;/div&gt;" style="rounded=0;whiteSpace=wrap;html=1;fillColor=#fff2cc;gradientColor=#ffd966;strokeColor=#d6b656;fontColor=#000000;fontSize=12;" vertex="1" parent="rPeMrsSt5RIhjVvPCvoP-11">
          <mxGeometry width="499.99999999999994" height="40" as="geometry" />
        </mxCell>
        <mxCell id="rPeMrsSt5RIhjVvPCvoP-14" value="&lt;div style=&quot;text-align: center; font-size: 12px;&quot;&gt;&lt;span style=&quot;font-size: 12px; text-wrap: nowrap;&quot;&gt;c_BspTxRxFunc_apf{&lt;/span&gt;FMKSRL_SERIAL_HW_NB&lt;span style=&quot;font-size: 12px; text-wrap: nowrap;&quot;&gt;}&lt;/span&gt;&lt;/div&gt;" style="rounded=0;whiteSpace=wrap;html=1;fillColor=#fff2cc;gradientColor=#ffd966;strokeColor=#d6b656;fontColor=#000000;fontSize=12;" vertex="1" parent="rPeMrsSt5RIhjVvPCvoP-11">
          <mxGeometry y="40" width="499.99999999999994" height="50" as="geometry" />
        </mxCell>
        <mxCell id="rPeMrsSt5RIhjVvPCvoP-36" style="edgeStyle=orthogonalEdgeStyle;rounded=0;orthogonalLoop=1;jettySize=auto;html=1;exitX=1;exitY=0.25;exitDx=0;exitDy=0;entryX=0.5;entryY=0;entryDx=0;entryDy=0;" edge="1" parent="1" source="rPeMrsSt5RIhjVvPCvoP-23" target="rPeMrsSt5RIhjVvPCvoP-34">
          <mxGeometry relative="1" as="geometry" />
        </mxCell>
        <mxCell id="rPeMrsSt5RIhjVvPCvoP-23" value="Enum : t_eFMKSRL_DmaRqst" style="swimlane;fontStyle=0;childLayout=stackLayout;horizontal=1;startSize=40;horizontalStack=0;resizeParent=1;resizeParentMax=0;resizeLast=0;collapsible=1;marginBottom=0;whiteSpace=wrap;html=1;fillColor=#f8cecc;gradientColor=#ea6b66;strokeColor=#b85450;fontColor=#000000;" vertex="1" parent="1">
          <mxGeometry x="-1600" y="720" width="240" height="160" as="geometry">
            <mxRectangle x="-720" y="-400" width="240" height="40" as="alternateBounds" />
          </mxGeometry>
        </mxCell>
        <mxCell id="rPeMrsSt5RIhjVvPCvoP-24" value="FMKSRL_DMA_RQST_PAUSE" style="text;strokeColor=#b85450;fillColor=#f8cecc;align=left;verticalAlign=middle;spacingLeft=4;spacingRight=4;overflow=hidden;points=[[0,0.5],[1,0.5]];portConstraint=eastwest;rotatable=0;whiteSpace=wrap;html=1;gradientColor=#ea6b66;fontColor=#000000;" vertex="1" parent="rPeMrsSt5RIhjVvPCvoP-23">
          <mxGeometry y="40" width="240" height="30" as="geometry" />
        </mxCell>
        <mxCell id="rPeMrsSt5RIhjVvPCvoP-25" value="FMKSRL_DMA_RQST_RESUME" style="text;strokeColor=#b85450;fillColor=#f8cecc;align=left;verticalAlign=middle;spacingLeft=4;spacingRight=4;overflow=hidden;points=[[0,0.5],[1,0.5]];portConstraint=eastwest;rotatable=0;whiteSpace=wrap;html=1;gradientColor=#ea6b66;fontColor=#000000;" vertex="1" parent="rPeMrsSt5RIhjVvPCvoP-23">
          <mxGeometry y="70" width="240" height="30" as="geometry" />
        </mxCell>
        <mxCell id="rPeMrsSt5RIhjVvPCvoP-26" value="FMKSRL_DMA_RQST_STOP" style="text;strokeColor=#b85450;fillColor=#f8cecc;align=left;verticalAlign=middle;spacingLeft=4;spacingRight=4;overflow=hidden;points=[[0,0.5],[1,0.5]];portConstraint=eastwest;rotatable=0;whiteSpace=wrap;html=1;gradientColor=#ea6b66;fontColor=#000000;" vertex="1" parent="rPeMrsSt5RIhjVvPCvoP-23">
          <mxGeometry y="100" width="240" height="30" as="geometry" />
        </mxCell>
        <mxCell id="rPeMrsSt5RIhjVvPCvoP-27" value="FMKSRL_DMA_RQST_NB" style="text;strokeColor=#b85450;fillColor=#f8cecc;align=left;verticalAlign=middle;spacingLeft=4;spacingRight=4;overflow=hidden;points=[[0,0.5],[1,0.5]];portConstraint=eastwest;rotatable=0;whiteSpace=wrap;html=1;gradientColor=#ea6b66;fontColor=#000000;" vertex="1" parent="rPeMrsSt5RIhjVvPCvoP-23">
          <mxGeometry y="130" width="240" height="30" as="geometry" />
        </mxCell>
        <mxCell id="rPeMrsSt5RIhjVvPCvoP-32" value="" style="group;fontSize=12;" connectable="0" vertex="1" parent="1">
          <mxGeometry x="960" y="930" width="500" height="90" as="geometry" />
        </mxCell>
        <mxCell id="rPeMrsSt5RIhjVvPCvoP-33" value="" style="rounded=0;whiteSpace=wrap;html=1;fillColor=#fff2cc;gradientColor=#ffd966;strokeColor=#d6b656;fontColor=#000000;fontSize=12;" vertex="1" parent="rPeMrsSt5RIhjVvPCvoP-32">
          <mxGeometry width="499.99999999999994" height="90" as="geometry" />
        </mxCell>
        <mxCell id="rPeMrsSt5RIhjVvPCvoP-34" value="const HAL_StatusTypeDef&amp;nbsp;" style="rounded=0;whiteSpace=wrap;html=1;fillColor=#fff2cc;gradientColor=#ffd966;strokeColor=#d6b656;fontColor=#000000;fontSize=12;" vertex="1" parent="rPeMrsSt5RIhjVvPCvoP-32">
          <mxGeometry width="499.99999999999994" height="40" as="geometry" />
        </mxCell>
        <mxCell id="rPeMrsSt5RIhjVvPCvoP-35" value="&lt;div style=&quot;text-align: center; font-size: 12px;&quot;&gt;&lt;span style=&quot;background-color: initial;&quot;&gt;c_BspDmaMngmtFunc_apf&lt;/span&gt;&lt;span style=&quot;font-size: 12px; text-wrap: nowrap;&quot;&gt;{&lt;/span&gt;&lt;span style=&quot;text-align: left;&quot;&gt;FMKSRL_DMA_RQST_NB&lt;/span&gt;&lt;span style=&quot;font-size: 12px; text-wrap: nowrap;&quot;&gt;}&lt;/span&gt;&lt;/div&gt;" style="rounded=0;whiteSpace=wrap;html=1;fillColor=#fff2cc;gradientColor=#ffd966;strokeColor=#d6b656;fontColor=#000000;fontSize=12;" vertex="1" parent="rPeMrsSt5RIhjVvPCvoP-32">
          <mxGeometry y="40" width="499.99999999999994" height="50" as="geometry" />
        </mxCell>
        <mxCell id="rPeMrsSt5RIhjVvPCvoP-41" value="Enum : t_eFMKSRL_BspUartLine&lt;div&gt;in ConfigPrivate&lt;/div&gt;" style="swimlane;fontStyle=0;childLayout=stackLayout;horizontal=1;startSize=40;horizontalStack=0;resizeParent=1;resizeParentMax=0;resizeLast=0;collapsible=1;marginBottom=0;whiteSpace=wrap;html=1;fillColor=#f8cecc;gradientColor=#ea6b66;strokeColor=#b85450;fontColor=#000000;" vertex="1" parent="1">
          <mxGeometry x="-1600" y="-880" width="203" height="130" as="geometry">
            <mxRectangle x="-1000" y="-400" width="240" height="40" as="alternateBounds" />
          </mxGeometry>
        </mxCell>
        <mxCell id="rPeMrsSt5RIhjVvPCvoP-42" value="FMKSRL_BSP_UART_LINE_1" style="text;strokeColor=#b85450;fillColor=#f8cecc;align=left;verticalAlign=middle;spacingLeft=4;spacingRight=4;overflow=hidden;points=[[0,0.5],[1,0.5]];portConstraint=eastwest;rotatable=0;whiteSpace=wrap;html=1;gradientColor=#ea6b66;fontColor=#000000;" vertex="1" parent="rPeMrsSt5RIhjVvPCvoP-41">
          <mxGeometry y="40" width="203" height="30" as="geometry" />
        </mxCell>
        <mxCell id="rPeMrsSt5RIhjVvPCvoP-43" value="FMKSRL_BSP_UART_LINE_2" style="text;strokeColor=#b85450;fillColor=#f8cecc;align=left;verticalAlign=middle;spacingLeft=4;spacingRight=4;overflow=hidden;points=[[0,0.5],[1,0.5]];portConstraint=eastwest;rotatable=0;whiteSpace=wrap;html=1;gradientColor=#ea6b66;fontColor=#000000;" vertex="1" parent="rPeMrsSt5RIhjVvPCvoP-41">
          <mxGeometry y="70" width="203" height="30" as="geometry" />
        </mxCell>
        <mxCell id="rPeMrsSt5RIhjVvPCvoP-44" value="FMKSRL_BSP_UART_LINE_NB" style="text;strokeColor=#b85450;fillColor=#f8cecc;align=left;verticalAlign=middle;spacingLeft=4;spacingRight=4;overflow=hidden;points=[[0,0.5],[1,0.5]];portConstraint=eastwest;rotatable=0;whiteSpace=wrap;html=1;gradientColor=#ea6b66;fontColor=#000000;" vertex="1" parent="rPeMrsSt5RIhjVvPCvoP-41">
          <mxGeometry y="100" width="203" height="30" as="geometry" />
        </mxCell>
        <mxCell id="rPeMrsSt5RIhjVvPCvoP-47" value="Enum : t_eFMKSRL_BspUsartLine&lt;div&gt;in ConfigPrivate&lt;/div&gt;" style="swimlane;fontStyle=0;childLayout=stackLayout;horizontal=1;startSize=40;horizontalStack=0;resizeParent=1;resizeParentMax=0;resizeLast=0;collapsible=1;marginBottom=0;whiteSpace=wrap;html=1;fillColor=#f8cecc;gradientColor=#ea6b66;strokeColor=#b85450;fontColor=#000000;" vertex="1" parent="1">
          <mxGeometry x="-1600" y="-1040" width="203" height="130" as="geometry">
            <mxRectangle x="-1000" y="-400" width="240" height="40" as="alternateBounds" />
          </mxGeometry>
        </mxCell>
        <mxCell id="rPeMrsSt5RIhjVvPCvoP-48" value="FMKSRL_BSP_USART_LINE_1" style="text;strokeColor=#b85450;fillColor=#f8cecc;align=left;verticalAlign=middle;spacingLeft=4;spacingRight=4;overflow=hidden;points=[[0,0.5],[1,0.5]];portConstraint=eastwest;rotatable=0;whiteSpace=wrap;html=1;gradientColor=#ea6b66;fontColor=#000000;" vertex="1" parent="rPeMrsSt5RIhjVvPCvoP-47">
          <mxGeometry y="40" width="203" height="30" as="geometry" />
        </mxCell>
        <mxCell id="rPeMrsSt5RIhjVvPCvoP-49" value="FMKSRL_BSP_USART_LINE_2" style="text;strokeColor=#b85450;fillColor=#f8cecc;align=left;verticalAlign=middle;spacingLeft=4;spacingRight=4;overflow=hidden;points=[[0,0.5],[1,0.5]];portConstraint=eastwest;rotatable=0;whiteSpace=wrap;html=1;gradientColor=#ea6b66;fontColor=#000000;" vertex="1" parent="rPeMrsSt5RIhjVvPCvoP-47">
          <mxGeometry y="70" width="203" height="30" as="geometry" />
        </mxCell>
        <mxCell id="rPeMrsSt5RIhjVvPCvoP-50" value="FMKSRL_BSP_USART_LINE_NB" style="text;strokeColor=#b85450;fillColor=#f8cecc;align=left;verticalAlign=middle;spacingLeft=4;spacingRight=4;overflow=hidden;points=[[0,0.5],[1,0.5]];portConstraint=eastwest;rotatable=0;whiteSpace=wrap;html=1;gradientColor=#ea6b66;fontColor=#000000;" vertex="1" parent="rPeMrsSt5RIhjVvPCvoP-47">
          <mxGeometry y="100" width="203" height="30" as="geometry" />
        </mxCell>
        <mxCell id="zeV6oMh_QtqGCtAVX_7u-1" value="Struct: t_eFMKSRL_SerialInfo&lt;div&gt;in .c&lt;/div&gt;" style="swimlane;fontStyle=0;childLayout=stackLayout;horizontal=1;startSize=40;horizontalStack=0;resizeParent=1;resizeParentMax=0;resizeLast=0;collapsible=1;marginBottom=0;whiteSpace=wrap;html=1;fillColor=#dae8fc;gradientColor=#7ea6e0;strokeColor=#6c8ebf;fontColor=#000000;" vertex="1" parent="1">
          <mxGeometry x="-480" y="370" width="280" height="310" as="geometry">
            <mxRectangle x="-560" y="-640" width="240" height="40" as="alternateBounds" />
          </mxGeometry>
        </mxCell>
        <mxCell id="zeV6oMh_QtqGCtAVX_7u-2" value="&lt;span style=&quot;text-align: center;&quot;&gt;t_uFMKSRL_SerialHardware bspIstc_u&lt;/span&gt;" style="text;strokeColor=#6c8ebf;fillColor=#dae8fc;align=left;verticalAlign=middle;spacingLeft=4;spacingRight=4;overflow=hidden;points=[[0,0.5],[1,0.5]];portConstraint=eastwest;rotatable=0;whiteSpace=wrap;html=1;gradientColor=#7ea6e0;fontColor=#000000;" vertex="1" parent="zeV6oMh_QtqGCtAVX_7u-1">
          <mxGeometry y="40" width="280" height="30" as="geometry" />
        </mxCell>
        <mxCell id="zeV6oMh_QtqGCtAVX_7u-3" value="const t_eFMKCPPU_ClockPort" style="text;strokeColor=#6c8ebf;fillColor=#dae8fc;align=left;verticalAlign=middle;spacingLeft=4;spacingRight=4;overflow=hidden;points=[[0,0.5],[1,0.5]];portConstraint=eastwest;rotatable=0;whiteSpace=wrap;html=1;gradientColor=#7ea6e0;fontColor=#000000;" vertex="1" parent="zeV6oMh_QtqGCtAVX_7u-1">
          <mxGeometry y="70" width="280" height="30" as="geometry" />
        </mxCell>
        <mxCell id="zeV6oMh_QtqGCtAVX_7u-4" value="const t_eFMKCPU_IRQNType&amp;nbsp;" style="text;strokeColor=#6c8ebf;fillColor=#dae8fc;align=left;verticalAlign=middle;spacingLeft=4;spacingRight=4;overflow=hidden;points=[[0,0.5],[1,0.5]];portConstraint=eastwest;rotatable=0;whiteSpace=wrap;html=1;gradientColor=#7ea6e0;fontColor=#000000;" vertex="1" parent="zeV6oMh_QtqGCtAVX_7u-1">
          <mxGeometry y="100" width="280" height="30" as="geometry" />
        </mxCell>
        <mxCell id="zeV6oMh_QtqGCtAVX_7u-7" value="&lt;span style=&quot;text-align: center;&quot;&gt;t_eFMKSRL_SerialSoftType So&lt;/span&gt;Type_e" style="text;strokeColor=#6c8ebf;fillColor=#dae8fc;align=left;verticalAlign=middle;spacingLeft=4;spacingRight=4;overflow=hidden;points=[[0,0.5],[1,0.5]];portConstraint=eastwest;rotatable=0;whiteSpace=wrap;html=1;gradientColor=#7ea6e0;fontColor=#000000;" vertex="1" parent="zeV6oMh_QtqGCtAVX_7u-1">
          <mxGeometry y="130" width="280" height="30" as="geometry" />
        </mxCell>
        <mxCell id="zeV6oMh_QtqGCtAVX_7u-6" value="t_bool IsLineRunning_b" style="text;strokeColor=#6c8ebf;fillColor=#dae8fc;align=left;verticalAlign=middle;spacingLeft=4;spacingRight=4;overflow=hidden;points=[[0,0.5],[1,0.5]];portConstraint=eastwest;rotatable=0;whiteSpace=wrap;html=1;gradientColor=#7ea6e0;fontColor=#000000;" vertex="1" parent="zeV6oMh_QtqGCtAVX_7u-1">
          <mxGeometry y="160" width="280" height="30" as="geometry" />
        </mxCell>
        <mxCell id="zeV6oMh_QtqGCtAVX_7u-5" value="t_bool IsLineConfigured_b" style="text;strokeColor=#6c8ebf;fillColor=#dae8fc;align=left;verticalAlign=middle;spacingLeft=4;spacingRight=4;overflow=hidden;points=[[0,0.5],[1,0.5]];portConstraint=eastwest;rotatable=0;whiteSpace=wrap;html=1;gradientColor=#7ea6e0;fontColor=#000000;" vertex="1" parent="zeV6oMh_QtqGCtAVX_7u-1">
          <mxGeometry y="190" width="280" height="30" as="geometry" />
        </mxCell>
        <mxCell id="DUiJk3lmP2IWH2LfHyKE-1" value="t_eFMKSRL_FifoOpeMode" style="text;strokeColor=#6c8ebf;fillColor=#dae8fc;align=left;verticalAlign=middle;spacingLeft=4;spacingRight=4;overflow=hidden;points=[[0,0.5],[1,0.5]];portConstraint=eastwest;rotatable=0;whiteSpace=wrap;html=1;gradientColor=#7ea6e0;fontColor=#000000;fontSize=12;" vertex="1" parent="zeV6oMh_QtqGCtAVX_7u-1">
          <mxGeometry y="220" width="280" height="30" as="geometry" />
        </mxCell>
        <mxCell id="H6dWRC-GPlg8jXoqrJfH-4" value="&lt;span style=&quot;font-size: 12px; text-wrap: nowrap;&quot;&gt;t_cbFMKSRL_ReceiveMsgEvent *&lt;/span&gt;" style="text;strokeColor=#6c8ebf;fillColor=#dae8fc;align=left;verticalAlign=middle;spacingLeft=4;spacingRight=4;overflow=hidden;points=[[0,0.5],[1,0.5]];portConstraint=eastwest;rotatable=0;whiteSpace=wrap;html=1;gradientColor=#7ea6e0;fontColor=#000000;fontSize=12;" vertex="1" parent="zeV6oMh_QtqGCtAVX_7u-1">
          <mxGeometry y="250" width="280" height="30" as="geometry" />
        </mxCell>
        <mxCell id="H6dWRC-GPlg8jXoqrJfH-5" value="&lt;span style=&quot;font-size: 12px; text-wrap: nowrap;&quot;&gt;t_cbFMKSRL_TransmitMsgEvent *&lt;/span&gt;" style="text;strokeColor=#6c8ebf;fillColor=#dae8fc;align=left;verticalAlign=middle;spacingLeft=4;spacingRight=4;overflow=hidden;points=[[0,0.5],[1,0.5]];portConstraint=eastwest;rotatable=0;whiteSpace=wrap;html=1;gradientColor=#7ea6e0;fontColor=#000000;fontSize=12;" vertex="1" parent="zeV6oMh_QtqGCtAVX_7u-1">
          <mxGeometry y="280" width="280" height="30" as="geometry" />
        </mxCell>
        <mxCell id="UtdcIfN6HxOS2olpDKWv-33" style="edgeStyle=orthogonalEdgeStyle;rounded=0;orthogonalLoop=1;jettySize=auto;html=1;exitX=1;exitY=0.25;exitDx=0;exitDy=0;entryX=0;entryY=0.5;entryDx=0;entryDy=0;fontFamily=Helvetica;fontSize=12;fontColor=#000000;" edge="1" parent="1" source="UtdcIfN6HxOS2olpDKWv-2" target="UtdcIfN6HxOS2olpDKWv-10">
          <mxGeometry relative="1" as="geometry">
            <Array as="points">
              <mxPoint x="-780" y="-880" />
              <mxPoint x="-780" y="-470" />
            </Array>
          </mxGeometry>
        </mxCell>
        <mxCell id="UtdcIfN6HxOS2olpDKWv-2" value="Enum : t_eFMKSRL_LineBaudrate" style="swimlane;fontStyle=0;childLayout=stackLayout;horizontal=1;startSize=40;horizontalStack=0;resizeParent=1;resizeParentMax=0;resizeLast=0;collapsible=1;marginBottom=0;whiteSpace=wrap;html=1;fillColor=#f8cecc;gradientColor=#ea6b66;strokeColor=#b85450;fontColor=#000000;" vertex="1" collapsed="1" parent="1">
          <mxGeometry x="-1180" y="-920" width="240" height="40" as="geometry">
            <mxRectangle x="-1180" y="-920" width="260" height="160" as="alternateBounds" />
          </mxGeometry>
        </mxCell>
        <mxCell id="UtdcIfN6HxOS2olpDKWv-3" value="FMKSRL_LINE_BAUDRATE_9600" style="text;strokeColor=#b85450;fillColor=#f8cecc;align=left;verticalAlign=middle;spacingLeft=4;spacingRight=4;overflow=hidden;points=[[0,0.5],[1,0.5]];portConstraint=eastwest;rotatable=0;whiteSpace=wrap;html=1;gradientColor=#ea6b66;fontColor=#000000;" vertex="1" parent="UtdcIfN6HxOS2olpDKWv-2">
          <mxGeometry y="40" width="260" height="30" as="geometry" />
        </mxCell>
        <mxCell id="UtdcIfN6HxOS2olpDKWv-4" value="FMKSRL_LINE_BAUDRATE_115200" style="text;strokeColor=#b85450;fillColor=#f8cecc;align=left;verticalAlign=middle;spacingLeft=4;spacingRight=4;overflow=hidden;points=[[0,0.5],[1,0.5]];portConstraint=eastwest;rotatable=0;whiteSpace=wrap;html=1;gradientColor=#ea6b66;fontColor=#000000;" vertex="1" parent="UtdcIfN6HxOS2olpDKWv-2">
          <mxGeometry y="70" width="260" height="30" as="geometry" />
        </mxCell>
        <mxCell id="UtdcIfN6HxOS2olpDKWv-5" value="FMKSRL_LINE_BAUDRATE_250000" style="text;strokeColor=#b85450;fillColor=#f8cecc;align=left;verticalAlign=middle;spacingLeft=4;spacingRight=4;overflow=hidden;points=[[0,0.5],[1,0.5]];portConstraint=eastwest;rotatable=0;whiteSpace=wrap;html=1;gradientColor=#ea6b66;fontColor=#000000;" vertex="1" parent="UtdcIfN6HxOS2olpDKWv-2">
          <mxGeometry y="100" width="260" height="30" as="geometry" />
        </mxCell>
        <mxCell id="UtdcIfN6HxOS2olpDKWv-6" value="FMKSRL_LINE_BAUDRATE_NB" style="text;strokeColor=#b85450;fillColor=#f8cecc;align=left;verticalAlign=middle;spacingLeft=4;spacingRight=4;overflow=hidden;points=[[0,0.5],[1,0.5]];portConstraint=eastwest;rotatable=0;whiteSpace=wrap;html=1;gradientColor=#ea6b66;fontColor=#000000;" vertex="1" parent="UtdcIfN6HxOS2olpDKWv-2">
          <mxGeometry y="130" width="260" height="30" as="geometry" />
        </mxCell>
        <mxCell id="UtdcIfN6HxOS2olpDKWv-9" value="Struct: t_sFMKSRL_HwProtocolCfg&lt;div&gt;in .h&lt;/div&gt;" style="swimlane;fontStyle=0;childLayout=stackLayout;horizontal=1;startSize=40;horizontalStack=0;resizeParent=1;resizeParentMax=0;resizeLast=0;collapsible=1;marginBottom=0;whiteSpace=wrap;html=1;fillColor=#dae8fc;gradientColor=#7ea6e0;strokeColor=#6c8ebf;fontColor=#000000;" vertex="1" parent="1">
          <mxGeometry x="-730" y="-525" width="280" height="190" as="geometry">
            <mxRectangle x="-560" y="-640" width="240" height="40" as="alternateBounds" />
          </mxGeometry>
        </mxCell>
        <mxCell id="UtdcIfN6HxOS2olpDKWv-10" value="t_eFMKSRL_LineBaudrate" style="text;strokeColor=#6c8ebf;fillColor=#dae8fc;align=left;verticalAlign=middle;spacingLeft=4;spacingRight=4;overflow=hidden;points=[[0,0.5],[1,0.5]];portConstraint=eastwest;rotatable=0;whiteSpace=wrap;html=1;gradientColor=#7ea6e0;fontColor=#000000;" vertex="1" parent="UtdcIfN6HxOS2olpDKWv-9">
          <mxGeometry y="40" width="280" height="30" as="geometry" />
        </mxCell>
        <mxCell id="UtdcIfN6HxOS2olpDKWv-11" value="&lt;span style=&quot;text-align: center;&quot;&gt;t_eFMKSRL_LineMode&lt;/span&gt;" style="text;strokeColor=#6c8ebf;fillColor=#dae8fc;align=left;verticalAlign=middle;spacingLeft=4;spacingRight=4;overflow=hidden;points=[[0,0.5],[1,0.5]];portConstraint=eastwest;rotatable=0;whiteSpace=wrap;html=1;gradientColor=#7ea6e0;fontColor=#000000;" vertex="1" parent="UtdcIfN6HxOS2olpDKWv-9">
          <mxGeometry y="70" width="280" height="30" as="geometry" />
        </mxCell>
        <mxCell id="UtdcIfN6HxOS2olpDKWv-12" value="&lt;span style=&quot;text-align: center;&quot;&gt;t_eFMKSRL_LineParity&lt;/span&gt;" style="text;strokeColor=#6c8ebf;fillColor=#dae8fc;align=left;verticalAlign=middle;spacingLeft=4;spacingRight=4;overflow=hidden;points=[[0,0.5],[1,0.5]];portConstraint=eastwest;rotatable=0;whiteSpace=wrap;html=1;gradientColor=#7ea6e0;fontColor=#000000;" vertex="1" parent="UtdcIfN6HxOS2olpDKWv-9">
          <mxGeometry y="100" width="280" height="30" as="geometry" />
        </mxCell>
        <mxCell id="UtdcIfN6HxOS2olpDKWv-13" value="&lt;span style=&quot;text-align: center;&quot;&gt;t_eFMKSRL_LineStopBit&lt;/span&gt;" style="text;strokeColor=#6c8ebf;fillColor=#dae8fc;align=left;verticalAlign=middle;spacingLeft=4;spacingRight=4;overflow=hidden;points=[[0,0.5],[1,0.5]];portConstraint=eastwest;rotatable=0;whiteSpace=wrap;html=1;gradientColor=#7ea6e0;fontColor=#000000;" vertex="1" parent="UtdcIfN6HxOS2olpDKWv-9">
          <mxGeometry y="130" width="280" height="30" as="geometry" />
        </mxCell>
        <mxCell id="kOp5GAci-4tQ5npFLlXT-5" value="&lt;span style=&quot;text-align: center;&quot;&gt;t_eFMKSRL_LineWordLenght&amp;nbsp;&lt;/span&gt;" style="text;strokeColor=#6c8ebf;fillColor=#dae8fc;align=left;verticalAlign=middle;spacingLeft=4;spacingRight=4;overflow=hidden;points=[[0,0.5],[1,0.5]];portConstraint=eastwest;rotatable=0;whiteSpace=wrap;html=1;gradientColor=#7ea6e0;fontColor=#000000;" vertex="1" parent="UtdcIfN6HxOS2olpDKWv-9">
          <mxGeometry y="160" width="280" height="30" as="geometry" />
        </mxCell>
        <mxCell id="UtdcIfN6HxOS2olpDKWv-32" style="edgeStyle=orthogonalEdgeStyle;rounded=0;orthogonalLoop=1;jettySize=auto;html=1;exitX=1;exitY=0.25;exitDx=0;exitDy=0;entryX=0;entryY=0.5;entryDx=0;entryDy=0;fontFamily=Helvetica;fontSize=12;fontColor=#000000;" edge="1" parent="1" source="UtdcIfN6HxOS2olpDKWv-17" target="UtdcIfN6HxOS2olpDKWv-11">
          <mxGeometry relative="1" as="geometry" />
        </mxCell>
        <mxCell id="UtdcIfN6HxOS2olpDKWv-17" value="Enum : t_eFMKSRL_LineMode" style="swimlane;fontStyle=0;childLayout=stackLayout;horizontal=1;startSize=40;horizontalStack=0;resizeParent=1;resizeParentMax=0;resizeLast=0;collapsible=1;marginBottom=0;whiteSpace=wrap;html=1;fillColor=#f8cecc;gradientColor=#ea6b66;strokeColor=#b85450;fontColor=#000000;" vertex="1" collapsed="1" parent="1">
          <mxGeometry x="-1180" y="-685" width="240" height="40" as="geometry">
            <mxRectangle x="-1180" y="-685" width="260" height="160" as="alternateBounds" />
          </mxGeometry>
        </mxCell>
        <mxCell id="UtdcIfN6HxOS2olpDKWv-18" value="FMKSRL_LINE_MODE_RX" style="text;strokeColor=#b85450;fillColor=#f8cecc;align=left;verticalAlign=middle;spacingLeft=4;spacingRight=4;overflow=hidden;points=[[0,0.5],[1,0.5]];portConstraint=eastwest;rotatable=0;whiteSpace=wrap;html=1;gradientColor=#ea6b66;fontColor=#000000;" vertex="1" parent="UtdcIfN6HxOS2olpDKWv-17">
          <mxGeometry y="40" width="260" height="30" as="geometry" />
        </mxCell>
        <mxCell id="UtdcIfN6HxOS2olpDKWv-19" value="FMKSRL_LINE_MODE_TX" style="text;strokeColor=#b85450;fillColor=#f8cecc;align=left;verticalAlign=middle;spacingLeft=4;spacingRight=4;overflow=hidden;points=[[0,0.5],[1,0.5]];portConstraint=eastwest;rotatable=0;whiteSpace=wrap;html=1;gradientColor=#ea6b66;fontColor=#000000;" vertex="1" parent="UtdcIfN6HxOS2olpDKWv-17">
          <mxGeometry y="70" width="260" height="30" as="geometry" />
        </mxCell>
        <mxCell id="UtdcIfN6HxOS2olpDKWv-20" value="FMKSRL_LINE_MODE_TX_RX" style="text;strokeColor=#b85450;fillColor=#f8cecc;align=left;verticalAlign=middle;spacingLeft=4;spacingRight=4;overflow=hidden;points=[[0,0.5],[1,0.5]];portConstraint=eastwest;rotatable=0;whiteSpace=wrap;html=1;gradientColor=#ea6b66;fontColor=#000000;" vertex="1" parent="UtdcIfN6HxOS2olpDKWv-17">
          <mxGeometry y="100" width="260" height="30" as="geometry" />
        </mxCell>
        <mxCell id="UtdcIfN6HxOS2olpDKWv-21" value="FMKSRL_LINE_MODE_NB" style="text;strokeColor=#b85450;fillColor=#f8cecc;align=left;verticalAlign=middle;spacingLeft=4;spacingRight=4;overflow=hidden;points=[[0,0.5],[1,0.5]];portConstraint=eastwest;rotatable=0;whiteSpace=wrap;html=1;gradientColor=#ea6b66;fontColor=#000000;" vertex="1" parent="UtdcIfN6HxOS2olpDKWv-17">
          <mxGeometry y="130" width="260" height="30" as="geometry" />
        </mxCell>
        <mxCell id="UtdcIfN6HxOS2olpDKWv-30" style="edgeStyle=orthogonalEdgeStyle;rounded=0;orthogonalLoop=1;jettySize=auto;html=1;exitX=1;exitY=0.25;exitDx=0;exitDy=0;fontFamily=Helvetica;fontSize=12;fontColor=#000000;entryX=0;entryY=0.5;entryDx=0;entryDy=0;jumpStyle=arc;" edge="1" parent="1" source="UtdcIfN6HxOS2olpDKWv-24" target="UtdcIfN6HxOS2olpDKWv-13">
          <mxGeometry relative="1" as="geometry">
            <mxPoint x="-820" y="-660" as="targetPoint" />
          </mxGeometry>
        </mxCell>
        <mxCell id="UtdcIfN6HxOS2olpDKWv-24" value="Enum : t_eFMKSRL_LineStopBit" style="swimlane;fontStyle=0;childLayout=stackLayout;horizontal=1;startSize=40;horizontalStack=0;resizeParent=1;resizeParentMax=0;resizeLast=0;collapsible=1;marginBottom=0;whiteSpace=wrap;html=1;fillColor=#f8cecc;gradientColor=#ea6b66;strokeColor=#b85450;fontColor=#000000;" vertex="1" collapsed="1" parent="1">
          <mxGeometry x="-1180" y="-240" width="240" height="40" as="geometry">
            <mxRectangle x="-1180" y="-240" width="260" height="190" as="alternateBounds" />
          </mxGeometry>
        </mxCell>
        <mxCell id="UtdcIfN6HxOS2olpDKWv-25" value="FMKSRL_LINE_STOPBIT_0_5" style="text;strokeColor=#b85450;fillColor=#f8cecc;align=left;verticalAlign=middle;spacingLeft=4;spacingRight=4;overflow=hidden;points=[[0,0.5],[1,0.5]];portConstraint=eastwest;rotatable=0;whiteSpace=wrap;html=1;gradientColor=#ea6b66;fontColor=#000000;" vertex="1" parent="UtdcIfN6HxOS2olpDKWv-24">
          <mxGeometry y="40" width="260" height="30" as="geometry" />
        </mxCell>
        <mxCell id="UtdcIfN6HxOS2olpDKWv-26" value="FMKSRL_LINE_STOPBIT_1" style="text;strokeColor=#b85450;fillColor=#f8cecc;align=left;verticalAlign=middle;spacingLeft=4;spacingRight=4;overflow=hidden;points=[[0,0.5],[1,0.5]];portConstraint=eastwest;rotatable=0;whiteSpace=wrap;html=1;gradientColor=#ea6b66;fontColor=#000000;" vertex="1" parent="UtdcIfN6HxOS2olpDKWv-24">
          <mxGeometry y="70" width="260" height="30" as="geometry" />
        </mxCell>
        <mxCell id="UtdcIfN6HxOS2olpDKWv-27" value="FMKSRL_LINE_STOPBIT_1_5" style="text;strokeColor=#b85450;fillColor=#f8cecc;align=left;verticalAlign=middle;spacingLeft=4;spacingRight=4;overflow=hidden;points=[[0,0.5],[1,0.5]];portConstraint=eastwest;rotatable=0;whiteSpace=wrap;html=1;gradientColor=#ea6b66;fontColor=#000000;" vertex="1" parent="UtdcIfN6HxOS2olpDKWv-24">
          <mxGeometry y="100" width="260" height="30" as="geometry" />
        </mxCell>
        <mxCell id="UtdcIfN6HxOS2olpDKWv-28" value="FMKSRL_LINE_STOPBIT_2" style="text;strokeColor=#b85450;fillColor=#f8cecc;align=left;verticalAlign=middle;spacingLeft=4;spacingRight=4;overflow=hidden;points=[[0,0.5],[1,0.5]];portConstraint=eastwest;rotatable=0;whiteSpace=wrap;html=1;gradientColor=#ea6b66;fontColor=#000000;" vertex="1" parent="UtdcIfN6HxOS2olpDKWv-24">
          <mxGeometry y="130" width="260" height="30" as="geometry" />
        </mxCell>
        <mxCell id="UtdcIfN6HxOS2olpDKWv-29" value="FMKSRL_LINE_STOPBIT_NB" style="text;strokeColor=#b85450;fillColor=#f8cecc;align=left;verticalAlign=middle;spacingLeft=4;spacingRight=4;overflow=hidden;points=[[0,0.5],[1,0.5]];portConstraint=eastwest;rotatable=0;whiteSpace=wrap;html=1;gradientColor=#ea6b66;fontColor=#000000;" vertex="1" parent="UtdcIfN6HxOS2olpDKWv-24">
          <mxGeometry y="160" width="260" height="30" as="geometry" />
        </mxCell>
        <mxCell id="UtdcIfN6HxOS2olpDKWv-35" style="edgeStyle=orthogonalEdgeStyle;rounded=0;orthogonalLoop=1;jettySize=auto;html=1;exitX=1;exitY=0.5;exitDx=0;exitDy=0;fontFamily=Helvetica;fontSize=12;fontColor=#000000;" edge="1" parent="1" source="UtdcIfN6HxOS2olpDKWv-10" target="QTdOFbBlQ-zmw4fpiqV5-43">
          <mxGeometry relative="1" as="geometry">
            <Array as="points">
              <mxPoint x="-430" y="-470" />
              <mxPoint x="-430" y="-45" />
            </Array>
          </mxGeometry>
        </mxCell>
        <mxCell id="UtdcIfN6HxOS2olpDKWv-43" style="edgeStyle=orthogonalEdgeStyle;rounded=0;orthogonalLoop=1;jettySize=auto;html=1;exitX=1;exitY=0.25;exitDx=0;exitDy=0;entryX=0;entryY=0.5;entryDx=0;entryDy=0;fontFamily=Helvetica;fontSize=12;fontColor=#000000;" edge="1" parent="1" source="UtdcIfN6HxOS2olpDKWv-36" target="QTdOFbBlQ-zmw4fpiqV5-52">
          <mxGeometry relative="1" as="geometry">
            <Array as="points">
              <mxPoint x="-1320" y="-160" />
              <mxPoint x="-1320" y="10" />
              <mxPoint x="-320" y="10" />
            </Array>
          </mxGeometry>
        </mxCell>
        <mxCell id="UtdcIfN6HxOS2olpDKWv-36" value="Enum : t_eFMKSRL_LineRunMode&lt;div&gt;in ConfigPublic&lt;/div&gt;" style="swimlane;fontStyle=0;childLayout=stackLayout;horizontal=1;startSize=40;horizontalStack=0;resizeParent=1;resizeParentMax=0;resizeLast=0;collapsible=1;marginBottom=0;whiteSpace=wrap;html=1;fillColor=#f8cecc;gradientColor=#ea6b66;strokeColor=#b85450;fontColor=#000000;" vertex="1" parent="1">
          <mxGeometry x="-1600" y="-200" width="230" height="160" as="geometry">
            <mxRectangle x="-1000" y="-400" width="240" height="40" as="alternateBounds" />
          </mxGeometry>
        </mxCell>
        <mxCell id="UtdcIfN6HxOS2olpDKWv-37" value="FMKSRL_LINE_RUNMODE_POLLING" style="text;strokeColor=#b85450;fillColor=#f8cecc;align=left;verticalAlign=middle;spacingLeft=4;spacingRight=4;overflow=hidden;points=[[0,0.5],[1,0.5]];portConstraint=eastwest;rotatable=0;whiteSpace=wrap;html=1;gradientColor=#ea6b66;fontColor=#000000;" vertex="1" parent="UtdcIfN6HxOS2olpDKWv-36">
          <mxGeometry y="40" width="230" height="30" as="geometry" />
        </mxCell>
        <mxCell id="UtdcIfN6HxOS2olpDKWv-38" value="FMKSRL_LINE_RUNMODE_IT" style="text;strokeColor=#b85450;fillColor=#f8cecc;align=left;verticalAlign=middle;spacingLeft=4;spacingRight=4;overflow=hidden;points=[[0,0.5],[1,0.5]];portConstraint=eastwest;rotatable=0;whiteSpace=wrap;html=1;gradientColor=#ea6b66;fontColor=#000000;" vertex="1" parent="UtdcIfN6HxOS2olpDKWv-36">
          <mxGeometry y="70" width="230" height="30" as="geometry" />
        </mxCell>
        <mxCell id="UtdcIfN6HxOS2olpDKWv-39" value="FMKSRL_LINE_RUNMODE_DMA" style="text;strokeColor=#b85450;fillColor=#f8cecc;align=left;verticalAlign=middle;spacingLeft=4;spacingRight=4;overflow=hidden;points=[[0,0.5],[1,0.5]];portConstraint=eastwest;rotatable=0;whiteSpace=wrap;html=1;gradientColor=#ea6b66;fontColor=#000000;" vertex="1" parent="UtdcIfN6HxOS2olpDKWv-36">
          <mxGeometry y="100" width="230" height="30" as="geometry" />
        </mxCell>
        <mxCell id="UtdcIfN6HxOS2olpDKWv-42" value="FMKSRL_LINE_RUNMODE_NB" style="text;strokeColor=#b85450;fillColor=#f8cecc;align=left;verticalAlign=middle;spacingLeft=4;spacingRight=4;overflow=hidden;points=[[0,0.5],[1,0.5]];portConstraint=eastwest;rotatable=0;whiteSpace=wrap;html=1;gradientColor=#ea6b66;fontColor=#000000;" vertex="1" parent="UtdcIfN6HxOS2olpDKWv-36">
          <mxGeometry y="130" width="230" height="30" as="geometry" />
        </mxCell>
        <mxCell id="UtdcIfN6HxOS2olpDKWv-45" value="Enum : t_eFMKSRL_HwFlowCtrl" style="swimlane;fontStyle=0;childLayout=stackLayout;horizontal=1;startSize=40;horizontalStack=0;resizeParent=1;resizeParentMax=0;resizeLast=0;collapsible=1;marginBottom=0;whiteSpace=wrap;html=1;fillColor=#f8cecc;gradientColor=#ea6b66;strokeColor=#b85450;fontColor=#000000;" vertex="1" parent="1">
          <mxGeometry x="-1180" y="80" width="260" height="190" as="geometry">
            <mxRectangle x="-160" y="-400" width="240" height="40" as="alternateBounds" />
          </mxGeometry>
        </mxCell>
        <mxCell id="UtdcIfN6HxOS2olpDKWv-46" value="FMKSRL_LINE_HW_FLOW_CTRL_NONE" style="text;strokeColor=#b85450;fillColor=#f8cecc;align=left;verticalAlign=middle;spacingLeft=4;spacingRight=4;overflow=hidden;points=[[0,0.5],[1,0.5]];portConstraint=eastwest;rotatable=0;whiteSpace=wrap;html=1;gradientColor=#ea6b66;fontColor=#000000;" vertex="1" parent="UtdcIfN6HxOS2olpDKWv-45">
          <mxGeometry y="40" width="260" height="30" as="geometry" />
        </mxCell>
        <mxCell id="UtdcIfN6HxOS2olpDKWv-47" value="FMKSRL_LINE_HW_FLOW_CTRL_RTS" style="text;strokeColor=#b85450;fillColor=#f8cecc;align=left;verticalAlign=middle;spacingLeft=4;spacingRight=4;overflow=hidden;points=[[0,0.5],[1,0.5]];portConstraint=eastwest;rotatable=0;whiteSpace=wrap;html=1;gradientColor=#ea6b66;fontColor=#000000;" vertex="1" parent="UtdcIfN6HxOS2olpDKWv-45">
          <mxGeometry y="70" width="260" height="30" as="geometry" />
        </mxCell>
        <mxCell id="UtdcIfN6HxOS2olpDKWv-48" value="FMKSRL_LINE_HW_FLOW_CTRL_CTS" style="text;strokeColor=#b85450;fillColor=#f8cecc;align=left;verticalAlign=middle;spacingLeft=4;spacingRight=4;overflow=hidden;points=[[0,0.5],[1,0.5]];portConstraint=eastwest;rotatable=0;whiteSpace=wrap;html=1;gradientColor=#ea6b66;fontColor=#000000;" vertex="1" parent="UtdcIfN6HxOS2olpDKWv-45">
          <mxGeometry y="100" width="260" height="30" as="geometry" />
        </mxCell>
        <mxCell id="UtdcIfN6HxOS2olpDKWv-49" value="FMKSRL_LINE_HW_FLOW_CTRL_RTS_CTS" style="text;strokeColor=#b85450;fillColor=#f8cecc;align=left;verticalAlign=middle;spacingLeft=4;spacingRight=4;overflow=hidden;points=[[0,0.5],[1,0.5]];portConstraint=eastwest;rotatable=0;whiteSpace=wrap;html=1;gradientColor=#ea6b66;fontColor=#000000;" vertex="1" parent="UtdcIfN6HxOS2olpDKWv-45">
          <mxGeometry y="130" width="260" height="30" as="geometry" />
        </mxCell>
        <mxCell id="UtdcIfN6HxOS2olpDKWv-50" value="FMKSRL_LINE_HW_FLOW_CTRL_NB" style="text;strokeColor=#b85450;fillColor=#f8cecc;align=left;verticalAlign=middle;spacingLeft=4;spacingRight=4;overflow=hidden;points=[[0,0.5],[1,0.5]];portConstraint=eastwest;rotatable=0;whiteSpace=wrap;html=1;gradientColor=#ea6b66;fontColor=#000000;" vertex="1" parent="UtdcIfN6HxOS2olpDKWv-45">
          <mxGeometry y="160" width="260" height="30" as="geometry" />
        </mxCell>
        <mxCell id="UtdcIfN6HxOS2olpDKWv-54" value="Struct: t_sFMKSRL_AdvHwProtocolCfg&lt;div&gt;in .h&lt;/div&gt;" style="swimlane;fontStyle=0;childLayout=stackLayout;horizontal=1;startSize=40;horizontalStack=0;resizeParent=1;resizeParentMax=0;resizeLast=0;collapsible=1;marginBottom=0;whiteSpace=wrap;html=1;fillColor=#d5e8d4;gradientColor=#97d077;strokeColor=#82b366;fontColor=#000000;" vertex="1" parent="1">
          <mxGeometry x="-720" y="-1270" width="280" height="70" as="geometry">
            <mxRectangle x="-560" y="-640" width="240" height="40" as="alternateBounds" />
          </mxGeometry>
        </mxCell>
        <mxCell id="UtdcIfN6HxOS2olpDKWv-59" value="" style="text;strokeColor=#82b366;fillColor=#d5e8d4;align=left;verticalAlign=middle;spacingLeft=4;spacingRight=4;overflow=hidden;points=[[0,0.5],[1,0.5]];portConstraint=eastwest;rotatable=0;whiteSpace=wrap;html=1;gradientColor=#97d077;fontColor=#000000;" vertex="1" parent="UtdcIfN6HxOS2olpDKWv-54">
          <mxGeometry y="40" width="280" height="30" as="geometry" />
        </mxCell>
        <mxCell id="DUiJk3lmP2IWH2LfHyKE-8" style="edgeStyle=orthogonalEdgeStyle;rounded=0;orthogonalLoop=1;jettySize=auto;html=1;exitX=1;exitY=0.25;exitDx=0;exitDy=0;entryX=0;entryY=0.5;entryDx=0;entryDy=0;fontFamily=Helvetica;fontSize=12;fontColor=#000000;jumpStyle=arc;" edge="1" parent="1" source="DUiJk3lmP2IWH2LfHyKE-2" target="DUiJk3lmP2IWH2LfHyKE-1">
          <mxGeometry relative="1" as="geometry" />
        </mxCell>
        <mxCell id="xQh-mG5bKiS9Qte0-cDq-2" style="edgeStyle=orthogonalEdgeStyle;rounded=0;orthogonalLoop=1;jettySize=auto;html=1;exitX=1;exitY=0.25;exitDx=0;exitDy=0;entryX=0;entryY=0.5;entryDx=0;entryDy=0;fontFamily=Helvetica;fontSize=12;fontColor=#000000;jumpStyle=arc;" edge="1" parent="1" source="DUiJk3lmP2IWH2LfHyKE-2" target="xQh-mG5bKiS9Qte0-cDq-1">
          <mxGeometry relative="1" as="geometry">
            <Array as="points">
              <mxPoint x="-920" y="543" />
              <mxPoint x="-920" y="470" />
              <mxPoint x="-720" y="470" />
              <mxPoint x="-720" y="75" />
            </Array>
          </mxGeometry>
        </mxCell>
        <mxCell id="DUiJk3lmP2IWH2LfHyKE-2" value="Enum : t_eFMKSRL_FifoOpeMode" style="swimlane;fontStyle=0;childLayout=stackLayout;horizontal=1;startSize=40;horizontalStack=0;resizeParent=1;resizeParentMax=0;resizeLast=0;collapsible=1;marginBottom=0;whiteSpace=wrap;html=1;fillColor=#f8cecc;gradientColor=#ea6b66;strokeColor=#b85450;fontColor=#000000;" vertex="1" parent="1">
          <mxGeometry x="-1600" y="510" width="240" height="130" as="geometry">
            <mxRectangle x="-720" y="-400" width="240" height="40" as="alternateBounds" />
          </mxGeometry>
        </mxCell>
        <mxCell id="DUiJk3lmP2IWH2LfHyKE-3" value="FMKSRL_FIFO_OPE_ACTIVATE" style="text;strokeColor=#b85450;fillColor=#f8cecc;align=left;verticalAlign=middle;spacingLeft=4;spacingRight=4;overflow=hidden;points=[[0,0.5],[1,0.5]];portConstraint=eastwest;rotatable=0;whiteSpace=wrap;html=1;gradientColor=#ea6b66;fontColor=#000000;" vertex="1" parent="DUiJk3lmP2IWH2LfHyKE-2">
          <mxGeometry y="40" width="240" height="30" as="geometry" />
        </mxCell>
        <mxCell id="DUiJk3lmP2IWH2LfHyKE-4" value="FMKSRL_FIFO_OPE_DISACTIVATE" style="text;strokeColor=#b85450;fillColor=#f8cecc;align=left;verticalAlign=middle;spacingLeft=4;spacingRight=4;overflow=hidden;points=[[0,0.5],[1,0.5]];portConstraint=eastwest;rotatable=0;whiteSpace=wrap;html=1;gradientColor=#ea6b66;fontColor=#000000;" vertex="1" parent="DUiJk3lmP2IWH2LfHyKE-2">
          <mxGeometry y="70" width="240" height="30" as="geometry" />
        </mxCell>
        <mxCell id="DUiJk3lmP2IWH2LfHyKE-5" value="FMKSRL_FIFO_OPE_NB" style="text;strokeColor=#b85450;fillColor=#f8cecc;align=left;verticalAlign=middle;spacingLeft=4;spacingRight=4;overflow=hidden;points=[[0,0.5],[1,0.5]];portConstraint=eastwest;rotatable=0;whiteSpace=wrap;html=1;gradientColor=#ea6b66;fontColor=#000000;" vertex="1" parent="DUiJk3lmP2IWH2LfHyKE-2">
          <mxGeometry y="100" width="240" height="30" as="geometry" />
        </mxCell>
        <mxCell id="kOp5GAci-4tQ5npFLlXT-6" style="edgeStyle=orthogonalEdgeStyle;rounded=0;orthogonalLoop=1;jettySize=auto;html=1;exitX=0.5;exitY=1;exitDx=0;exitDy=0;entryX=0;entryY=0.5;entryDx=0;entryDy=0;fontFamily=Helvetica;fontSize=12;fontColor=#000000;jumpStyle=arc;" edge="1" parent="1" source="kOp5GAci-4tQ5npFLlXT-1" target="kOp5GAci-4tQ5npFLlXT-5">
          <mxGeometry relative="1" as="geometry" />
        </mxCell>
        <mxCell id="kOp5GAci-4tQ5npFLlXT-1" value="Enum : t_eFMKSRL_LineWordLenght&lt;div&gt;in ConfigPrivate&lt;/div&gt;" style="swimlane;fontStyle=0;childLayout=stackLayout;horizontal=1;startSize=40;horizontalStack=0;resizeParent=1;resizeParentMax=0;resizeLast=0;collapsible=1;marginBottom=0;whiteSpace=wrap;html=1;fillColor=#f8cecc;gradientColor=#ea6b66;strokeColor=#b85450;fontColor=#000000;" vertex="1" parent="1">
          <mxGeometry x="-1316.5" y="-865" width="203" height="130" as="geometry">
            <mxRectangle x="-1000" y="-400" width="240" height="40" as="alternateBounds" />
          </mxGeometry>
        </mxCell>
        <mxCell id="kOp5GAci-4tQ5npFLlXT-2" value="FMKSRL_LINE_WORDLEN_8B" style="text;strokeColor=#b85450;fillColor=#f8cecc;align=left;verticalAlign=middle;spacingLeft=4;spacingRight=4;overflow=hidden;points=[[0,0.5],[1,0.5]];portConstraint=eastwest;rotatable=0;whiteSpace=wrap;html=1;gradientColor=#ea6b66;fontColor=#000000;" vertex="1" parent="kOp5GAci-4tQ5npFLlXT-1">
          <mxGeometry y="40" width="203" height="30" as="geometry" />
        </mxCell>
        <mxCell id="kOp5GAci-4tQ5npFLlXT-3" value="FMKSRL_LINE_WORDLEN_9B" style="text;strokeColor=#b85450;fillColor=#f8cecc;align=left;verticalAlign=middle;spacingLeft=4;spacingRight=4;overflow=hidden;points=[[0,0.5],[1,0.5]];portConstraint=eastwest;rotatable=0;whiteSpace=wrap;html=1;gradientColor=#ea6b66;fontColor=#000000;" vertex="1" parent="kOp5GAci-4tQ5npFLlXT-1">
          <mxGeometry y="70" width="203" height="30" as="geometry" />
        </mxCell>
        <mxCell id="kOp5GAci-4tQ5npFLlXT-4" value="FMKSRL_LINE_WORDLEN_NB" style="text;strokeColor=#b85450;fillColor=#f8cecc;align=left;verticalAlign=middle;spacingLeft=4;spacingRight=4;overflow=hidden;points=[[0,0.5],[1,0.5]];portConstraint=eastwest;rotatable=0;whiteSpace=wrap;html=1;gradientColor=#ea6b66;fontColor=#000000;" vertex="1" parent="kOp5GAci-4tQ5npFLlXT-1">
          <mxGeometry y="100" width="203" height="30" as="geometry" />
        </mxCell>
        <mxCell id="ZFEEeemjDuWysc22bOcN-14" style="edgeStyle=orthogonalEdgeStyle;rounded=0;orthogonalLoop=1;jettySize=auto;html=1;exitX=0.5;exitY=1;exitDx=0;exitDy=0;fontFamily=Helvetica;fontSize=12;fontColor=#000000;" edge="1" parent="1" source="AI8ar0mX3AMzn60uEfUP-1" target="ZFEEeemjDuWysc22bOcN-11">
          <mxGeometry relative="1" as="geometry" />
        </mxCell>
        <mxCell id="AI8ar0mX3AMzn60uEfUP-1" value="Struct: t_sFMKSRL_UsartCfgSpec&lt;div&gt;in .h&lt;/div&gt;" style="swimlane;fontStyle=0;childLayout=stackLayout;horizontal=1;startSize=40;horizontalStack=0;resizeParent=1;resizeParentMax=0;resizeLast=0;collapsible=1;marginBottom=0;whiteSpace=wrap;html=1;fillColor=#dae8fc;gradientColor=#7ea6e0;strokeColor=#6c8ebf;fontColor=#000000;" vertex="1" parent="1">
          <mxGeometry x="-720" y="-1110" width="280" height="160" as="geometry">
            <mxRectangle x="-560" y="-640" width="240" height="40" as="alternateBounds" />
          </mxGeometry>
        </mxCell>
        <mxCell id="ZFEEeemjDuWysc22bOcN-5" value="&lt;span style=&quot;text-align: center;&quot;&gt;t_eFMKSRL_UsartTypeCfg&lt;/span&gt;" style="text;strokeColor=#6c8ebf;fillColor=#dae8fc;align=left;verticalAlign=middle;spacingLeft=4;spacingRight=4;overflow=hidden;points=[[0,0.5],[1,0.5]];portConstraint=eastwest;rotatable=0;whiteSpace=wrap;html=1;gradientColor=#7ea6e0;fontColor=#000000;" vertex="1" parent="AI8ar0mX3AMzn60uEfUP-1">
          <mxGeometry y="40" width="280" height="30" as="geometry" />
        </mxCell>
        <mxCell id="AI8ar0mX3AMzn60uEfUP-2" value="&lt;span style=&quot;text-align: center;&quot;&gt;t_eFMKSRL_UsartClockPhase&lt;/span&gt;" style="text;strokeColor=#6c8ebf;fillColor=#dae8fc;align=left;verticalAlign=middle;spacingLeft=4;spacingRight=4;overflow=hidden;points=[[0,0.5],[1,0.5]];portConstraint=eastwest;rotatable=0;whiteSpace=wrap;html=1;gradientColor=#7ea6e0;fontColor=#000000;" vertex="1" parent="AI8ar0mX3AMzn60uEfUP-1">
          <mxGeometry y="70" width="280" height="30" as="geometry" />
        </mxCell>
        <mxCell id="AI8ar0mX3AMzn60uEfUP-3" value="&lt;span style=&quot;text-align: center;&quot;&gt;t_eFMKSRL_UsartLastBit&lt;/span&gt;" style="text;strokeColor=#6c8ebf;fillColor=#dae8fc;align=left;verticalAlign=middle;spacingLeft=4;spacingRight=4;overflow=hidden;points=[[0,0.5],[1,0.5]];portConstraint=eastwest;rotatable=0;whiteSpace=wrap;html=1;gradientColor=#7ea6e0;fontColor=#000000;" vertex="1" parent="AI8ar0mX3AMzn60uEfUP-1">
          <mxGeometry y="100" width="280" height="30" as="geometry" />
        </mxCell>
        <mxCell id="AI8ar0mX3AMzn60uEfUP-4" value="&lt;span style=&quot;text-align: center;&quot;&gt;t_eFMKSRL_UsartClkPolarity&lt;/span&gt;" style="text;strokeColor=#6c8ebf;fillColor=#dae8fc;align=left;verticalAlign=middle;spacingLeft=4;spacingRight=4;overflow=hidden;points=[[0,0.5],[1,0.5]];portConstraint=eastwest;rotatable=0;whiteSpace=wrap;html=1;gradientColor=#7ea6e0;fontColor=#000000;" vertex="1" parent="AI8ar0mX3AMzn60uEfUP-1">
          <mxGeometry y="130" width="280" height="30" as="geometry" />
        </mxCell>
        <mxCell id="ZFEEeemjDuWysc22bOcN-15" style="edgeStyle=orthogonalEdgeStyle;rounded=0;orthogonalLoop=1;jettySize=auto;html=1;exitX=0.5;exitY=1;exitDx=0;exitDy=0;fontFamily=Helvetica;fontSize=12;fontColor=#000000;" edge="1" parent="1" source="AI8ar0mX3AMzn60uEfUP-8" target="ZFEEeemjDuWysc22bOcN-11">
          <mxGeometry relative="1" as="geometry">
            <Array as="points">
              <mxPoint x="-140" y="-870" />
              <mxPoint x="-350" y="-870" />
            </Array>
          </mxGeometry>
        </mxCell>
        <mxCell id="AI8ar0mX3AMzn60uEfUP-8" value="Struct: t_sFMKSRL_UartCfgSpec&lt;div&gt;in .h&lt;/div&gt;" style="swimlane;fontStyle=0;childLayout=stackLayout;horizontal=1;startSize=40;horizontalStack=0;resizeParent=1;resizeParentMax=0;resizeLast=0;collapsible=1;marginBottom=0;whiteSpace=wrap;html=1;fillColor=#dae8fc;gradientColor=#7ea6e0;strokeColor=#6c8ebf;fontColor=#000000;" vertex="1" parent="1">
          <mxGeometry x="-280" y="-1110" width="280" height="140" as="geometry">
            <mxRectangle x="-560" y="-640" width="240" height="40" as="alternateBounds" />
          </mxGeometry>
        </mxCell>
        <mxCell id="AI8ar0mX3AMzn60uEfUP-12" value="&lt;span style=&quot;text-align: center;&quot;&gt;t_sFMKSRL_AdvHwProtocolCfg&lt;/span&gt;" style="text;strokeColor=#6c8ebf;fillColor=#dae8fc;align=left;verticalAlign=middle;spacingLeft=4;spacingRight=4;overflow=hidden;points=[[0,0.5],[1,0.5]];portConstraint=eastwest;rotatable=0;whiteSpace=wrap;html=1;gradientColor=#7ea6e0;fontColor=#000000;" vertex="1" parent="AI8ar0mX3AMzn60uEfUP-8">
          <mxGeometry y="40" width="280" height="30" as="geometry" />
        </mxCell>
        <mxCell id="AI8ar0mX3AMzn60uEfUP-14" value="&lt;span style=&quot;text-align: center;&quot;&gt;t_eFMKSRL_HwFlowCtrl&lt;/span&gt;" style="text;strokeColor=#82b366;fillColor=#d5e8d4;align=left;verticalAlign=middle;spacingLeft=4;spacingRight=4;overflow=hidden;points=[[0,0.5],[1,0.5]];portConstraint=eastwest;rotatable=0;whiteSpace=wrap;html=1;gradientColor=#97d077;fontColor=#000000;" vertex="1" parent="AI8ar0mX3AMzn60uEfUP-8">
          <mxGeometry y="70" width="280" height="40" as="geometry" />
        </mxCell>
        <mxCell id="AI8ar0mX3AMzn60uEfUP-13" value="&lt;span style=&quot;text-align: center;&quot;&gt;t_eFMKSRL_UartTypeCfg&lt;/span&gt;" style="text;strokeColor=#6c8ebf;fillColor=#dae8fc;align=left;verticalAlign=middle;spacingLeft=4;spacingRight=4;overflow=hidden;points=[[0,0.5],[1,0.5]];portConstraint=eastwest;rotatable=0;whiteSpace=wrap;html=1;gradientColor=#7ea6e0;fontColor=#000000;" vertex="1" parent="AI8ar0mX3AMzn60uEfUP-8">
          <mxGeometry y="110" width="280" height="30" as="geometry" />
        </mxCell>
        <mxCell id="ZFEEeemjDuWysc22bOcN-9" style="edgeStyle=orthogonalEdgeStyle;rounded=0;orthogonalLoop=1;jettySize=auto;html=1;exitX=1;exitY=0.25;exitDx=0;exitDy=0;entryX=0;entryY=0.5;entryDx=0;entryDy=0;fontFamily=Helvetica;fontSize=12;fontColor=#000000;" edge="1" parent="1" source="AI8ar0mX3AMzn60uEfUP-15" target="AI8ar0mX3AMzn60uEfUP-4">
          <mxGeometry relative="1" as="geometry">
            <Array as="points">
              <mxPoint x="-1280" y="-1177" />
              <mxPoint x="-1280" y="-965" />
            </Array>
          </mxGeometry>
        </mxCell>
        <mxCell id="AI8ar0mX3AMzn60uEfUP-15" value="Enum : t_eFMKSRL_UsartClkPolarity&lt;div&gt;in ConfigPrivate&lt;/div&gt;" style="swimlane;fontStyle=0;childLayout=stackLayout;horizontal=1;startSize=40;horizontalStack=0;resizeParent=1;resizeParentMax=0;resizeLast=0;collapsible=1;marginBottom=0;whiteSpace=wrap;html=1;fillColor=#f8cecc;gradientColor=#ea6b66;strokeColor=#b85450;fontColor=#000000;" vertex="1" parent="1">
          <mxGeometry x="-1600" y="-1210" width="240" height="130" as="geometry">
            <mxRectangle x="-1000" y="-400" width="240" height="40" as="alternateBounds" />
          </mxGeometry>
        </mxCell>
        <mxCell id="AI8ar0mX3AMzn60uEfUP-16" value="FMKSRL_USART_CLK_POLARITY_HIGH" style="text;strokeColor=#b85450;fillColor=#f8cecc;align=left;verticalAlign=middle;spacingLeft=4;spacingRight=4;overflow=hidden;points=[[0,0.5],[1,0.5]];portConstraint=eastwest;rotatable=0;whiteSpace=wrap;html=1;gradientColor=#ea6b66;fontColor=#000000;" vertex="1" parent="AI8ar0mX3AMzn60uEfUP-15">
          <mxGeometry y="40" width="240" height="30" as="geometry" />
        </mxCell>
        <mxCell id="AI8ar0mX3AMzn60uEfUP-17" value="FMKSRL_USART_CLK_POLARITY_LOW" style="text;strokeColor=#b85450;fillColor=#f8cecc;align=left;verticalAlign=middle;spacingLeft=4;spacingRight=4;overflow=hidden;points=[[0,0.5],[1,0.5]];portConstraint=eastwest;rotatable=0;whiteSpace=wrap;html=1;gradientColor=#ea6b66;fontColor=#000000;" vertex="1" parent="AI8ar0mX3AMzn60uEfUP-15">
          <mxGeometry y="70" width="240" height="30" as="geometry" />
        </mxCell>
        <mxCell id="AI8ar0mX3AMzn60uEfUP-19" value="FMKSRL_USART_CLK_POLARITY_NB" style="text;strokeColor=#b85450;fillColor=#f8cecc;align=left;verticalAlign=middle;spacingLeft=4;spacingRight=4;overflow=hidden;points=[[0,0.5],[1,0.5]];portConstraint=eastwest;rotatable=0;whiteSpace=wrap;html=1;gradientColor=#ea6b66;fontColor=#000000;" vertex="1" parent="AI8ar0mX3AMzn60uEfUP-15">
          <mxGeometry y="100" width="240" height="30" as="geometry" />
        </mxCell>
        <mxCell id="ZFEEeemjDuWysc22bOcN-8" style="edgeStyle=orthogonalEdgeStyle;rounded=0;orthogonalLoop=1;jettySize=auto;html=1;exitX=1;exitY=0.25;exitDx=0;exitDy=0;fontFamily=Helvetica;fontSize=12;fontColor=#000000;" edge="1" parent="1" source="AI8ar0mX3AMzn60uEfUP-20" target="AI8ar0mX3AMzn60uEfUP-3">
          <mxGeometry relative="1" as="geometry">
            <Array as="points">
              <mxPoint x="-1240" y="-1337" />
              <mxPoint x="-1240" y="-995" />
            </Array>
          </mxGeometry>
        </mxCell>
        <mxCell id="AI8ar0mX3AMzn60uEfUP-20" value="Enum : t_eFMKSRL_UsartLastBit&lt;div&gt;in ConfigPrivate&lt;/div&gt;" style="swimlane;fontStyle=0;childLayout=stackLayout;horizontal=1;startSize=40;horizontalStack=0;resizeParent=1;resizeParentMax=0;resizeLast=0;collapsible=1;marginBottom=0;whiteSpace=wrap;html=1;fillColor=#f8cecc;gradientColor=#ea6b66;strokeColor=#b85450;fontColor=#000000;" vertex="1" parent="1">
          <mxGeometry x="-1600" y="-1370" width="240" height="130" as="geometry">
            <mxRectangle x="-1000" y="-400" width="240" height="40" as="alternateBounds" />
          </mxGeometry>
        </mxCell>
        <mxCell id="AI8ar0mX3AMzn60uEfUP-21" value="FMKSRL_USART_LAST_BIT_1EDGE" style="text;strokeColor=#b85450;fillColor=#f8cecc;align=left;verticalAlign=middle;spacingLeft=4;spacingRight=4;overflow=hidden;points=[[0,0.5],[1,0.5]];portConstraint=eastwest;rotatable=0;whiteSpace=wrap;html=1;gradientColor=#ea6b66;fontColor=#000000;" vertex="1" parent="AI8ar0mX3AMzn60uEfUP-20">
          <mxGeometry y="40" width="240" height="30" as="geometry" />
        </mxCell>
        <mxCell id="AI8ar0mX3AMzn60uEfUP-22" value="FMKSRL_USART_LAST_BIT_2EDGE" style="text;strokeColor=#b85450;fillColor=#f8cecc;align=left;verticalAlign=middle;spacingLeft=4;spacingRight=4;overflow=hidden;points=[[0,0.5],[1,0.5]];portConstraint=eastwest;rotatable=0;whiteSpace=wrap;html=1;gradientColor=#ea6b66;fontColor=#000000;" vertex="1" parent="AI8ar0mX3AMzn60uEfUP-20">
          <mxGeometry y="70" width="240" height="30" as="geometry" />
        </mxCell>
        <mxCell id="AI8ar0mX3AMzn60uEfUP-23" value="FMKSRL_USART_LAST_BIT_NB" style="text;strokeColor=#b85450;fillColor=#f8cecc;align=left;verticalAlign=middle;spacingLeft=4;spacingRight=4;overflow=hidden;points=[[0,0.5],[1,0.5]];portConstraint=eastwest;rotatable=0;whiteSpace=wrap;html=1;gradientColor=#ea6b66;fontColor=#000000;" vertex="1" parent="AI8ar0mX3AMzn60uEfUP-20">
          <mxGeometry y="100" width="240" height="30" as="geometry" />
        </mxCell>
        <mxCell id="ZFEEeemjDuWysc22bOcN-7" style="edgeStyle=orthogonalEdgeStyle;rounded=0;orthogonalLoop=1;jettySize=auto;html=1;exitX=1;exitY=0.25;exitDx=0;exitDy=0;entryX=0;entryY=0.5;entryDx=0;entryDy=0;fontFamily=Helvetica;fontSize=12;fontColor=#000000;" edge="1" parent="1" source="AI8ar0mX3AMzn60uEfUP-24" target="AI8ar0mX3AMzn60uEfUP-2">
          <mxGeometry relative="1" as="geometry">
            <Array as="points">
              <mxPoint x="-1200" y="-1497" />
              <mxPoint x="-1200" y="-1025" />
            </Array>
          </mxGeometry>
        </mxCell>
        <mxCell id="AI8ar0mX3AMzn60uEfUP-24" value="Enum : t_eFMKSRL_UsartClockPhase&lt;div&gt;in ConfigPrivate&lt;/div&gt;" style="swimlane;fontStyle=0;childLayout=stackLayout;horizontal=1;startSize=40;horizontalStack=0;resizeParent=1;resizeParentMax=0;resizeLast=0;collapsible=1;marginBottom=0;whiteSpace=wrap;html=1;fillColor=#f8cecc;gradientColor=#ea6b66;strokeColor=#b85450;fontColor=#000000;" vertex="1" parent="1">
          <mxGeometry x="-1600" y="-1530" width="240" height="130" as="geometry">
            <mxRectangle x="-1000" y="-400" width="240" height="40" as="alternateBounds" />
          </mxGeometry>
        </mxCell>
        <mxCell id="AI8ar0mX3AMzn60uEfUP-25" value="FMKSRL_USART_PHASE_1EDGE" style="text;strokeColor=#b85450;fillColor=#f8cecc;align=left;verticalAlign=middle;spacingLeft=4;spacingRight=4;overflow=hidden;points=[[0,0.5],[1,0.5]];portConstraint=eastwest;rotatable=0;whiteSpace=wrap;html=1;gradientColor=#ea6b66;fontColor=#000000;" vertex="1" parent="AI8ar0mX3AMzn60uEfUP-24">
          <mxGeometry y="40" width="240" height="30" as="geometry" />
        </mxCell>
        <mxCell id="AI8ar0mX3AMzn60uEfUP-26" value="FMKSRL_USART_PHASE_2EDGE" style="text;strokeColor=#b85450;fillColor=#f8cecc;align=left;verticalAlign=middle;spacingLeft=4;spacingRight=4;overflow=hidden;points=[[0,0.5],[1,0.5]];portConstraint=eastwest;rotatable=0;whiteSpace=wrap;html=1;gradientColor=#ea6b66;fontColor=#000000;" vertex="1" parent="AI8ar0mX3AMzn60uEfUP-24">
          <mxGeometry y="70" width="240" height="30" as="geometry" />
        </mxCell>
        <mxCell id="AI8ar0mX3AMzn60uEfUP-27" value="FMKSRL_USART_PHASE_NB" style="text;strokeColor=#b85450;fillColor=#f8cecc;align=left;verticalAlign=middle;spacingLeft=4;spacingRight=4;overflow=hidden;points=[[0,0.5],[1,0.5]];portConstraint=eastwest;rotatable=0;whiteSpace=wrap;html=1;gradientColor=#ea6b66;fontColor=#000000;" vertex="1" parent="AI8ar0mX3AMzn60uEfUP-24">
          <mxGeometry y="100" width="240" height="30" as="geometry" />
        </mxCell>
        <mxCell id="AI8ar0mX3AMzn60uEfUP-29" style="edgeStyle=orthogonalEdgeStyle;rounded=0;orthogonalLoop=1;jettySize=auto;html=1;exitX=1;exitY=0.25;exitDx=0;exitDy=0;entryX=0;entryY=0.5;entryDx=0;entryDy=0;fontFamily=Helvetica;fontSize=12;fontColor=#000000;" edge="1" parent="1" source="UtdcIfN6HxOS2olpDKWv-54" target="AI8ar0mX3AMzn60uEfUP-12">
          <mxGeometry relative="1" as="geometry" />
        </mxCell>
        <mxCell id="ZFEEeemjDuWysc22bOcN-6" style="edgeStyle=orthogonalEdgeStyle;rounded=0;orthogonalLoop=1;jettySize=auto;html=1;exitX=1;exitY=0.25;exitDx=0;exitDy=0;entryX=0;entryY=0.5;entryDx=0;entryDy=0;fontFamily=Helvetica;fontSize=12;fontColor=#000000;jumpStyle=arc;" edge="1" parent="1" source="ZFEEeemjDuWysc22bOcN-1" target="ZFEEeemjDuWysc22bOcN-5">
          <mxGeometry relative="1" as="geometry">
            <Array as="points">
              <mxPoint x="-830" y="-1185" />
              <mxPoint x="-830" y="-1055" />
            </Array>
          </mxGeometry>
        </mxCell>
        <mxCell id="ZFEEeemjDuWysc22bOcN-1" value="Enum : t_eFMKSRL_UsartTypeCfg" style="swimlane;fontStyle=0;childLayout=stackLayout;horizontal=1;startSize=40;horizontalStack=0;resizeParent=1;resizeParentMax=0;resizeLast=0;collapsible=1;marginBottom=0;whiteSpace=wrap;html=1;fillColor=#f8cecc;gradientColor=#ea6b66;strokeColor=#b85450;fontColor=#000000;" vertex="1" parent="1">
          <mxGeometry x="-1160" y="-1210" width="240" height="100" as="geometry">
            <mxRectangle x="-720" y="-400" width="240" height="40" as="alternateBounds" />
          </mxGeometry>
        </mxCell>
        <mxCell id="QTdOFbBlQ-zmw4fpiqV5-22" value="FMKSRL_USART_TYPCFG_USART" style="text;strokeColor=#b85450;fillColor=#f8cecc;align=left;verticalAlign=middle;spacingLeft=4;spacingRight=4;overflow=hidden;points=[[0,0.5],[1,0.5]];portConstraint=eastwest;rotatable=0;whiteSpace=wrap;html=1;gradientColor=#ea6b66;fontColor=#000000;" vertex="1" parent="ZFEEeemjDuWysc22bOcN-1">
          <mxGeometry y="40" width="240" height="30" as="geometry" />
        </mxCell>
        <mxCell id="ZFEEeemjDuWysc22bOcN-4" value="FMKSRL_SERIAL_TYPE_NB" style="text;strokeColor=#b85450;fillColor=#f8cecc;align=left;verticalAlign=middle;spacingLeft=4;spacingRight=4;overflow=hidden;points=[[0,0.5],[1,0.5]];portConstraint=eastwest;rotatable=0;whiteSpace=wrap;html=1;gradientColor=#ea6b66;fontColor=#000000;" vertex="1" parent="ZFEEeemjDuWysc22bOcN-1">
          <mxGeometry y="70" width="240" height="30" as="geometry" />
        </mxCell>
        <mxCell id="ZFEEeemjDuWysc22bOcN-17" style="edgeStyle=orthogonalEdgeStyle;rounded=0;orthogonalLoop=1;jettySize=auto;html=1;exitX=0.5;exitY=1;exitDx=0;exitDy=0;entryX=0;entryY=0.5;entryDx=0;entryDy=0;fontFamily=Helvetica;fontSize=12;fontColor=#000000;jumpStyle=arc;" edge="1" parent="1" source="ZFEEeemjDuWysc22bOcN-11" target="ZFEEeemjDuWysc22bOcN-16">
          <mxGeometry relative="1" as="geometry" />
        </mxCell>
        <mxCell id="ZFEEeemjDuWysc22bOcN-11" value="Union: t_uFMKSRL_SerialCfgSpec" style="swimlane;fontStyle=0;childLayout=stackLayout;horizontal=1;startSize=40;horizontalStack=0;resizeParent=1;resizeParentMax=0;resizeLast=0;collapsible=1;marginBottom=0;whiteSpace=wrap;html=1;fillColor=#fff2cc;gradientColor=#ffd966;strokeColor=#d6b656;fontColor=#000000;" vertex="1" parent="1">
          <mxGeometry x="-480" y="-785" width="260" height="100" as="geometry">
            <mxRectangle x="-470" y="230" width="240" height="40" as="alternateBounds" />
          </mxGeometry>
        </mxCell>
        <mxCell id="ZFEEeemjDuWysc22bOcN-12" value="uartCfg_s" style="text;strokeColor=#d6b656;fillColor=#fff2cc;align=left;verticalAlign=middle;spacingLeft=4;spacingRight=4;overflow=hidden;points=[[0,0.5],[1,0.5]];portConstraint=eastwest;rotatable=0;whiteSpace=wrap;html=1;gradientColor=#ffd966;fontColor=#000000;" vertex="1" parent="ZFEEeemjDuWysc22bOcN-11">
          <mxGeometry y="40" width="260" height="30" as="geometry" />
        </mxCell>
        <mxCell id="ZFEEeemjDuWysc22bOcN-13" value="usartCfg_s" style="text;strokeColor=#d6b656;fillColor=#fff2cc;align=left;verticalAlign=middle;spacingLeft=4;spacingRight=4;overflow=hidden;points=[[0,0.5],[1,0.5]];portConstraint=eastwest;rotatable=0;whiteSpace=wrap;html=1;gradientColor=#ffd966;fontColor=#000000;" vertex="1" parent="ZFEEeemjDuWysc22bOcN-11">
          <mxGeometry y="70" width="260" height="30" as="geometry" />
        </mxCell>
        <mxCell id="H6dWRC-GPlg8jXoqrJfH-1" value="&lt;span style=&quot;color: rgb(0, 0, 0); text-wrap: nowrap;&quot;&gt;typedef: HAL_StatusTypeDef t_cbTransmit_Poll(void * bspInstc, uint8_t *pTxData, uint16_t Size, uint32_t Timeout)&lt;/span&gt;" style="rounded=0;whiteSpace=wrap;html=1;verticalAlign=top;fillColor=#ffcd28;gradientColor=#ffa500;strokeColor=#d79b00;fontSize=16;align=left;" vertex="1" parent="1">
          <mxGeometry x="-1620" y="1140" width="810" height="41.43" as="geometry" />
        </mxCell>
        <mxCell id="H6dWRC-GPlg8jXoqrJfH-2" value="&lt;span style=&quot;color: rgb(0, 0, 0); text-wrap: nowrap;&quot;&gt;typedef: t_eReturnCode&amp;nbsp;&lt;/span&gt;&lt;span style=&quot;color: rgb(0, 0, 0); text-wrap: nowrap;&quot;&gt;t_cbFMKSRL_TransmitMsgEvent&lt;/span&gt;&lt;span style=&quot;color: rgb(0, 0, 0); text-wrap: nowrap;&quot;&gt;(t_bool IsMsgTransmit_b,&amp;nbsp;&lt;/span&gt;&lt;span style=&quot;color: rgb(0, 0, 0); text-wrap: nowrap;&quot;&gt;t_eFMKSRL_HealthLine_e&lt;/span&gt;&lt;span style=&quot;color: rgb(0, 0, 0); text-wrap: nowrap;&quot;&gt;)&lt;/span&gt;" style="rounded=0;whiteSpace=wrap;html=1;verticalAlign=top;fillColor=#ffcd28;gradientColor=#ffa500;strokeColor=#d79b00;fontSize=16;align=left;" vertex="1" parent="1">
          <mxGeometry x="-1600" y="1060" width="810" height="41.43" as="geometry" />
        </mxCell>
        <mxCell id="H6dWRC-GPlg8jXoqrJfH-3" value="&lt;span style=&quot;color: rgb(0, 0, 0); text-wrap: nowrap;&quot;&gt;typedef: t_eReturnCode t_cbFMKSRL_ReceiveMsgEvent(t_uint8 * RxBuffer_pu8, t_uint16 f_RxSize_u8, t_eFMKSRL_HealthLine_e)&lt;/span&gt;" style="rounded=0;whiteSpace=wrap;html=1;verticalAlign=top;fillColor=#ffcd28;gradientColor=#ffa500;strokeColor=#d79b00;fontSize=16;align=left;" vertex="1" parent="1">
          <mxGeometry x="-1600" y="990" width="960" height="41.43" as="geometry" />
        </mxCell>
      </root>
    </mxGraphModel>
  </diagram>
  <diagram id="mZPuhwRjiiPdLcotO4tG" name="sAPI">
    <mxGraphModel dx="2633" dy="2905" grid="1" gridSize="10" guides="1" tooltips="1" connect="1" arrows="1" fold="1" page="1" pageScale="1" pageWidth="827" pageHeight="1169" math="0" shadow="0">
      <root>
        <mxCell id="0" />
        <mxCell id="1" parent="0" />
        <mxCell id="ghpHaYzROjMV02lVL5Tv-1" value="" style="group;fontSize=12;" vertex="1" connectable="0" parent="1">
          <mxGeometry x="-1610" y="-2090" width="750" height="160" as="geometry" />
        </mxCell>
        <mxCell id="ghpHaYzROjMV02lVL5Tv-2" value="&lt;div style=&quot;font-size: 12px;&quot;&gt;&lt;div style=&quot;font-size: 12px;&quot;&gt;&lt;span style=&quot;text-wrap: nowrap;&quot;&gt;- Check if the Software Configuration of the Line is supported by the Serial Line .i.e HART/USART Instance&lt;/span&gt;&lt;/div&gt;&lt;/div&gt;" style="rounded=0;whiteSpace=wrap;html=1;fillColor=#d5e8d4;gradientColor=#97d077;strokeColor=#82b366;fontColor=#000000;align=left;fontSize=12;" vertex="1" parent="ghpHaYzROjMV02lVL5Tv-1">
          <mxGeometry width="750" height="160" as="geometry" />
        </mxCell>
        <mxCell id="ghpHaYzROjMV02lVL5Tv-3" value="&lt;span style=&quot;font-size: 12px;&quot;&gt;FMKSRL_CheckConfiguration(&lt;/span&gt;&lt;span style=&quot;background-color: initial;&quot;&gt;f_Serial_e,&amp;nbsp;&lt;/span&gt;t_eFMKSRL_SerialHwType, t_eFMKSRL_SerialTypeCfg&lt;span style=&quot;background-color: initial;&quot;&gt;)&lt;/span&gt;" style="rounded=0;whiteSpace=wrap;html=1;fillColor=#d5e8d4;gradientColor=#97d077;strokeColor=#82b366;fontColor=#000000;fontSize=12;" vertex="1" parent="ghpHaYzROjMV02lVL5Tv-1">
          <mxGeometry width="750" height="40" as="geometry" />
        </mxCell>
        <mxCell id="9CiL1QWNNsWoA0Dnm6zI-1" value="" style="group;fontSize=12;" vertex="1" connectable="0" parent="1">
          <mxGeometry x="-1615" y="-1860" width="750" height="160" as="geometry" />
        </mxCell>
        <mxCell id="9CiL1QWNNsWoA0Dnm6zI-2" value="&lt;div style=&quot;font-size: 12px;&quot;&gt;&lt;div style=&quot;font-size: 12px;&quot;&gt;&lt;span style=&quot;text-wrap: nowrap;&quot;&gt;- Configure Bsp Init structure and call the Right Init Function depending on SoftCfg etc&lt;/span&gt;&lt;/div&gt;&lt;/div&gt;" style="rounded=0;whiteSpace=wrap;html=1;fillColor=#d5e8d4;gradientColor=#97d077;strokeColor=#82b366;fontColor=#000000;align=left;fontSize=12;" vertex="1" parent="9CiL1QWNNsWoA0Dnm6zI-1">
          <mxGeometry width="750" height="160" as="geometry" />
        </mxCell>
        <mxCell id="9CiL1QWNNsWoA0Dnm6zI-3" value="&lt;span style=&quot;font-size: 12px;&quot;&gt;FMKSRL_SetBspSerialInit(&lt;/span&gt;&lt;span style=&quot;background-color: initial;&quot;&gt;f_Serial_e,&amp;nbsp;&lt;/span&gt;&lt;span style=&quot;background-color: initial;&quot;&gt;&amp;nbsp;&lt;/span&gt;&lt;span style=&quot;text-wrap: nowrap; background-color: initial; text-align: left;&quot;&gt;t_sFMKSRL_DrvSerial&lt;/span&gt;&lt;span style=&quot;text-wrap: nowrap; background-color: initial; text-align: left;&quot;&gt;Cfg&amp;nbsp; f_SerialCfg_s&lt;/span&gt;&lt;span style=&quot;background-color: initial;&quot;&gt;)&lt;/span&gt;" style="rounded=0;whiteSpace=wrap;html=1;fillColor=#d5e8d4;gradientColor=#97d077;strokeColor=#82b366;fontColor=#000000;fontSize=12;" vertex="1" parent="9CiL1QWNNsWoA0Dnm6zI-1">
          <mxGeometry width="750" height="40" as="geometry" />
        </mxCell>
      </root>
    </mxGraphModel>
  </diagram>
  <diagram id="c8qCG2cq2YNuccicBsZc" name="API">
    <mxGraphModel dx="2465" dy="2808" grid="1" gridSize="10" guides="1" tooltips="1" connect="1" arrows="1" fold="1" page="1" pageScale="1" pageWidth="827" pageHeight="1169" math="0" shadow="0">
      <root>
        <mxCell id="0" />
        <mxCell id="1" parent="0" />
        <mxCell id="L9gnD7BBZ4rIhTHi57pm-1" value="" style="group;fontSize=12;" vertex="1" connectable="0" parent="1">
          <mxGeometry x="-1600" y="-2120" width="750" height="180" as="geometry" />
        </mxCell>
        <mxCell id="L9gnD7BBZ4rIhTHi57pm-2" value="&lt;div style=&quot;font-size: 12px;&quot;&gt;&lt;div style=&quot;font-size: 12px;&quot;&gt;&lt;font style=&quot;font-size: 12px;&quot;&gt;&lt;span style=&quot;text-wrap: nowrap; font-size: 12px;&quot;&gt;- Init the Serial Driver&amp;nbsp;&lt;/span&gt;&lt;/font&gt;&lt;/div&gt;&lt;/div&gt;&lt;div style=&quot;font-size: 12px;&quot;&gt;&lt;font style=&quot;font-size: 12px;&quot;&gt;&lt;span style=&quot;text-wrap: nowrap; font-size: 12px;&quot;&gt;- Check Validity first UART/USART Mode etc&amp;nbsp;&lt;/span&gt;&lt;/font&gt;&lt;/div&gt;&lt;div style=&quot;font-size: 12px;&quot;&gt;&lt;font style=&quot;font-size: 12px;&quot;&gt;&lt;span style=&quot;text-wrap: nowrap; font-size: 12px;&quot;&gt;- Perform Init driver/ Init Bsp according Structure Configuration&amp;nbsp;&lt;/span&gt;&lt;/font&gt;&lt;/div&gt;" style="rounded=0;whiteSpace=wrap;html=1;fillColor=#d5e8d4;gradientColor=#97d077;strokeColor=#82b366;fontColor=#000000;align=left;fontSize=12;" vertex="1" parent="L9gnD7BBZ4rIhTHi57pm-1">
          <mxGeometry width="750" height="180" as="geometry" />
        </mxCell>
        <mxCell id="L9gnD7BBZ4rIhTHi57pm-3" value="FMKSRL__InitDrv(&lt;span style=&quot;background-color: initial;&quot;&gt;f_Serial_e,&amp;nbsp;&lt;/span&gt;&lt;span style=&quot;text-wrap: nowrap; background-color: initial; text-align: left;&quot;&gt;t_sFMKSRL_DrvSerial&lt;/span&gt;&lt;span style=&quot;text-wrap: nowrap; background-color: initial; text-align: left;&quot;&gt;Cfg&amp;nbsp; f_SerialCfg_s,&lt;/span&gt;&lt;div style=&quot;font-size: 14px;&quot;&gt;&lt;span style=&quot;font-size: 12px; background-color: initial;&quot;&gt;t_cbReceiveMsgEvent * f_blabla,&amp;nbsp;&lt;/span&gt;&lt;span style=&quot;background-color: initial; font-size: 12px;&quot;&gt;t_cbTransmitMsgEvnt * f_blabla)&lt;/span&gt;&lt;/div&gt;" style="rounded=0;whiteSpace=wrap;html=1;fillColor=#d5e8d4;gradientColor=#97d077;strokeColor=#82b366;fontColor=#000000;fontSize=12;" vertex="1" parent="L9gnD7BBZ4rIhTHi57pm-1">
          <mxGeometry width="750" height="45" as="geometry" />
        </mxCell>
        <mxCell id="952jkmbtam0tos3QLl22-1" value="" style="group;fontSize=12;" vertex="1" connectable="0" parent="1">
          <mxGeometry x="-1600" y="-1880" width="750" height="180" as="geometry" />
        </mxCell>
        <mxCell id="952jkmbtam0tos3QLl22-2" value="&lt;div style=&quot;font-size: 12px;&quot;&gt;&lt;div style=&quot;font-size: 12px;&quot;&gt;&lt;font style=&quot;font-size: 12px;&quot;&gt;&lt;span style=&quot;text-wrap: nowrap; font-size: 12px;&quot;&gt;- Init the Serial Driver&amp;nbsp;&lt;/span&gt;&lt;/font&gt;&lt;/div&gt;&lt;/div&gt;&lt;div style=&quot;font-size: 12px;&quot;&gt;&lt;font style=&quot;font-size: 12px;&quot;&gt;&lt;span style=&quot;text-wrap: nowrap; font-size: 12px;&quot;&gt;- Check Validity first UART/USART Mode etc&amp;nbsp;&lt;/span&gt;&lt;/font&gt;&lt;/div&gt;&lt;div style=&quot;font-size: 12px;&quot;&gt;&lt;font style=&quot;font-size: 12px;&quot;&gt;&lt;span style=&quot;text-wrap: nowrap; font-size: 12px;&quot;&gt;- Perform Init driver/ Init Bsp according Structure Configuration&amp;nbsp;&lt;/span&gt;&lt;/font&gt;&lt;/div&gt;" style="rounded=0;whiteSpace=wrap;html=1;fillColor=#d5e8d4;gradientColor=#97d077;strokeColor=#82b366;fontColor=#000000;align=left;fontSize=12;" vertex="1" parent="952jkmbtam0tos3QLl22-1">
          <mxGeometry width="750" height="180" as="geometry" />
        </mxCell>
        <mxCell id="952jkmbtam0tos3QLl22-3" value="&lt;div style=&quot;text-align: left;&quot;&gt;&lt;span style=&quot;background-color: initial;&quot;&gt;FMKSRL__TransmitMsg(&lt;/span&gt;&lt;span style=&quot;background-color: initial;&quot;&gt;f_Serial_e, &lt;span style=&quot;text-wrap: nowrap;&quot;&gt;t_uint8 f_msgData_pu8; t_uint16 f_dataSize_u16&lt;/span&gt;&lt;/span&gt;&lt;span style=&quot;background-color: initial;&quot;&gt;)&lt;/span&gt;&lt;/div&gt;" style="rounded=0;whiteSpace=wrap;html=1;fillColor=#d5e8d4;gradientColor=#97d077;strokeColor=#82b366;fontColor=#000000;fontSize=12;" vertex="1" parent="952jkmbtam0tos3QLl22-1">
          <mxGeometry width="750" height="45" as="geometry" />
        </mxCell>
      </root>
    </mxGraphModel>
  </diagram>
  <diagram id="Gw3yet0LeS6JoTI-lVHP" name="InitDrv">
    <mxGraphModel dx="1235" dy="1884" grid="1" gridSize="10" guides="1" tooltips="1" connect="1" arrows="1" fold="1" page="1" pageScale="1" pageWidth="827" pageHeight="1169" math="0" shadow="0">
      <root>
        <mxCell id="0" />
        <mxCell id="1" parent="0" />
        <mxCell id="uL35ew9Z7WaH0zvdBSed-2" value="&lt;span style=&quot;font-size: 12px;&quot;&gt;FMKSRL__InitDrv(&lt;/span&gt;&lt;span style=&quot;font-size: 12px; background-color: initial;&quot;&gt;f_Serial_e,&amp;nbsp;&lt;/span&gt;&lt;span style=&quot;font-size: 12px; text-wrap: nowrap; background-color: initial; text-align: left;&quot;&gt;t_sFMKSRL_DrvSerial&lt;/span&gt;&lt;span style=&quot;font-size: 12px; text-wrap: nowrap; background-color: initial; text-align: left;&quot;&gt;Cfg&amp;nbsp; f_SerialCfg_s,&lt;/span&gt;&lt;div&gt;&lt;span style=&quot;font-size: 12px; background-color: initial;&quot;&gt;t_cbReceiveMsgEvent * f_blabla&lt;/span&gt;&lt;/div&gt;&lt;div&gt;&lt;span style=&quot;font-size: 12px; background-color: initial;&quot;&gt;t_cbTransmitMsgEvnt * f_blabla)&lt;/span&gt;&lt;/div&gt;" style="rounded=0;whiteSpace=wrap;html=1;fillColor=#647687;fontColor=#000000;strokeColor=#314354;fontSize=14;" vertex="1" parent="1">
          <mxGeometry x="34" y="-1169" width="760" height="60" as="geometry" />
        </mxCell>
        <mxCell id="Y1RYZ2xR6nJR5Oqxv2lL-2" style="edgeStyle=orthogonalEdgeStyle;rounded=0;orthogonalLoop=1;jettySize=auto;html=1;exitX=0.5;exitY=1;exitDx=0;exitDy=0;entryX=0.5;entryY=0;entryDx=0;entryDy=0;fontFamily=Helvetica;fontSize=12;fontColor=#000000;" edge="1" parent="1" source="uL35ew9Z7WaH0zvdBSed-3" target="Y1RYZ2xR6nJR5Oqxv2lL-1">
          <mxGeometry relative="1" as="geometry" />
        </mxCell>
        <mxCell id="uL35ew9Z7WaH0zvdBSed-3" value="Start" style="ellipse;whiteSpace=wrap;html=1;aspect=fixed;fillColor=#f5f5f5;fontColor=#333333;strokeColor=#666666;" vertex="1" parent="1">
          <mxGeometry x="374" y="-1090" width="80" height="80" as="geometry" />
        </mxCell>
        <mxCell id="BMLVP7sA69efPWM3DMY0-1" style="edgeStyle=orthogonalEdgeStyle;rounded=0;orthogonalLoop=1;jettySize=auto;html=1;exitX=0.5;exitY=1;exitDx=0;exitDy=0;entryX=0.5;entryY=0;entryDx=0;entryDy=0;fontFamily=Helvetica;fontSize=12;fontColor=#000000;" edge="1" parent="1" source="Y1RYZ2xR6nJR5Oqxv2lL-1" target="Y1RYZ2xR6nJR5Oqxv2lL-3">
          <mxGeometry relative="1" as="geometry" />
        </mxCell>
        <mxCell id="BMLVP7sA69efPWM3DMY0-2" value="True" style="edgeLabel;html=1;align=center;verticalAlign=middle;resizable=0;points=[];strokeColor=#6c8ebf;spacingLeft=4;spacingRight=4;fontFamily=Helvetica;fontSize=12;fontColor=#FFFFFF;fillColor=#dae8fc;gradientColor=#7ea6e0;" vertex="1" connectable="0" parent="BMLVP7sA69efPWM3DMY0-1">
          <mxGeometry x="-0.1198" relative="1" as="geometry">
            <mxPoint as="offset" />
          </mxGeometry>
        </mxCell>
        <mxCell id="BMLVP7sA69efPWM3DMY0-4" style="edgeStyle=orthogonalEdgeStyle;rounded=0;orthogonalLoop=1;jettySize=auto;html=1;exitX=0;exitY=0.5;exitDx=0;exitDy=0;entryX=0;entryY=0.5;entryDx=0;entryDy=0;fontFamily=Helvetica;fontSize=12;fontColor=#FFFFFF;" edge="1" parent="1" source="Y1RYZ2xR6nJR5Oqxv2lL-1" target="BMLVP7sA69efPWM3DMY0-3">
          <mxGeometry relative="1" as="geometry">
            <Array as="points">
              <mxPoint x="10" y="-945" />
              <mxPoint x="10" y="-50" />
            </Array>
          </mxGeometry>
        </mxCell>
        <mxCell id="RnO33JSSqWo6sTTEr2JQ-7" value="NOT OK" style="edgeLabel;html=1;align=center;verticalAlign=middle;resizable=0;points=[];strokeColor=#6c8ebf;spacingLeft=4;spacingRight=4;fontFamily=Helvetica;fontSize=12;fontColor=#FFFFFF;fillColor=#dae8fc;gradientColor=#7ea6e0;" vertex="1" connectable="0" parent="BMLVP7sA69efPWM3DMY0-4">
          <mxGeometry x="-0.9234" y="1" relative="1" as="geometry">
            <mxPoint as="offset" />
          </mxGeometry>
        </mxCell>
        <mxCell id="Y1RYZ2xR6nJR5Oqxv2lL-1" value="g_SerialInfo_as[f_Node_e].isConfigured == True ??" style="shape=hexagon;perimeter=hexagonPerimeter2;whiteSpace=wrap;html=1;fixedSize=1;fillColor=#f5f5f5;fontColor=#333333;strokeColor=#666666;" vertex="1" parent="1">
          <mxGeometry x="236.49999999999997" y="-960" width="355" height="30" as="geometry" />
        </mxCell>
        <mxCell id="RnO33JSSqWo6sTTEr2JQ-1" style="edgeStyle=orthogonalEdgeStyle;rounded=0;orthogonalLoop=1;jettySize=auto;html=1;exitX=0;exitY=0.5;exitDx=0;exitDy=0;entryX=0;entryY=0.5;entryDx=0;entryDy=0;fontFamily=Helvetica;fontSize=12;fontColor=#000000;" edge="1" parent="1" source="Y1RYZ2xR6nJR5Oqxv2lL-3" target="BMLVP7sA69efPWM3DMY0-3">
          <mxGeometry relative="1" as="geometry">
            <Array as="points">
              <mxPoint x="20" y="-860" />
              <mxPoint x="20" y="-50" />
            </Array>
          </mxGeometry>
        </mxCell>
        <mxCell id="RnO33JSSqWo6sTTEr2JQ-8" value="NOT OK" style="edgeLabel;html=1;align=center;verticalAlign=middle;resizable=0;points=[];strokeColor=#6c8ebf;spacingLeft=4;spacingRight=4;fontFamily=Helvetica;fontSize=12;fontColor=#FFFFFF;fillColor=#dae8fc;gradientColor=#7ea6e0;" vertex="1" connectable="0" parent="RnO33JSSqWo6sTTEr2JQ-1">
          <mxGeometry x="-0.9313" y="2" relative="1" as="geometry">
            <mxPoint as="offset" />
          </mxGeometry>
        </mxCell>
        <mxCell id="Y1RYZ2xR6nJR5Oqxv2lL-3" value="s_FMKSRL_CheckConfiguration(f_Serial_e,&amp;nbsp;&lt;div&gt;&lt;span style=&quot;text-align: left; text-wrap: nowrap;&quot;&gt;&lt;font color=&quot;#000000&quot;&gt;g_SerialInfo_as[f_Serial_e].HwType_e, f_SerialCfg_s.SoftType_e)&lt;/font&gt;&lt;/span&gt;&lt;/div&gt;" style="rounded=1;whiteSpace=wrap;html=1;fillColor=#f5f5f5;fontColor=#333333;strokeColor=#666666;" vertex="1" parent="1">
          <mxGeometry x="174" y="-880" width="478.5" height="40" as="geometry" />
        </mxCell>
        <mxCell id="BMLVP7sA69efPWM3DMY0-3" value="End" style="ellipse;whiteSpace=wrap;html=1;aspect=fixed;fillColor=#f5f5f5;fontColor=#333333;strokeColor=#666666;" vertex="1" parent="1">
          <mxGeometry x="374" y="-90" width="80" height="80" as="geometry" />
        </mxCell>
        <mxCell id="i4b2T_wA9gQtUDWj-KOY-3" style="edgeStyle=orthogonalEdgeStyle;rounded=0;orthogonalLoop=1;jettySize=auto;html=1;exitX=0.5;exitY=1;exitDx=0;exitDy=0;fontFamily=Helvetica;fontSize=12;fontColor=#000000;" edge="1" parent="1" source="BMLVP7sA69efPWM3DMY0-5" target="i4b2T_wA9gQtUDWj-KOY-2">
          <mxGeometry relative="1" as="geometry" />
        </mxCell>
        <mxCell id="YPw3ytU0C8QGbSpH5TX9-1" value="OK" style="edgeLabel;html=1;align=center;verticalAlign=middle;resizable=0;points=[];strokeColor=#6c8ebf;spacingLeft=4;spacingRight=4;fontFamily=Helvetica;fontSize=12;fontColor=#FFFFFF;fillColor=#dae8fc;gradientColor=#7ea6e0;" vertex="1" connectable="0" parent="i4b2T_wA9gQtUDWj-KOY-3">
          <mxGeometry x="-0.263" y="-1" relative="1" as="geometry">
            <mxPoint as="offset" />
          </mxGeometry>
        </mxCell>
        <mxCell id="RnO33JSSqWo6sTTEr2JQ-4" style="edgeStyle=orthogonalEdgeStyle;rounded=0;orthogonalLoop=1;jettySize=auto;html=1;exitX=0;exitY=0.5;exitDx=0;exitDy=0;fontFamily=Helvetica;fontSize=12;fontColor=#000000;entryX=0;entryY=0.5;entryDx=0;entryDy=0;" edge="1" parent="1" source="BMLVP7sA69efPWM3DMY0-5" target="BMLVP7sA69efPWM3DMY0-3">
          <mxGeometry relative="1" as="geometry">
            <mxPoint x="330" y="-51.30434782608695" as="targetPoint" />
            <Array as="points">
              <mxPoint x="90" y="-600" />
              <mxPoint x="90" y="-50" />
            </Array>
          </mxGeometry>
        </mxCell>
        <mxCell id="RnO33JSSqWo6sTTEr2JQ-11" value="NOT OK" style="edgeLabel;html=1;align=center;verticalAlign=middle;resizable=0;points=[];strokeColor=#6c8ebf;spacingLeft=4;spacingRight=4;fontFamily=Helvetica;fontSize=12;fontColor=#FFFFFF;fillColor=#dae8fc;gradientColor=#7ea6e0;" vertex="1" connectable="0" parent="RnO33JSSqWo6sTTEr2JQ-4">
          <mxGeometry x="-0.8739" relative="1" as="geometry">
            <mxPoint as="offset" />
          </mxGeometry>
        </mxCell>
        <mxCell id="BMLVP7sA69efPWM3DMY0-5" value="FMKMAC_RqstDmaInit(g_SerialInfo_as[f_Serial_e].c_DmaRqstType_e, &amp;amp;g_SerialInfo_as[f_Serial_e].&lt;span style=&quot;color: rgb(0, 0, 0);&quot;&gt;bspSerial_u&lt;/span&gt;" style="rounded=1;whiteSpace=wrap;html=1;fillColor=#f5f5f5;fontColor=#333333;strokeColor=#666666;" vertex="1" parent="1">
          <mxGeometry x="175.13" y="-620" width="478.5" height="40" as="geometry" />
        </mxCell>
        <mxCell id="UngDXqdIk5SnRFUJxhHK-5" style="edgeStyle=orthogonalEdgeStyle;rounded=0;orthogonalLoop=1;jettySize=auto;html=1;exitX=0.5;exitY=1;exitDx=0;exitDy=0;fontFamily=Helvetica;fontSize=12;fontColor=#000000;" edge="1" parent="1" source="Y1RYZ2xR6nJR5Oqxv2lL-3" target="UngDXqdIk5SnRFUJxhHK-3">
          <mxGeometry relative="1" as="geometry">
            <mxPoint x="413.63" y="-820" as="sourcePoint" />
          </mxGeometry>
        </mxCell>
        <mxCell id="UngDXqdIk5SnRFUJxhHK-6" style="edgeStyle=orthogonalEdgeStyle;rounded=0;orthogonalLoop=1;jettySize=auto;html=1;exitX=0.5;exitY=1;exitDx=0;exitDy=0;entryX=0.5;entryY=0;entryDx=0;entryDy=0;fontFamily=Helvetica;fontSize=12;fontColor=#000000;" edge="1" parent="1" source="UngDXqdIk5SnRFUJxhHK-3" target="UngDXqdIk5SnRFUJxhHK-4">
          <mxGeometry relative="1" as="geometry" />
        </mxCell>
        <mxCell id="RnO33JSSqWo6sTTEr2JQ-2" style="edgeStyle=orthogonalEdgeStyle;rounded=0;orthogonalLoop=1;jettySize=auto;html=1;exitX=0;exitY=0.5;exitDx=0;exitDy=0;entryX=0;entryY=0.5;entryDx=0;entryDy=0;fontFamily=Helvetica;fontSize=12;fontColor=default;" edge="1" parent="1" source="UngDXqdIk5SnRFUJxhHK-3" target="BMLVP7sA69efPWM3DMY0-3">
          <mxGeometry relative="1" as="geometry">
            <Array as="points">
              <mxPoint x="40" y="-760" />
              <mxPoint x="40" y="-50" />
            </Array>
          </mxGeometry>
        </mxCell>
        <mxCell id="RnO33JSSqWo6sTTEr2JQ-9" value="OK" style="edgeLabel;html=1;align=center;verticalAlign=middle;resizable=0;points=[];strokeColor=#6c8ebf;spacingLeft=4;spacingRight=4;fontFamily=Helvetica;fontSize=12;fontColor=#FFFFFF;fillColor=#dae8fc;gradientColor=#7ea6e0;" vertex="1" connectable="0" parent="RnO33JSSqWo6sTTEr2JQ-2">
          <mxGeometry x="-0.9245" y="1" relative="1" as="geometry">
            <mxPoint as="offset" />
          </mxGeometry>
        </mxCell>
        <mxCell id="UngDXqdIk5SnRFUJxhHK-3" value="FMKCPU_SetHwClock(g_SerialInfo_as[f_Serial_e].c_clock_e, ACTIVATED" style="rounded=1;whiteSpace=wrap;html=1;fillColor=#f5f5f5;fontColor=#333333;strokeColor=#666666;" vertex="1" parent="1">
          <mxGeometry x="174.38" y="-780" width="478.5" height="40" as="geometry" />
        </mxCell>
        <mxCell id="i4b2T_wA9gQtUDWj-KOY-1" style="edgeStyle=orthogonalEdgeStyle;rounded=0;orthogonalLoop=1;jettySize=auto;html=1;exitX=0.5;exitY=1;exitDx=0;exitDy=0;entryX=0.5;entryY=0;entryDx=0;entryDy=0;fontFamily=Helvetica;fontSize=12;fontColor=#000000;" edge="1" parent="1" source="UngDXqdIk5SnRFUJxhHK-4" target="BMLVP7sA69efPWM3DMY0-5">
          <mxGeometry relative="1" as="geometry" />
        </mxCell>
        <mxCell id="YPw3ytU0C8QGbSpH5TX9-2" value="OK" style="edgeLabel;html=1;align=center;verticalAlign=middle;resizable=0;points=[];strokeColor=#6c8ebf;spacingLeft=4;spacingRight=4;fontFamily=Helvetica;fontSize=12;fontColor=#FFFFFF;fillColor=#dae8fc;gradientColor=#7ea6e0;" vertex="1" connectable="0" parent="i4b2T_wA9gQtUDWj-KOY-1">
          <mxGeometry x="-0.1761" y="-1" relative="1" as="geometry">
            <mxPoint as="offset" />
          </mxGeometry>
        </mxCell>
        <mxCell id="RnO33JSSqWo6sTTEr2JQ-3" style="edgeStyle=orthogonalEdgeStyle;rounded=0;orthogonalLoop=1;jettySize=auto;html=1;exitX=0;exitY=0.5;exitDx=0;exitDy=0;entryX=0;entryY=0.5;entryDx=0;entryDy=0;fontFamily=Helvetica;fontSize=12;fontColor=#000000;" edge="1" parent="1" source="UngDXqdIk5SnRFUJxhHK-4" target="BMLVP7sA69efPWM3DMY0-3">
          <mxGeometry relative="1" as="geometry">
            <Array as="points">
              <mxPoint x="60" y="-680" />
              <mxPoint x="60" y="-50" />
            </Array>
          </mxGeometry>
        </mxCell>
        <mxCell id="RnO33JSSqWo6sTTEr2JQ-10" value="NOT OK" style="edgeLabel;html=1;align=center;verticalAlign=middle;resizable=0;points=[];strokeColor=#6c8ebf;spacingLeft=4;spacingRight=4;fontFamily=Helvetica;fontSize=12;fontColor=#FFFFFF;fillColor=#dae8fc;gradientColor=#7ea6e0;" vertex="1" connectable="0" parent="RnO33JSSqWo6sTTEr2JQ-3">
          <mxGeometry x="-0.8369" y="2" relative="1" as="geometry">
            <mxPoint as="offset" />
          </mxGeometry>
        </mxCell>
        <mxCell id="UngDXqdIk5SnRFUJxhHK-4" value="FMKCPU_SetNVICState(g_SerialInfo_as[f_Serial_e].c_NVICType_e,&amp;nbsp; ACTIVATED)" style="rounded=1;whiteSpace=wrap;html=1;fillColor=#f5f5f5;fontColor=#333333;strokeColor=#666666;" vertex="1" parent="1">
          <mxGeometry x="174.38" y="-700" width="478.5" height="40" as="geometry" />
        </mxCell>
        <mxCell id="miM8SEdyu0v3ARx8WjC8-2" style="edgeStyle=orthogonalEdgeStyle;rounded=0;orthogonalLoop=1;jettySize=auto;html=1;exitX=0.5;exitY=1;exitDx=0;exitDy=0;entryX=0.5;entryY=0;entryDx=0;entryDy=0;fontFamily=Helvetica;fontSize=12;fontColor=#000000;" edge="1" parent="1" source="i4b2T_wA9gQtUDWj-KOY-2" target="miM8SEdyu0v3ARx8WjC8-1">
          <mxGeometry relative="1" as="geometry" />
        </mxCell>
        <mxCell id="RnO33JSSqWo6sTTEr2JQ-5" style="edgeStyle=orthogonalEdgeStyle;rounded=0;orthogonalLoop=1;jettySize=auto;html=1;exitX=0;exitY=0.5;exitDx=0;exitDy=0;fontFamily=Helvetica;fontSize=12;fontColor=#000000;entryX=0;entryY=0.5;entryDx=0;entryDy=0;" edge="1" parent="1" source="i4b2T_wA9gQtUDWj-KOY-2" target="BMLVP7sA69efPWM3DMY0-3">
          <mxGeometry relative="1" as="geometry">
            <mxPoint x="330" y="-62.72727272727273" as="targetPoint" />
            <Array as="points">
              <mxPoint x="110" y="-510" />
              <mxPoint x="110" y="-50" />
            </Array>
          </mxGeometry>
        </mxCell>
        <mxCell id="RnO33JSSqWo6sTTEr2JQ-12" value="NOT OK" style="edgeLabel;html=1;align=center;verticalAlign=middle;resizable=0;points=[];strokeColor=#6c8ebf;spacingLeft=4;spacingRight=4;fontFamily=Helvetica;fontSize=12;fontColor=#FFFFFF;fillColor=#dae8fc;gradientColor=#7ea6e0;" vertex="1" connectable="0" parent="RnO33JSSqWo6sTTEr2JQ-5">
          <mxGeometry x="-0.9038" y="-2" relative="1" as="geometry">
            <mxPoint as="offset" />
          </mxGeometry>
        </mxCell>
        <mxCell id="i4b2T_wA9gQtUDWj-KOY-2" value="FMKMAC_RqstDmaInit(g_SerialInfo_as[f_Serial_e].c_DmaRqstType_e, &amp;amp;g_SerialInfo_as[f_Serial_e].&lt;span style=&quot;color: rgb(0, 0, 0);&quot;&gt;bspSerial_u&lt;/span&gt;" style="rounded=1;whiteSpace=wrap;html=1;fillColor=#f5f5f5;fontColor=#333333;strokeColor=#666666;" vertex="1" parent="1">
          <mxGeometry x="175.13" y="-530" width="478.5" height="40" as="geometry" />
        </mxCell>
        <mxCell id="YPw3ytU0C8QGbSpH5TX9-5" value="OK" style="edgeLabel;html=1;align=center;verticalAlign=middle;resizable=0;points=[];strokeColor=#6c8ebf;spacingLeft=4;spacingRight=4;fontFamily=Helvetica;fontSize=12;fontColor=#FFFFFF;fillColor=#dae8fc;gradientColor=#7ea6e0;" vertex="1" connectable="0" parent="1">
          <mxGeometry x="413.62945252207857" y="-719.9993113768775" as="geometry" />
        </mxCell>
        <mxCell id="YPw3ytU0C8QGbSpH5TX9-6" value="OK" style="edgeLabel;html=1;align=center;verticalAlign=middle;resizable=0;points=[];strokeColor=#6c8ebf;spacingLeft=4;spacingRight=4;fontFamily=Helvetica;fontSize=12;fontColor=#FFFFFF;fillColor=#dae8fc;gradientColor=#7ea6e0;" vertex="1" connectable="0" parent="1">
          <mxGeometry x="400.37945252207857" y="-729.9993113768775" as="geometry">
            <mxPoint x="11" y="-77" as="offset" />
          </mxGeometry>
        </mxCell>
        <mxCell id="YPw3ytU0C8QGbSpH5TX9-8" value="OK" style="edgeLabel;html=1;align=center;verticalAlign=middle;resizable=0;points=[];strokeColor=#6c8ebf;spacingLeft=4;spacingRight=4;fontFamily=Helvetica;fontSize=12;fontColor=#FFFFFF;fillColor=#dae8fc;gradientColor=#7ea6e0;" vertex="1" connectable="0" parent="1">
          <mxGeometry x="420.38" y="-551.3333333333333" as="geometry">
            <mxPoint x="-8" y="82" as="offset" />
          </mxGeometry>
        </mxCell>
        <mxCell id="RnO33JSSqWo6sTTEr2JQ-6" style="edgeStyle=orthogonalEdgeStyle;rounded=0;orthogonalLoop=1;jettySize=auto;html=1;exitX=0;exitY=0.5;exitDx=0;exitDy=0;entryX=0;entryY=0.5;entryDx=0;entryDy=0;fontFamily=Helvetica;fontSize=12;fontColor=#000000;" edge="1" parent="1" source="miM8SEdyu0v3ARx8WjC8-1" target="BMLVP7sA69efPWM3DMY0-3">
          <mxGeometry relative="1" as="geometry">
            <Array as="points">
              <mxPoint x="140" y="-410" />
              <mxPoint x="140" y="-50" />
            </Array>
          </mxGeometry>
        </mxCell>
        <mxCell id="miM8SEdyu0v3ARx8WjC8-1" value="s_FMKSRL_SetBspSerialInit(f_Serial_e, f_SerialCfg_s)" style="rounded=1;whiteSpace=wrap;html=1;fillColor=#f5f5f5;fontColor=#333333;strokeColor=#666666;" vertex="1" parent="1">
          <mxGeometry x="174.38" y="-430" width="478.5" height="40" as="geometry" />
        </mxCell>
        <mxCell id="RnO33JSSqWo6sTTEr2JQ-13" value="NOT OK" style="edgeLabel;html=1;align=center;verticalAlign=middle;resizable=0;points=[];strokeColor=#6c8ebf;spacingLeft=4;spacingRight=4;fontFamily=Helvetica;fontSize=12;fontColor=#FFFFFF;fillColor=#dae8fc;gradientColor=#7ea6e0;" vertex="1" connectable="0" parent="1">
          <mxGeometry x="147.63000000000034" y="-450" as="geometry">
            <mxPoint y="89" as="offset" />
          </mxGeometry>
        </mxCell>
        <mxCell id="697RZal3O30sfE2Pb7oK-1" value="g_SerialInfo[f_Serial].RxEvnt_pcb = f_ReceiveEvent_pcb" style="rounded=1;whiteSpace=wrap;html=1;fillColor=#f5f5f5;fontColor=#333333;strokeColor=#666666;" vertex="1" parent="1">
          <mxGeometry x="174" y="-320" width="478.5" height="40" as="geometry" />
        </mxCell>
        <mxCell id="697RZal3O30sfE2Pb7oK-2" value="g_SerialInfo[f_Serial].TxEvent_pcb = f_TransmitEvent_pcb" style="rounded=1;whiteSpace=wrap;html=1;fillColor=#f5f5f5;fontColor=#333333;strokeColor=#666666;" vertex="1" parent="1">
          <mxGeometry x="175.13" y="-280" width="478.5" height="40" as="geometry" />
        </mxCell>
      </root>
    </mxGraphModel>
  </diagram>
  <diagram id="yG0piaM_HFbQT7QHiVEm" name="sSetBspInit">
    <mxGraphModel dx="1052" dy="1778" grid="1" gridSize="10" guides="1" tooltips="1" connect="1" arrows="1" fold="1" page="1" pageScale="1" pageWidth="827" pageHeight="1169" math="0" shadow="0">
      <root>
        <mxCell id="0" />
        <mxCell id="1" parent="0" />
        <mxCell id="1a3hIXlGNPEinbq-ZUQQ-1" value="&lt;span style=&quot;font-size: 12px;&quot;&gt;FMKSRL_SetBspSerialInit(&lt;/span&gt;&lt;span style=&quot;font-size: 12px; background-color: initial;&quot;&gt;t_sSerialInfo *f_SerialInfo_ps,&amp;nbsp;&lt;/span&gt;&lt;span style=&quot;font-size: 12px; background-color: initial;&quot;&gt;&amp;nbsp;&lt;/span&gt;&lt;span style=&quot;font-size: 12px; text-align: left; text-wrap: nowrap; background-color: initial;&quot;&gt;t_sFMKSRL_DrvSerial&lt;/span&gt;&lt;span style=&quot;font-size: 12px; text-align: left; text-wrap: nowrap; background-color: initial;&quot;&gt;Cfg&amp;nbsp; f_SerialCfg_s&lt;/span&gt;&lt;span style=&quot;font-size: 12px; background-color: initial;&quot;&gt;)&lt;/span&gt;" style="rounded=0;whiteSpace=wrap;html=1;fillColor=#647687;fontColor=#000000;strokeColor=#314354;fontSize=14;" vertex="1" parent="1">
          <mxGeometry x="34" y="-1169" width="760" height="60" as="geometry" />
        </mxCell>
        <mxCell id="o9gI_7Vo2g0sVHFXMRge-1" value="Start" style="ellipse;whiteSpace=wrap;html=1;aspect=fixed;fillColor=#f5f5f5;fontColor=#333333;strokeColor=#666666;" vertex="1" parent="1">
          <mxGeometry x="374" y="-1090" width="80" height="80" as="geometry" />
        </mxCell>
        <mxCell id="q1r6nK7NICifASLjpaDB-3" style="edgeStyle=orthogonalEdgeStyle;rounded=0;orthogonalLoop=1;jettySize=auto;html=1;exitX=0;exitY=1;exitDx=0;exitDy=0;entryX=0.5;entryY=0;entryDx=0;entryDy=0;fontFamily=Helvetica;fontSize=12;fontColor=#000000;" edge="1" parent="1" source="q1r6nK7NICifASLjpaDB-1" target="bzZ0LHFBWLQdkN9M_yE9-1">
          <mxGeometry relative="1" as="geometry">
            <mxPoint x="554.75" y="-840" as="targetPoint" />
            <Array as="points">
              <mxPoint x="175" y="-870" />
              <mxPoint x="555" y="-870" />
              <mxPoint x="555" y="-830" />
            </Array>
          </mxGeometry>
        </mxCell>
        <mxCell id="XFH31S3AzJe8_pmv7-7D-7" style="edgeStyle=orthogonalEdgeStyle;rounded=0;orthogonalLoop=1;jettySize=auto;html=1;exitX=0;exitY=1;exitDx=0;exitDy=0;entryX=0.5;entryY=0;entryDx=0;entryDy=0;fontFamily=Helvetica;fontSize=12;fontColor=#000000;" edge="1" parent="1" source="q1r6nK7NICifASLjpaDB-1" target="r7kG5wDVie2OhZxSJjft-1">
          <mxGeometry relative="1" as="geometry">
            <mxPoint x="559.25" y="-665" as="targetPoint" />
            <Array as="points">
              <mxPoint x="175" y="-710" />
              <mxPoint x="565" y="-710" />
              <mxPoint x="565" y="-665" />
            </Array>
          </mxGeometry>
        </mxCell>
        <mxCell id="q1r6nK7NICifASLjpaDB-1" value="switch f_SerialCfg_s.HwType_e" style="rounded=1;whiteSpace=wrap;html=1;fillColor=#f5f5f5;fontColor=#333333;strokeColor=#666666;" vertex="1" parent="1">
          <mxGeometry x="174.75" y="-980" width="478.5" height="40" as="geometry" />
        </mxCell>
        <mxCell id="XFH31S3AzJe8_pmv7-7D-2" value="&lt;span style=&quot;color: rgb(255, 255, 255); text-align: left; text-wrap: wrap;&quot;&gt;FMKSRL_SERIAL_TYPE_UART&lt;/span&gt;" style="text;html=1;align=center;verticalAlign=middle;resizable=0;points=[];autosize=1;strokeColor=none;fillColor=none;fontFamily=Helvetica;fontSize=12;fontColor=#000000;" vertex="1" parent="1">
          <mxGeometry x="374" y="-900" width="200" height="30" as="geometry" />
        </mxCell>
        <mxCell id="XFH31S3AzJe8_pmv7-7D-16" value="End" style="ellipse;whiteSpace=wrap;html=1;aspect=fixed;fillColor=#f5f5f5;fontColor=#333333;strokeColor=#666666;" vertex="1" parent="1">
          <mxGeometry x="374" y="-90" width="80" height="80" as="geometry" />
        </mxCell>
        <mxCell id="lRzako2REo_N3NTDfEsi-2" style="edgeStyle=orthogonalEdgeStyle;rounded=0;orthogonalLoop=1;jettySize=auto;html=1;exitX=0.5;exitY=1;exitDx=0;exitDy=0;entryX=0.5;entryY=0;entryDx=0;entryDy=0;fontFamily=Helvetica;fontSize=12;fontColor=#000000;" edge="1" parent="1" source="bzZ0LHFBWLQdkN9M_yE9-1" target="lRzako2REo_N3NTDfEsi-1">
          <mxGeometry relative="1" as="geometry">
            <Array as="points">
              <mxPoint x="810" y="-790" />
              <mxPoint x="810" y="-560" />
              <mxPoint x="413" y="-560" />
            </Array>
          </mxGeometry>
        </mxCell>
        <mxCell id="bzZ0LHFBWLQdkN9M_yE9-1" value="s_FMKSRL_SetBspUartInit(&lt;span style=&quot;color: rgb(0, 0, 0);&quot;&gt;f_SerialInfo_ps&lt;/span&gt;, f_SerialCfg_s.&lt;span style=&quot;color: rgb(0, 0, 0);&quot;&gt;CfgSpec_u.uart_s, f_SerialCfg_s.HwProtocolCfg_s)&lt;/span&gt;" style="rounded=1;whiteSpace=wrap;html=1;fillColor=#f5f5f5;fontColor=#333333;strokeColor=#666666;" vertex="1" parent="1">
          <mxGeometry x="315.5" y="-830" width="478.5" height="40" as="geometry" />
        </mxCell>
        <mxCell id="lRzako2REo_N3NTDfEsi-3" style="edgeStyle=orthogonalEdgeStyle;rounded=0;orthogonalLoop=1;jettySize=auto;html=1;exitX=0.5;exitY=1;exitDx=0;exitDy=0;entryX=0.5;entryY=0;entryDx=0;entryDy=0;fontFamily=Helvetica;fontSize=12;fontColor=#000000;" edge="1" parent="1" source="r7kG5wDVie2OhZxSJjft-1" target="lRzako2REo_N3NTDfEsi-1">
          <mxGeometry relative="1" as="geometry">
            <Array as="points">
              <mxPoint x="565" y="-560" />
              <mxPoint x="413" y="-560" />
            </Array>
          </mxGeometry>
        </mxCell>
        <mxCell id="lRzako2REo_N3NTDfEsi-4" value="&lt;font color=&quot;#ffffff&quot;&gt;OK&lt;/font&gt;" style="edgeLabel;html=1;align=center;verticalAlign=middle;resizable=0;points=[];strokeColor=#6c8ebf;spacingLeft=4;spacingRight=4;fontFamily=Helvetica;fontSize=12;fontColor=#000000;fillColor=#dae8fc;gradientColor=#7ea6e0;" vertex="1" connectable="0" parent="lRzako2REo_N3NTDfEsi-3">
          <mxGeometry x="0.7087" y="-2" relative="1" as="geometry">
            <mxPoint as="offset" />
          </mxGeometry>
        </mxCell>
        <mxCell id="r7kG5wDVie2OhZxSJjft-1" value="s_FMKSRL_SetBspUartInit(&lt;span style=&quot;color: rgb(0, 0, 0);&quot;&gt;f_SerialInfo_ps&lt;/span&gt;, f_SerialCfg_s.&lt;span style=&quot;color: rgb(0, 0, 0);&quot;&gt;CfgSpec_u.uart_s, f_SerialCfg_s.HwProtocolCfg_s)&lt;/span&gt;" style="rounded=1;whiteSpace=wrap;html=1;fillColor=#f5f5f5;fontColor=#333333;strokeColor=#666666;" vertex="1" parent="1">
          <mxGeometry x="325.5" y="-660" width="478.5" height="40" as="geometry" />
        </mxCell>
        <mxCell id="uixpPB1kCMikrBY3hmmR-1" value="&lt;span style=&quot;color: rgb(255, 255, 255); text-align: left; text-wrap: wrap;&quot;&gt;FMKSRL_SERIAL_TYPE_USART&lt;/span&gt;" style="text;html=1;align=center;verticalAlign=middle;resizable=0;points=[];autosize=1;strokeColor=none;fillColor=none;fontFamily=Helvetica;fontSize=12;fontColor=#000000;" vertex="1" parent="1">
          <mxGeometry x="355" y="-740" width="210" height="30" as="geometry" />
        </mxCell>
        <mxCell id="lRzako2REo_N3NTDfEsi-1" value="&lt;span style=&quot;color: rgb(0, 0, 0);&quot;&gt;f_SerialInfo_ps&lt;/span&gt;.RunOpe_e = f_SerialCfg_s.RunMode_e" style="rounded=1;whiteSpace=wrap;html=1;fillColor=#f5f5f5;fontColor=#333333;strokeColor=#666666;" vertex="1" parent="1">
          <mxGeometry x="174" y="-490" width="478.5" height="40" as="geometry" />
        </mxCell>
        <mxCell id="lRzako2REo_N3NTDfEsi-5" value="&lt;span style=&quot;color: rgb(0, 0, 0);&quot;&gt;f_SerialInfo_ps&lt;/span&gt;.FifoOpe_e = f_SerialCfg_s.FifoMode_e" style="rounded=1;whiteSpace=wrap;html=1;fillColor=#f5f5f5;fontColor=#333333;strokeColor=#666666;" vertex="1" parent="1">
          <mxGeometry x="174" y="-450" width="478.5" height="40" as="geometry" />
        </mxCell>
        <mxCell id="s-cHDFCxEtI5B_qJZAcR-1" style="edgeStyle=orthogonalEdgeStyle;rounded=0;orthogonalLoop=1;jettySize=auto;html=1;exitX=0.5;exitY=1;exitDx=0;exitDy=0;entryX=0.5;entryY=0;entryDx=0;entryDy=0;fontFamily=Helvetica;fontSize=12;fontColor=#000000;" edge="1" parent="1" source="lRzako2REo_N3NTDfEsi-6" target="XFH31S3AzJe8_pmv7-7D-16">
          <mxGeometry relative="1" as="geometry" />
        </mxCell>
        <mxCell id="lRzako2REo_N3NTDfEsi-6" value="&lt;span style=&quot;color: rgb(0, 0, 0);&quot;&gt;f_SerialInfo_ps&lt;/span&gt;.SoType_e= f_SerialCfg_s.SoftwareType_e" style="rounded=1;whiteSpace=wrap;html=1;fillColor=#f5f5f5;fontColor=#333333;strokeColor=#666666;" vertex="1" parent="1">
          <mxGeometry x="174" y="-410" width="478.5" height="40" as="geometry" />
        </mxCell>
      </root>
    </mxGraphModel>
  </diagram>
  <diagram id="yomCFNVZTOeTcdqgIAxW" name="sSetUartBspInit">
    <mxGraphModel dx="3550" dy="3224" grid="1" gridSize="10" guides="1" tooltips="1" connect="1" arrows="1" fold="1" page="1" pageScale="1" pageWidth="827" pageHeight="1169" math="0" shadow="0">
      <root>
        <mxCell id="0" />
        <mxCell id="1" parent="0" />
        <mxCell id="lXt7HCjK94Otay23YOc6-1" value="&lt;span style=&quot;font-size: 12px;&quot;&gt;FMKSRL_SetUartBspSerialInit(&lt;/span&gt;&lt;span style=&quot;font-size: 12px;&quot;&gt;t_sSerialInfo *f_SerialInfo_ps&lt;/span&gt;&lt;span style=&quot;font-size: 12px; background-color: initial;&quot;&gt;&amp;nbsp;,&amp;nbsp;&lt;/span&gt;&lt;span style=&quot;font-size: 12px; background-color: initial;&quot;&gt;&amp;nbsp;&lt;/span&gt;&lt;span style=&quot;font-size: 12px;&quot;&gt;t_sFMKSRL_UartCfgSpec&amp;nbsp;&lt;/span&gt;&lt;span style=&quot;font-size: 12px; text-align: left; text-wrap: nowrap; background-color: initial;&quot;&gt;f_UartCfg_s,&amp;nbsp;&lt;/span&gt;&lt;span style=&quot;font-size: 12px;&quot;&gt;t_sFMKSRL_HwProtocolCfg&amp;nbsp;f_HwProt_s&lt;/span&gt;&lt;span style=&quot;font-size: 12px; background-color: initial;&quot;&gt;)&lt;/span&gt;" style="rounded=0;whiteSpace=wrap;html=1;fillColor=#647687;fontColor=#000000;strokeColor=#314354;fontSize=14;" vertex="1" parent="1">
          <mxGeometry x="34" y="-1169" width="760" height="60" as="geometry" />
        </mxCell>
        <mxCell id="GN4bTAueQZZgrE8zGkde-2" style="edgeStyle=orthogonalEdgeStyle;rounded=0;orthogonalLoop=1;jettySize=auto;html=1;exitX=0.5;exitY=1;exitDx=0;exitDy=0;entryX=0.5;entryY=0;entryDx=0;entryDy=0;fontFamily=Helvetica;fontSize=12;fontColor=#000000;" edge="1" parent="1" source="jIR30fmAdyp9ZLcSaezu-1" target="GN4bTAueQZZgrE8zGkde-1">
          <mxGeometry relative="1" as="geometry" />
        </mxCell>
        <mxCell id="jIR30fmAdyp9ZLcSaezu-1" value="Start" style="ellipse;whiteSpace=wrap;html=1;aspect=fixed;fillColor=#f5f5f5;fontColor=#333333;strokeColor=#666666;" vertex="1" parent="1">
          <mxGeometry x="374" y="-1090" width="80" height="80" as="geometry" />
        </mxCell>
        <mxCell id="jIR30fmAdyp9ZLcSaezu-2" value="End" style="ellipse;whiteSpace=wrap;html=1;aspect=fixed;fillColor=#f5f5f5;fontColor=#333333;strokeColor=#666666;" vertex="1" parent="1">
          <mxGeometry x="361.01" y="1160" width="80" height="80" as="geometry" />
        </mxCell>
        <mxCell id="GN4bTAueQZZgrE8zGkde-4" style="edgeStyle=orthogonalEdgeStyle;rounded=0;orthogonalLoop=1;jettySize=auto;html=1;exitX=0.5;exitY=1;exitDx=0;exitDy=0;entryX=0.5;entryY=0;entryDx=0;entryDy=0;fontFamily=Helvetica;fontSize=12;fontColor=#000000;" edge="1" parent="1" source="GN4bTAueQZZgrE8zGkde-1" target="GN4bTAueQZZgrE8zGkde-3">
          <mxGeometry relative="1" as="geometry" />
        </mxCell>
        <mxCell id="GN4bTAueQZZgrE8zGkde-1" value="s_FMKSRL_BspLineBaudrate(f_SerialCfg_s.HwCfg_s.LineBaudrate_e, &amp;amp;bspBaudrate_u32)" style="rounded=1;whiteSpace=wrap;html=1;fillColor=#f5f5f5;fontColor=#333333;strokeColor=#666666;" vertex="1" parent="1">
          <mxGeometry x="174.75" y="-960" width="478.5" height="40" as="geometry" />
        </mxCell>
        <mxCell id="GN4bTAueQZZgrE8zGkde-7" style="edgeStyle=orthogonalEdgeStyle;rounded=0;orthogonalLoop=1;jettySize=auto;html=1;exitX=0.5;exitY=1;exitDx=0;exitDy=0;fontFamily=Helvetica;fontSize=12;fontColor=#000000;" edge="1" parent="1" source="GN4bTAueQZZgrE8zGkde-3" target="GN4bTAueQZZgrE8zGkde-5">
          <mxGeometry relative="1" as="geometry" />
        </mxCell>
        <mxCell id="GN4bTAueQZZgrE8zGkde-3" value="s_FMKSRL_BspLineStopBit(&lt;span style=&quot;color: rgb(0, 0, 0);&quot;&gt;f_HwProt_s&lt;/span&gt;.StopBit_e, &amp;amp;bspStopBit_u32)" style="rounded=1;whiteSpace=wrap;html=1;fillColor=#f5f5f5;fontColor=#333333;strokeColor=#666666;" vertex="1" parent="1">
          <mxGeometry x="174" y="-870" width="478.5" height="40" as="geometry" />
        </mxCell>
        <mxCell id="GN4bTAueQZZgrE8zGkde-8" style="edgeStyle=orthogonalEdgeStyle;rounded=0;orthogonalLoop=1;jettySize=auto;html=1;exitX=0.5;exitY=1;exitDx=0;exitDy=0;fontFamily=Helvetica;fontSize=12;fontColor=#000000;" edge="1" parent="1" source="GN4bTAueQZZgrE8zGkde-5" target="GN4bTAueQZZgrE8zGkde-6">
          <mxGeometry relative="1" as="geometry" />
        </mxCell>
        <mxCell id="GN4bTAueQZZgrE8zGkde-5" value="s_FMKSRL_BspLineParity(&lt;span style=&quot;color: rgb(0, 0, 0);&quot;&gt;f_HwProt_s&lt;/span&gt;.Parity_e, &amp;amp;bspParity_u32)" style="rounded=1;whiteSpace=wrap;html=1;fillColor=#f5f5f5;fontColor=#333333;strokeColor=#666666;" vertex="1" parent="1">
          <mxGeometry x="174.75" y="-780" width="478.5" height="40" as="geometry" />
        </mxCell>
        <mxCell id="zLAcsJLvWavrFQCbjqcj-2" style="edgeStyle=orthogonalEdgeStyle;rounded=0;orthogonalLoop=1;jettySize=auto;html=1;exitX=0.5;exitY=1;exitDx=0;exitDy=0;entryX=0.5;entryY=0;entryDx=0;entryDy=0;fontFamily=Helvetica;fontSize=12;fontColor=#000000;" edge="1" parent="1" source="GN4bTAueQZZgrE8zGkde-6" target="zLAcsJLvWavrFQCbjqcj-1">
          <mxGeometry relative="1" as="geometry">
            <Array as="points">
              <mxPoint x="414" y="-620" />
              <mxPoint x="414" y="-620" />
            </Array>
          </mxGeometry>
        </mxCell>
        <mxCell id="GN4bTAueQZZgrE8zGkde-6" value="s_FMKSRL_BspLineMode(&lt;span style=&quot;color: rgb(0, 0, 0);&quot;&gt;f_HwProt_s&lt;/span&gt;.Mod_e, &amp;amp;bspMode_u32)" style="rounded=1;whiteSpace=wrap;html=1;fillColor=#f5f5f5;fontColor=#333333;strokeColor=#666666;" vertex="1" parent="1">
          <mxGeometry x="174.75" y="-690" width="478.5" height="40" as="geometry" />
        </mxCell>
        <mxCell id="HuvE2M0bHCaeKl9rhI56-4" style="edgeStyle=orthogonalEdgeStyle;rounded=0;orthogonalLoop=1;jettySize=auto;html=1;exitX=0.5;exitY=1;exitDx=0;exitDy=0;entryX=0.5;entryY=0;entryDx=0;entryDy=0;fontFamily=Helvetica;fontSize=12;fontColor=#000000;" edge="1" parent="1" source="HuvE2M0bHCaeKl9rhI56-1" target="HuvE2M0bHCaeKl9rhI56-3">
          <mxGeometry relative="1" as="geometry" />
        </mxCell>
        <mxCell id="HuvE2M0bHCaeKl9rhI56-5" value="Yes" style="edgeLabel;html=1;align=center;verticalAlign=middle;resizable=0;points=[];strokeColor=#6c8ebf;spacingLeft=4;spacingRight=4;fontFamily=Helvetica;fontSize=12;fontColor=#FFFFFF;fillColor=#dae8fc;gradientColor=#7ea6e0;" vertex="1" connectable="0" parent="HuvE2M0bHCaeKl9rhI56-4">
          <mxGeometry x="-0.0128" y="-1" relative="1" as="geometry">
            <mxPoint x="-1" y="-1" as="offset" />
          </mxGeometry>
        </mxCell>
        <mxCell id="HuvE2M0bHCaeKl9rhI56-15" style="edgeStyle=orthogonalEdgeStyle;rounded=0;orthogonalLoop=1;jettySize=auto;html=1;exitX=0;exitY=0.5;exitDx=0;exitDy=0;entryX=0;entryY=0.5;entryDx=0;entryDy=0;fontFamily=Helvetica;fontSize=12;fontColor=#000000;" edge="1" parent="1" source="HuvE2M0bHCaeKl9rhI56-1" target="HuvE2M0bHCaeKl9rhI56-13">
          <mxGeometry relative="1" as="geometry">
            <Array as="points">
              <mxPoint x="130" y="-466" />
              <mxPoint x="130" y="-150" />
            </Array>
          </mxGeometry>
        </mxCell>
        <mxCell id="HuvE2M0bHCaeKl9rhI56-16" value="NO" style="edgeLabel;html=1;align=center;verticalAlign=middle;resizable=0;points=[];strokeColor=#6c8ebf;spacingLeft=4;spacingRight=4;fontFamily=Helvetica;fontSize=12;fontColor=#FFFFFF;fillColor=#dae8fc;gradientColor=#7ea6e0;" vertex="1" connectable="0" parent="HuvE2M0bHCaeKl9rhI56-15">
          <mxGeometry x="-0.7568" y="2" relative="1" as="geometry">
            <mxPoint as="offset" />
          </mxGeometry>
        </mxCell>
        <mxCell id="HuvE2M0bHCaeKl9rhI56-1" value="#ifdef STM32G_FAMILY" style="shape=hexagon;perimeter=hexagonPerimeter2;whiteSpace=wrap;html=1;fixedSize=1;fillColor=#f5f5f5;fontColor=#333333;strokeColor=#666666;" vertex="1" parent="1">
          <mxGeometry x="235.74999999999997" y="-481.34000000000003" width="355" height="30" as="geometry" />
        </mxCell>
        <mxCell id="HuvE2M0bHCaeKl9rhI56-14" style="edgeStyle=orthogonalEdgeStyle;rounded=0;orthogonalLoop=1;jettySize=auto;html=1;exitX=0.5;exitY=1;exitDx=0;exitDy=0;entryX=0.5;entryY=0;entryDx=0;entryDy=0;fontFamily=Helvetica;fontSize=12;fontColor=#000000;" edge="1" parent="1" source="HuvE2M0bHCaeKl9rhI56-3" target="HuvE2M0bHCaeKl9rhI56-13">
          <mxGeometry relative="1" as="geometry" />
        </mxCell>
        <mxCell id="HuvE2M0bHCaeKl9rhI56-17" value="&lt;font color=&quot;#ffffff&quot;&gt;OK&lt;/font&gt;" style="edgeLabel;html=1;align=center;verticalAlign=middle;resizable=0;points=[];strokeColor=#6c8ebf;spacingLeft=4;spacingRight=4;fontFamily=Helvetica;fontSize=12;fontColor=#000000;fillColor=#dae8fc;gradientColor=#7ea6e0;" vertex="1" connectable="0" parent="HuvE2M0bHCaeKl9rhI56-14">
          <mxGeometry x="0.0111" y="2" relative="1" as="geometry">
            <mxPoint as="offset" />
          </mxGeometry>
        </mxCell>
        <mxCell id="-aBxDPd2vC13VFTJgOzT-2" value="&lt;font color=&quot;#ffffff&quot;&gt;OK&lt;/font&gt;" style="edgeLabel;html=1;align=center;verticalAlign=middle;resizable=0;points=[];strokeColor=#6c8ebf;spacingLeft=4;spacingRight=4;fontFamily=Helvetica;fontSize=12;fontColor=#000000;fillColor=#dae8fc;gradientColor=#7ea6e0;" vertex="1" connectable="0" parent="HuvE2M0bHCaeKl9rhI56-14">
          <mxGeometry x="-0.7665" relative="1" as="geometry">
            <mxPoint as="offset" />
          </mxGeometry>
        </mxCell>
        <mxCell id="HuvE2M0bHCaeKl9rhI56-3" value="s_FMKSRL_BspLineHwFlowCtrl(f_SerialCfg_s.HwCfg_s.HwFlowCtrl_e, &amp;amp;bspHwFlowCtrl_u32)" style="rounded=1;whiteSpace=wrap;html=1;fillColor=#f5f5f5;fontColor=#333333;strokeColor=#666666;" vertex="1" parent="1">
          <mxGeometry x="174.75" y="-420.00000000000006" width="478.5" height="40" as="geometry" />
        </mxCell>
        <mxCell id="HuvE2M0bHCaeKl9rhI56-7" value="&lt;span style=&quot;color: rgb(255, 255, 255);&quot;&gt;OK&lt;/span&gt;" style="edgeLabel;html=1;align=center;verticalAlign=middle;resizable=0;points=[];strokeColor=#6c8ebf;spacingLeft=4;spacingRight=4;fontFamily=Helvetica;fontSize=12;fontColor=#000000;fillColor=#dae8fc;gradientColor=#7ea6e0;" vertex="1" connectable="0" parent="1">
          <mxGeometry x="413.25" y="-519.9966666666669" as="geometry">
            <mxPoint x="3" y="-96" as="offset" />
          </mxGeometry>
        </mxCell>
        <mxCell id="HuvE2M0bHCaeKl9rhI56-9" value="&lt;span style=&quot;color: rgb(255, 255, 255);&quot;&gt;OK&lt;/span&gt;" style="edgeLabel;html=1;align=center;verticalAlign=middle;resizable=0;points=[];strokeColor=#6c8ebf;spacingLeft=4;spacingRight=4;fontFamily=Helvetica;fontSize=12;fontColor=#000000;fillColor=#dae8fc;gradientColor=#7ea6e0;" vertex="1" connectable="0" parent="1">
          <mxGeometry x="414.0013784419158" y="-890.001337126369" as="geometry" />
        </mxCell>
        <mxCell id="HuvE2M0bHCaeKl9rhI56-10" value="&lt;span style=&quot;color: rgb(255, 255, 255);&quot;&gt;OK&lt;/span&gt;" style="edgeLabel;html=1;align=center;verticalAlign=middle;resizable=0;points=[];strokeColor=#6c8ebf;spacingLeft=4;spacingRight=4;fontFamily=Helvetica;fontSize=12;fontColor=#000000;fillColor=#dae8fc;gradientColor=#7ea6e0;" vertex="1" connectable="0" parent="1">
          <mxGeometry x="441.0113784419158" y="-510.0013371263691" as="geometry">
            <mxPoint x="-32" y="-210" as="offset" />
          </mxGeometry>
        </mxCell>
        <mxCell id="HuvE2M0bHCaeKl9rhI56-13" value="&lt;span style=&quot;color: rgb(0, 0, 0);&quot;&gt;f_SerialInfo_ps&lt;/span&gt;&lt;span style=&quot;color: rgb(0, 0, 0); background-color: initial;&quot;&gt;&amp;nbsp;&lt;/span&gt;&lt;span style=&quot;color: rgb(0, 0, 0);&quot;&gt;-&amp;gt;bspIsct_u.uart_s&lt;/span&gt;.Baudrate = bspBaudrate_u32" style="rounded=1;whiteSpace=wrap;html=1;fillColor=#f5f5f5;fontColor=#333333;strokeColor=#666666;" vertex="1" parent="1">
          <mxGeometry x="162.75" y="-170.00000000000003" width="501" height="40" as="geometry" />
        </mxCell>
        <mxCell id="HuvE2M0bHCaeKl9rhI56-18" value="&lt;span style=&quot;color: rgb(0, 0, 0);&quot;&gt;f_SerialInfo_ps&lt;/span&gt;&lt;span style=&quot;background-color: initial; color: rgb(0, 0, 0);&quot;&gt;&amp;nbsp;&lt;/span&gt;&lt;span style=&quot;color: rgb(0, 0, 0);&quot;&gt;-&amp;gt;bspIsct_u.uart_s&lt;/span&gt;.WordLenght= WordLenght_32" style="rounded=1;whiteSpace=wrap;html=1;fillColor=#f5f5f5;fontColor=#333333;strokeColor=#666666;" vertex="1" parent="1">
          <mxGeometry x="163.5" y="-130.00000000000003" width="501" height="40" as="geometry" />
        </mxCell>
        <mxCell id="HuvE2M0bHCaeKl9rhI56-19" value="&lt;span style=&quot;color: rgb(0, 0, 0);&quot;&gt;f_SerialInfo_ps&lt;/span&gt;&lt;span style=&quot;background-color: initial; color: rgb(0, 0, 0);&quot;&gt;&amp;nbsp;&lt;/span&gt;&lt;span style=&quot;color: rgb(0, 0, 0);&quot;&gt;-&amp;gt;bspIsct_u.uart_s&lt;/span&gt;.StopBit= bspStopbit_32" style="rounded=1;whiteSpace=wrap;html=1;fillColor=#f5f5f5;fontColor=#333333;strokeColor=#666666;" vertex="1" parent="1">
          <mxGeometry x="162.75" y="-90" width="501" height="40" as="geometry" />
        </mxCell>
        <mxCell id="zLAcsJLvWavrFQCbjqcj-10" style="edgeStyle=orthogonalEdgeStyle;rounded=0;orthogonalLoop=1;jettySize=auto;html=1;exitX=0.5;exitY=1;exitDx=0;exitDy=0;entryX=0.5;entryY=0;entryDx=0;entryDy=0;fontFamily=Helvetica;fontSize=12;fontColor=#000000;" edge="1" parent="1" source="HuvE2M0bHCaeKl9rhI56-20" target="zLAcsJLvWavrFQCbjqcj-7">
          <mxGeometry relative="1" as="geometry" />
        </mxCell>
        <mxCell id="HuvE2M0bHCaeKl9rhI56-20" value="&lt;span style=&quot;color: rgb(0, 0, 0);&quot;&gt;f_SerialInfo_ps&lt;/span&gt;&lt;span style=&quot;background-color: initial; color: rgb(0, 0, 0);&quot;&gt;&amp;nbsp;&lt;/span&gt;&lt;span style=&quot;color: rgb(0, 0, 0);&quot;&gt;-&amp;gt;bspIsct_u.uart_s&lt;/span&gt;.Mode = bspMode_u32" style="rounded=1;whiteSpace=wrap;html=1;fillColor=#f5f5f5;fontColor=#333333;strokeColor=#666666;" vertex="1" parent="1">
          <mxGeometry x="162.75" y="-10" width="501" height="40" as="geometry" />
        </mxCell>
        <mxCell id="HuvE2M0bHCaeKl9rhI56-21" value="&lt;span style=&quot;color: rgb(0, 0, 0);&quot;&gt;f_SerialInfo_ps&lt;/span&gt;&lt;span style=&quot;background-color: initial; color: rgb(0, 0, 0);&quot;&gt;&amp;nbsp;&lt;/span&gt;&lt;span style=&quot;color: rgb(0, 0, 0);&quot;&gt;-&amp;gt;bspIsct_u.uart_s&lt;/span&gt;.Parity= bspParity_u32" style="rounded=1;whiteSpace=wrap;html=1;fillColor=#f5f5f5;fontColor=#333333;strokeColor=#666666;" vertex="1" parent="1">
          <mxGeometry x="162.75" y="-50" width="501" height="40" as="geometry" />
        </mxCell>
        <mxCell id="zLAcsJLvWavrFQCbjqcj-3" style="edgeStyle=orthogonalEdgeStyle;rounded=0;orthogonalLoop=1;jettySize=auto;html=1;exitX=0.5;exitY=1;exitDx=0;exitDy=0;entryX=0.5;entryY=0;entryDx=0;entryDy=0;fontFamily=Helvetica;fontSize=12;fontColor=#000000;" edge="1" parent="1" source="zLAcsJLvWavrFQCbjqcj-1" target="HuvE2M0bHCaeKl9rhI56-1">
          <mxGeometry relative="1" as="geometry" />
        </mxCell>
        <mxCell id="zLAcsJLvWavrFQCbjqcj-1" value="s_FMKSRL_BspWordLenght(&lt;span style=&quot;color: rgb(0, 0, 0);&quot;&gt;f_HwProt_s&lt;/span&gt;.WordLen_e, &amp;amp;bspWordLen_u32)" style="rounded=1;whiteSpace=wrap;html=1;fillColor=#f5f5f5;fontColor=#333333;strokeColor=#666666;" vertex="1" parent="1">
          <mxGeometry x="174.75" y="-584" width="478.5" height="40" as="geometry" />
        </mxCell>
        <mxCell id="zLAcsJLvWavrFQCbjqcj-4" value="&lt;span style=&quot;color: rgb(255, 255, 255);&quot;&gt;OK&lt;/span&gt;" style="edgeLabel;html=1;align=center;verticalAlign=middle;resizable=0;points=[];strokeColor=#6c8ebf;spacingLeft=4;spacingRight=4;fontFamily=Helvetica;fontSize=12;fontColor=#000000;fillColor=#dae8fc;gradientColor=#7ea6e0;" vertex="1" connectable="0" parent="1">
          <mxGeometry x="413.25" y="-419.9966666666669" as="geometry">
            <mxPoint x="3" y="-96" as="offset" />
          </mxGeometry>
        </mxCell>
        <mxCell id="zLAcsJLvWavrFQCbjqcj-5" value="Yes" style="edgeLabel;html=1;align=center;verticalAlign=middle;resizable=0;points=[];strokeColor=#6c8ebf;spacingLeft=4;spacingRight=4;fontFamily=Helvetica;fontSize=12;fontColor=#FFFFFF;fillColor=#dae8fc;gradientColor=#7ea6e0;" vertex="1" connectable="0" parent="1">
          <mxGeometry x="413.2481722766065" y="157.33727272727276" as="geometry" />
        </mxCell>
        <mxCell id="zLAcsJLvWavrFQCbjqcj-12" style="edgeStyle=orthogonalEdgeStyle;rounded=0;orthogonalLoop=1;jettySize=auto;html=1;exitX=0.5;exitY=1;exitDx=0;exitDy=0;entryX=0.5;entryY=0;entryDx=0;entryDy=0;fontFamily=Helvetica;fontSize=12;fontColor=#000000;" edge="1" parent="1" source="zLAcsJLvWavrFQCbjqcj-7" target="zLAcsJLvWavrFQCbjqcj-11">
          <mxGeometry relative="1" as="geometry" />
        </mxCell>
        <mxCell id="zLAcsJLvWavrFQCbjqcj-7" value="#ifdef STM32G_FAMILY" style="shape=hexagon;perimeter=hexagonPerimeter2;whiteSpace=wrap;html=1;fixedSize=1;fillColor=#f5f5f5;fontColor=#333333;strokeColor=#666666;" vertex="1" parent="1">
          <mxGeometry x="235.74999999999994" y="87.33999999999997" width="355" height="30" as="geometry" />
        </mxCell>
        <mxCell id="zLAcsJLvWavrFQCbjqcj-11" value="&lt;span style=&quot;color: rgb(0, 0, 0);&quot;&gt;f_BspSerial_pu -&amp;gt;uart_s&lt;/span&gt;.HwFlowCtrl= bspHwFlowCtrl_u32" style="rounded=1;whiteSpace=wrap;html=1;fillColor=#f5f5f5;fontColor=#333333;strokeColor=#666666;" vertex="1" parent="1">
          <mxGeometry x="163.5" y="197.34" width="501" height="40" as="geometry" />
        </mxCell>
        <mxCell id="-aBxDPd2vC13VFTJgOzT-1" value="s_FMKSRL_SetAdvanceCfg(f_Serial,&amp;nbsp;&lt;span style=&quot;color: rgb(0, 0, 0); text-align: left; text-wrap: nowrap;&quot;&gt;f_UartCfg_s.AdvCfg_s&lt;/span&gt;)" style="rounded=1;whiteSpace=wrap;html=1;fillColor=#f5f5f5;fontColor=#333333;strokeColor=#666666;" vertex="1" parent="1">
          <mxGeometry x="174" y="-330.00000000000006" width="478.5" height="40" as="geometry" />
        </mxCell>
        <mxCell id="EddWmu6kfJGMCsHsurFq-1" style="edgeStyle=orthogonalEdgeStyle;rounded=0;orthogonalLoop=1;jettySize=auto;html=1;exitX=0;exitY=1;exitDx=0;exitDy=0;entryX=0.5;entryY=0;entryDx=0;entryDy=0;fontFamily=Helvetica;fontSize=12;fontColor=#000000;" edge="1" parent="1" source="EddWmu6kfJGMCsHsurFq-5" target="EddWmu6kfJGMCsHsurFq-7">
          <mxGeometry relative="1" as="geometry">
            <Array as="points">
              <mxPoint x="175" y="460" />
              <mxPoint x="555" y="460" />
            </Array>
            <mxPoint x="554.75" y="490" as="targetPoint" />
          </mxGeometry>
        </mxCell>
        <mxCell id="EddWmu6kfJGMCsHsurFq-2" style="edgeStyle=orthogonalEdgeStyle;rounded=0;orthogonalLoop=1;jettySize=auto;html=1;exitX=0;exitY=1;exitDx=0;exitDy=0;entryX=0.5;entryY=0;entryDx=0;entryDy=0;fontFamily=Helvetica;fontSize=12;fontColor=#000000;" edge="1" parent="1" source="EddWmu6kfJGMCsHsurFq-5" target="EddWmu6kfJGMCsHsurFq-10">
          <mxGeometry relative="1" as="geometry">
            <Array as="points">
              <mxPoint x="175" y="620" />
              <mxPoint x="560" y="620" />
              <mxPoint x="560" y="665" />
            </Array>
            <mxPoint x="559.25" y="665" as="targetPoint" />
          </mxGeometry>
        </mxCell>
        <mxCell id="EddWmu6kfJGMCsHsurFq-3" style="edgeStyle=orthogonalEdgeStyle;rounded=0;orthogonalLoop=1;jettySize=auto;html=1;exitX=0;exitY=1;exitDx=0;exitDy=0;entryX=0.5;entryY=0;entryDx=0;entryDy=0;fontFamily=Helvetica;fontSize=12;fontColor=#000000;" edge="1" parent="1" source="EddWmu6kfJGMCsHsurFq-5" target="EddWmu6kfJGMCsHsurFq-14">
          <mxGeometry relative="1" as="geometry">
            <Array as="points">
              <mxPoint x="175" y="810" />
              <mxPoint x="559" y="810" />
            </Array>
            <mxPoint x="559.25" y="850" as="targetPoint" />
          </mxGeometry>
        </mxCell>
        <mxCell id="EddWmu6kfJGMCsHsurFq-21" style="edgeStyle=orthogonalEdgeStyle;rounded=0;orthogonalLoop=1;jettySize=auto;html=1;exitX=0;exitY=1;exitDx=0;exitDy=0;entryX=0.5;entryY=0;entryDx=0;entryDy=0;fontFamily=Helvetica;fontSize=12;fontColor=#000000;" edge="1" parent="1" source="EddWmu6kfJGMCsHsurFq-5" target="EddWmu6kfJGMCsHsurFq-20">
          <mxGeometry relative="1" as="geometry">
            <Array as="points">
              <mxPoint x="175" y="990" />
              <mxPoint x="559" y="990" />
            </Array>
          </mxGeometry>
        </mxCell>
        <mxCell id="EddWmu6kfJGMCsHsurFq-5" value="switch f_SerialCfg_SoftLineMode_e" style="rounded=1;whiteSpace=wrap;html=1;fillColor=#f5f5f5;fontColor=#333333;strokeColor=#666666;" vertex="1" parent="1">
          <mxGeometry x="174.75" y="350" width="478.5" height="40" as="geometry" />
        </mxCell>
        <mxCell id="EddWmu6kfJGMCsHsurFq-7" value="HAL_UART_Init(&lt;span style=&quot;color: rgb(0, 0, 0);&quot;&gt;f_SerialInfo_ps&lt;/span&gt;&lt;span style=&quot;background-color: initial; color: rgb(0, 0, 0);&quot;&gt;&amp;nbsp;&lt;/span&gt;&lt;span style=&quot;color: rgb(0, 0, 0);&quot;&gt;-&amp;gt;bspIsct_u&lt;/span&gt;)" style="rounded=1;whiteSpace=wrap;html=1;fillColor=#f5f5f5;fontColor=#333333;strokeColor=#666666;" vertex="1" parent="1">
          <mxGeometry x="315.5" y="530" width="478.5" height="40" as="geometry" />
        </mxCell>
        <mxCell id="EddWmu6kfJGMCsHsurFq-8" value="&lt;span style=&quot;color: rgb(255, 255, 255); text-align: left; text-wrap: wrap;&quot;&gt;FMKSRL_UART_TYPE_UART&lt;/span&gt;" style="text;html=1;align=center;verticalAlign=middle;resizable=0;points=[];autosize=1;strokeColor=none;fillColor=none;fontFamily=Helvetica;fontSize=12;fontColor=#000000;" vertex="1" parent="1">
          <mxGeometry x="345.5" y="430" width="190" height="30" as="geometry" />
        </mxCell>
        <mxCell id="EddWmu6kfJGMCsHsurFq-10" value="HAL_HalfFuplex_Init(&lt;span style=&quot;color: rgb(0, 0, 0);&quot;&gt;f_SerialInfo_ps&lt;/span&gt;&lt;span style=&quot;background-color: initial; color: rgb(0, 0, 0);&quot;&gt;&amp;nbsp;&lt;/span&gt;&lt;span style=&quot;color: rgb(0, 0, 0);&quot;&gt;-&amp;gt;bspIsct_u&lt;/span&gt;)" style="rounded=1;whiteSpace=wrap;html=1;fillColor=#f5f5f5;fontColor=#333333;strokeColor=#666666;" vertex="1" parent="1">
          <mxGeometry x="320" y="705" width="478.5" height="40" as="geometry" />
        </mxCell>
        <mxCell id="EddWmu6kfJGMCsHsurFq-11" value="&lt;span style=&quot;color: rgb(255, 255, 255); text-align: left; text-wrap: wrap;&quot;&gt;FMKSRL_UART&lt;/span&gt;&lt;span style=&quot;text-align: left; text-wrap: wrap;&quot;&gt;&lt;font color=&quot;#ffffff&quot;&gt;_TYPE_HALF_DUPLEX&lt;/font&gt;&lt;/span&gt;" style="text;html=1;align=center;verticalAlign=middle;resizable=0;points=[];autosize=1;strokeColor=none;fillColor=none;fontFamily=Helvetica;fontSize=12;fontColor=#000000;" vertex="1" parent="1">
          <mxGeometry x="320.5" y="590" width="240" height="30" as="geometry" />
        </mxCell>
        <mxCell id="EddWmu6kfJGMCsHsurFq-12" value="&lt;span style=&quot;color: rgb(255, 255, 255); text-align: left; text-wrap: wrap;&quot;&gt;FMKSRL_UART&lt;/span&gt;&lt;span style=&quot;text-align: left; text-wrap: wrap;&quot;&gt;&lt;font color=&quot;#ffffff&quot;&gt;_TYPE_LIN&lt;/font&gt;&lt;/span&gt;" style="text;html=1;align=center;verticalAlign=middle;resizable=0;points=[];autosize=1;strokeColor=none;fillColor=none;fontFamily=Helvetica;fontSize=12;fontColor=#000000;" vertex="1" parent="1">
          <mxGeometry x="355.5" y="780" width="170" height="30" as="geometry" />
        </mxCell>
        <mxCell id="EddWmu6kfJGMCsHsurFq-14" value="HAL_LIN_Init(&lt;span style=&quot;color: rgb(0, 0, 0);&quot;&gt;f_SerialInfo_ps&lt;/span&gt;&lt;span style=&quot;background-color: initial; color: rgb(0, 0, 0);&quot;&gt;&amp;nbsp;&lt;/span&gt;&lt;span style=&quot;color: rgb(0, 0, 0);&quot;&gt;-&amp;gt;bspIsct_u&lt;/span&gt;)" style="rounded=1;whiteSpace=wrap;html=1;fillColor=#f5f5f5;fontColor=#333333;strokeColor=#666666;" vertex="1" parent="1">
          <mxGeometry x="320" y="890" width="478.5" height="40" as="geometry" />
        </mxCell>
        <mxCell id="EddWmu6kfJGMCsHsurFq-19" value="&lt;span style=&quot;color: rgb(255, 255, 255); text-align: left; text-wrap: wrap;&quot;&gt;FMKSRL_UART&lt;/span&gt;&lt;span style=&quot;text-align: left; text-wrap: wrap;&quot;&gt;&lt;font color=&quot;#ffffff&quot;&gt;_TYPE_MULTI_PROC&lt;/font&gt;&lt;/span&gt;" style="text;html=1;align=center;verticalAlign=middle;resizable=0;points=[];autosize=1;strokeColor=none;fillColor=none;fontFamily=Helvetica;fontSize=12;fontColor=#000000;" vertex="1" parent="1">
          <mxGeometry x="315" y="960" width="230" height="30" as="geometry" />
        </mxCell>
        <mxCell id="EddWmu6kfJGMCsHsurFq-22" style="edgeStyle=orthogonalEdgeStyle;rounded=0;orthogonalLoop=1;jettySize=auto;html=1;exitX=0.5;exitY=1;exitDx=0;exitDy=0;entryX=0.5;entryY=0;entryDx=0;entryDy=0;fontFamily=Helvetica;fontSize=12;fontColor=#000000;" edge="1" parent="1" source="EddWmu6kfJGMCsHsurFq-20" target="jIR30fmAdyp9ZLcSaezu-2">
          <mxGeometry relative="1" as="geometry" />
        </mxCell>
        <mxCell id="EddWmu6kfJGMCsHsurFq-20" value="HAL_MultiProcessor_Init(&lt;span style=&quot;color: rgb(0, 0, 0);&quot;&gt;f_SerialInfo_ps&lt;/span&gt;&lt;span style=&quot;background-color: initial; color: rgb(0, 0, 0);&quot;&gt;&amp;nbsp;&lt;/span&gt;&lt;span style=&quot;color: rgb(0, 0, 0);&quot;&gt;-&amp;gt;bspIsct_u&lt;/span&gt;)" style="rounded=1;whiteSpace=wrap;html=1;fillColor=#f5f5f5;fontColor=#333333;strokeColor=#666666;" vertex="1" parent="1">
          <mxGeometry x="320" y="1040" width="478.5" height="40" as="geometry" />
        </mxCell>
      </root>
    </mxGraphModel>
  </diagram>
  <diagram name="sSetUsartBspInit" id="N8xhLyUIE-0qy2mrLAgS">
    <mxGraphModel dx="1136" dy="1827" grid="1" gridSize="10" guides="1" tooltips="1" connect="1" arrows="1" fold="1" page="1" pageScale="1" pageWidth="827" pageHeight="1169" math="0" shadow="0">
      <root>
        <mxCell id="ZrDVfHAGlsQ_2rUeivIh-0" />
        <mxCell id="ZrDVfHAGlsQ_2rUeivIh-1" parent="ZrDVfHAGlsQ_2rUeivIh-0" />
        <mxCell id="ZrDVfHAGlsQ_2rUeivIh-2" value="&lt;span style=&quot;font-size: 12px;&quot;&gt;FMKSRL_SetUsartBspSerialInit(&lt;/span&gt;&lt;span style=&quot;font-size: 12px;&quot;&gt;t_sSerialInfo *f_SerialInfo_ps&lt;/span&gt;&lt;span style=&quot;background-color: initial; font-size: 12px;&quot;&gt;&amp;nbsp;,&amp;nbsp;&lt;/span&gt;&lt;span style=&quot;background-color: initial; font-size: 12px;&quot;&gt;&amp;nbsp;&lt;/span&gt;&lt;span style=&quot;font-size: 12px;&quot;&gt;t_sFMKSRL_UsartCfgSpec&amp;nbsp;&lt;/span&gt;&lt;span style=&quot;text-wrap: nowrap; background-color: initial; font-size: 12px; text-align: left;&quot;&gt;f_UsartCfg_s,&amp;nbsp;&lt;/span&gt;&lt;span style=&quot;font-size: 12px;&quot;&gt;t_sFMKSRL_HwProtocolCfg&amp;nbsp;f_HwProt_s&lt;/span&gt;&lt;span style=&quot;background-color: initial; font-size: 12px;&quot;&gt;)&lt;/span&gt;" style="rounded=0;whiteSpace=wrap;html=1;fillColor=#647687;fontColor=#000000;strokeColor=#314354;fontSize=14;" vertex="1" parent="ZrDVfHAGlsQ_2rUeivIh-1">
          <mxGeometry x="34" y="-1169" width="760" height="60" as="geometry" />
        </mxCell>
        <mxCell id="ZrDVfHAGlsQ_2rUeivIh-3" style="edgeStyle=orthogonalEdgeStyle;rounded=0;orthogonalLoop=1;jettySize=auto;html=1;exitX=0.5;exitY=1;exitDx=0;exitDy=0;entryX=0.5;entryY=0;entryDx=0;entryDy=0;fontFamily=Helvetica;fontSize=12;fontColor=#000000;" edge="1" parent="ZrDVfHAGlsQ_2rUeivIh-1" source="ZrDVfHAGlsQ_2rUeivIh-4" target="ZrDVfHAGlsQ_2rUeivIh-7">
          <mxGeometry relative="1" as="geometry" />
        </mxCell>
        <mxCell id="ZrDVfHAGlsQ_2rUeivIh-4" value="Start" style="ellipse;whiteSpace=wrap;html=1;aspect=fixed;fillColor=#f5f5f5;fontColor=#333333;strokeColor=#666666;" vertex="1" parent="ZrDVfHAGlsQ_2rUeivIh-1">
          <mxGeometry x="374" y="-1090" width="80" height="80" as="geometry" />
        </mxCell>
        <mxCell id="ZrDVfHAGlsQ_2rUeivIh-5" value="End" style="ellipse;whiteSpace=wrap;html=1;aspect=fixed;fillColor=#f5f5f5;fontColor=#333333;strokeColor=#666666;" vertex="1" parent="ZrDVfHAGlsQ_2rUeivIh-1">
          <mxGeometry x="360" y="380" width="80" height="80" as="geometry" />
        </mxCell>
        <mxCell id="ZrDVfHAGlsQ_2rUeivIh-6" style="edgeStyle=orthogonalEdgeStyle;rounded=0;orthogonalLoop=1;jettySize=auto;html=1;exitX=0.5;exitY=1;exitDx=0;exitDy=0;entryX=0.5;entryY=0;entryDx=0;entryDy=0;fontFamily=Helvetica;fontSize=12;fontColor=#000000;" edge="1" parent="ZrDVfHAGlsQ_2rUeivIh-1" source="ZrDVfHAGlsQ_2rUeivIh-7" target="ZrDVfHAGlsQ_2rUeivIh-9">
          <mxGeometry relative="1" as="geometry" />
        </mxCell>
        <mxCell id="ZrDVfHAGlsQ_2rUeivIh-7" value="s_FMKSRL_BspLineBaudrate(f_SerialCfg_s.HwCfg_s.LineBaudrate_e, &amp;amp;bspBaudrate_u32)" style="rounded=1;whiteSpace=wrap;html=1;fillColor=#f5f5f5;fontColor=#333333;strokeColor=#666666;" vertex="1" parent="ZrDVfHAGlsQ_2rUeivIh-1">
          <mxGeometry x="174.75" y="-960" width="478.5" height="40" as="geometry" />
        </mxCell>
        <mxCell id="ZrDVfHAGlsQ_2rUeivIh-8" style="edgeStyle=orthogonalEdgeStyle;rounded=0;orthogonalLoop=1;jettySize=auto;html=1;exitX=0.5;exitY=1;exitDx=0;exitDy=0;fontFamily=Helvetica;fontSize=12;fontColor=#000000;" edge="1" parent="ZrDVfHAGlsQ_2rUeivIh-1" source="ZrDVfHAGlsQ_2rUeivIh-9" target="ZrDVfHAGlsQ_2rUeivIh-11">
          <mxGeometry relative="1" as="geometry" />
        </mxCell>
        <mxCell id="ZrDVfHAGlsQ_2rUeivIh-9" value="s_FMKSRL_BspLineStopBit(f_SerialCfg_s.HwCfg_s.StopBit_e, &amp;amp;bspStopBit_u32)" style="rounded=1;whiteSpace=wrap;html=1;fillColor=#f5f5f5;fontColor=#333333;strokeColor=#666666;" vertex="1" parent="ZrDVfHAGlsQ_2rUeivIh-1">
          <mxGeometry x="174" y="-870" width="478.5" height="40" as="geometry" />
        </mxCell>
        <mxCell id="ZrDVfHAGlsQ_2rUeivIh-10" style="edgeStyle=orthogonalEdgeStyle;rounded=0;orthogonalLoop=1;jettySize=auto;html=1;exitX=0.5;exitY=1;exitDx=0;exitDy=0;fontFamily=Helvetica;fontSize=12;fontColor=#000000;" edge="1" parent="ZrDVfHAGlsQ_2rUeivIh-1" source="ZrDVfHAGlsQ_2rUeivIh-11" target="ZrDVfHAGlsQ_2rUeivIh-13">
          <mxGeometry relative="1" as="geometry" />
        </mxCell>
        <mxCell id="ZrDVfHAGlsQ_2rUeivIh-11" value="s_FMKSRL_BspLineParity(f_SerialCfg_s.HwCfg_s.Parity_e, &amp;amp;bspParity_u32)" style="rounded=1;whiteSpace=wrap;html=1;fillColor=#f5f5f5;fontColor=#333333;strokeColor=#666666;" vertex="1" parent="ZrDVfHAGlsQ_2rUeivIh-1">
          <mxGeometry x="174.75" y="-780" width="478.5" height="40" as="geometry" />
        </mxCell>
        <mxCell id="ZrDVfHAGlsQ_2rUeivIh-12" style="edgeStyle=orthogonalEdgeStyle;rounded=0;orthogonalLoop=1;jettySize=auto;html=1;exitX=0.5;exitY=1;exitDx=0;exitDy=0;entryX=0.5;entryY=0;entryDx=0;entryDy=0;fontFamily=Helvetica;fontSize=12;fontColor=#000000;" edge="1" parent="ZrDVfHAGlsQ_2rUeivIh-1" source="ZrDVfHAGlsQ_2rUeivIh-13" target="ZrDVfHAGlsQ_2rUeivIh-32">
          <mxGeometry relative="1" as="geometry">
            <Array as="points">
              <mxPoint x="414" y="-620" />
              <mxPoint x="414" y="-620" />
            </Array>
          </mxGeometry>
        </mxCell>
        <mxCell id="ZrDVfHAGlsQ_2rUeivIh-13" value="s_FMKSRL_BspLineMode(f_SerialCfg_s.HwCfg_s.Mod_e, &amp;amp;bspMode_u32)" style="rounded=1;whiteSpace=wrap;html=1;fillColor=#f5f5f5;fontColor=#333333;strokeColor=#666666;" vertex="1" parent="ZrDVfHAGlsQ_2rUeivIh-1">
          <mxGeometry x="174.75" y="-690" width="478.5" height="40" as="geometry" />
        </mxCell>
        <mxCell id="ZrDVfHAGlsQ_2rUeivIh-22" value="&lt;span style=&quot;color: rgb(255, 255, 255);&quot;&gt;OK&lt;/span&gt;" style="edgeLabel;html=1;align=center;verticalAlign=middle;resizable=0;points=[];strokeColor=#6c8ebf;spacingLeft=4;spacingRight=4;fontFamily=Helvetica;fontSize=12;fontColor=#000000;fillColor=#dae8fc;gradientColor=#7ea6e0;" vertex="1" connectable="0" parent="ZrDVfHAGlsQ_2rUeivIh-1">
          <mxGeometry x="413.25" y="-519.9966666666669" as="geometry">
            <mxPoint x="3" y="-96" as="offset" />
          </mxGeometry>
        </mxCell>
        <mxCell id="ZrDVfHAGlsQ_2rUeivIh-23" value="&lt;span style=&quot;color: rgb(255, 255, 255);&quot;&gt;OK&lt;/span&gt;" style="edgeLabel;html=1;align=center;verticalAlign=middle;resizable=0;points=[];strokeColor=#6c8ebf;spacingLeft=4;spacingRight=4;fontFamily=Helvetica;fontSize=12;fontColor=#000000;fillColor=#dae8fc;gradientColor=#7ea6e0;" vertex="1" connectable="0" parent="ZrDVfHAGlsQ_2rUeivIh-1">
          <mxGeometry x="414.0013784419158" y="-890.001337126369" as="geometry" />
        </mxCell>
        <mxCell id="ZrDVfHAGlsQ_2rUeivIh-24" value="&lt;span style=&quot;color: rgb(255, 255, 255);&quot;&gt;OK&lt;/span&gt;" style="edgeLabel;html=1;align=center;verticalAlign=middle;resizable=0;points=[];strokeColor=#6c8ebf;spacingLeft=4;spacingRight=4;fontFamily=Helvetica;fontSize=12;fontColor=#000000;fillColor=#dae8fc;gradientColor=#7ea6e0;" vertex="1" connectable="0" parent="ZrDVfHAGlsQ_2rUeivIh-1">
          <mxGeometry x="441.0113784419158" y="-510.0013371263691" as="geometry">
            <mxPoint x="-32" y="-210" as="offset" />
          </mxGeometry>
        </mxCell>
        <mxCell id="ZrDVfHAGlsQ_2rUeivIh-25" value="&lt;span style=&quot;color: rgb(0, 0, 0);&quot;&gt;f_SerialInfo_ps&lt;/span&gt;&lt;span style=&quot;background-color: initial; color: rgb(0, 0, 0);&quot;&gt;&amp;nbsp;&lt;/span&gt;&lt;span style=&quot;color: rgb(0, 0, 0);&quot;&gt;-&amp;gt;bspIsct_u.usart_s&lt;/span&gt;.Baudrate = bspBaudrate_u32" style="rounded=1;whiteSpace=wrap;html=1;fillColor=#f5f5f5;fontColor=#333333;strokeColor=#666666;" vertex="1" parent="ZrDVfHAGlsQ_2rUeivIh-1">
          <mxGeometry x="163.5" y="-297.34000000000003" width="501" height="40" as="geometry" />
        </mxCell>
        <mxCell id="ZrDVfHAGlsQ_2rUeivIh-26" value="&lt;span style=&quot;color: rgb(0, 0, 0);&quot;&gt;f_SerialInfo_ps&lt;/span&gt;&lt;span style=&quot;background-color: initial; color: rgb(0, 0, 0);&quot;&gt;&amp;nbsp;&lt;/span&gt;&lt;span style=&quot;color: rgb(0, 0, 0);&quot;&gt;-&amp;gt;bspIsct_u.usart_s&lt;/span&gt;WordLenght= WordLenght_32" style="rounded=1;whiteSpace=wrap;html=1;fillColor=#f5f5f5;fontColor=#333333;strokeColor=#666666;" vertex="1" parent="ZrDVfHAGlsQ_2rUeivIh-1">
          <mxGeometry x="163.5" y="-257.34000000000003" width="501" height="40" as="geometry" />
        </mxCell>
        <mxCell id="ZrDVfHAGlsQ_2rUeivIh-27" value="&lt;span style=&quot;color: rgb(0, 0, 0);&quot;&gt;f_SerialInfo_ps&lt;/span&gt;&lt;span style=&quot;background-color: initial; color: rgb(0, 0, 0);&quot;&gt;&amp;nbsp;&lt;/span&gt;&lt;span style=&quot;color: rgb(0, 0, 0);&quot;&gt;-&amp;gt;bspIsct_u.usart_s&lt;/span&gt;StopBit= bspStopbit_32" style="rounded=1;whiteSpace=wrap;html=1;fillColor=#f5f5f5;fontColor=#333333;strokeColor=#666666;" vertex="1" parent="ZrDVfHAGlsQ_2rUeivIh-1">
          <mxGeometry x="162.75" y="-217.34" width="501" height="40" as="geometry" />
        </mxCell>
        <mxCell id="cQqEcAG9wyddE5vLyB6S-4" style="edgeStyle=orthogonalEdgeStyle;rounded=0;orthogonalLoop=1;jettySize=auto;html=1;exitX=0.5;exitY=1;exitDx=0;exitDy=0;fontFamily=Helvetica;fontSize=12;fontColor=#000000;" edge="1" parent="ZrDVfHAGlsQ_2rUeivIh-1" source="ZrDVfHAGlsQ_2rUeivIh-29" target="cQqEcAG9wyddE5vLyB6S-1">
          <mxGeometry relative="1" as="geometry" />
        </mxCell>
        <mxCell id="ZrDVfHAGlsQ_2rUeivIh-29" value="&lt;span style=&quot;color: rgb(0, 0, 0);&quot;&gt;f_SerialInfo_ps&lt;/span&gt;&lt;span style=&quot;background-color: initial; color: rgb(0, 0, 0);&quot;&gt;&amp;nbsp;&lt;/span&gt;&lt;span style=&quot;color: rgb(0, 0, 0);&quot;&gt;-&amp;gt;bspIsct_u.usart_s&lt;/span&gt;Mode = bspMode_u32" style="rounded=1;whiteSpace=wrap;html=1;fillColor=#f5f5f5;fontColor=#333333;strokeColor=#666666;" vertex="1" parent="ZrDVfHAGlsQ_2rUeivIh-1">
          <mxGeometry x="162.75" y="-137.34" width="501" height="40" as="geometry" />
        </mxCell>
        <mxCell id="ZrDVfHAGlsQ_2rUeivIh-30" value="&lt;span style=&quot;color: rgb(0, 0, 0);&quot;&gt;f_SerialInfo_ps&lt;/span&gt;&lt;span style=&quot;background-color: initial; color: rgb(0, 0, 0);&quot;&gt;&amp;nbsp;&lt;/span&gt;&lt;span style=&quot;color: rgb(0, 0, 0);&quot;&gt;-&amp;gt;bspIsct_u.usart_s&lt;/span&gt;Parity= bspParity_u32" style="rounded=1;whiteSpace=wrap;html=1;fillColor=#f5f5f5;fontColor=#333333;strokeColor=#666666;" vertex="1" parent="ZrDVfHAGlsQ_2rUeivIh-1">
          <mxGeometry x="162.75" y="-177.34" width="501" height="40" as="geometry" />
        </mxCell>
        <mxCell id="6kTucJo8DXgS5F4pEC3Y-2" style="edgeStyle=orthogonalEdgeStyle;rounded=0;orthogonalLoop=1;jettySize=auto;html=1;exitX=0.5;exitY=1;exitDx=0;exitDy=0;fontFamily=Helvetica;fontSize=12;fontColor=#000000;" edge="1" parent="ZrDVfHAGlsQ_2rUeivIh-1" source="ZrDVfHAGlsQ_2rUeivIh-32" target="6kTucJo8DXgS5F4pEC3Y-0">
          <mxGeometry relative="1" as="geometry" />
        </mxCell>
        <mxCell id="ZrDVfHAGlsQ_2rUeivIh-32" value="s_FMKSRL_BspWordLenght(f_SerialCfg_s.HwCfg_s.WordLen_e, &amp;amp;bspWordLen_u32)" style="rounded=1;whiteSpace=wrap;html=1;fillColor=#f5f5f5;fontColor=#333333;strokeColor=#666666;" vertex="1" parent="ZrDVfHAGlsQ_2rUeivIh-1">
          <mxGeometry x="174.75" y="-584" width="478.5" height="40" as="geometry" />
        </mxCell>
        <mxCell id="6kTucJo8DXgS5F4pEC3Y-1" style="edgeStyle=orthogonalEdgeStyle;rounded=0;orthogonalLoop=1;jettySize=auto;html=1;exitX=0.5;exitY=1;exitDx=0;exitDy=0;fontFamily=Helvetica;fontSize=12;fontColor=#000000;" edge="1" parent="ZrDVfHAGlsQ_2rUeivIh-1" source="6kTucJo8DXgS5F4pEC3Y-0" target="ZrDVfHAGlsQ_2rUeivIh-25">
          <mxGeometry relative="1" as="geometry" />
        </mxCell>
        <mxCell id="6kTucJo8DXgS5F4pEC3Y-0" value="s_FMKSRL_SetUsarSpecCfg(&amp;amp;f_SerialInfo.bspIsct_u.Usart_s.Init, f_UsartCfg_s)" style="rounded=1;whiteSpace=wrap;html=1;fillColor=#f5f5f5;fontColor=#333333;strokeColor=#666666;" vertex="1" parent="ZrDVfHAGlsQ_2rUeivIh-1">
          <mxGeometry x="174.75" y="-490" width="478.5" height="40" as="geometry" />
        </mxCell>
        <mxCell id="cQqEcAG9wyddE5vLyB6S-0" style="edgeStyle=orthogonalEdgeStyle;rounded=0;orthogonalLoop=1;jettySize=auto;html=1;exitX=0;exitY=1;exitDx=0;exitDy=0;entryX=0.5;entryY=0;entryDx=0;entryDy=0;fontFamily=Helvetica;fontSize=12;fontColor=#000000;" edge="1" parent="ZrDVfHAGlsQ_2rUeivIh-1" source="cQqEcAG9wyddE5vLyB6S-1" target="cQqEcAG9wyddE5vLyB6S-2">
          <mxGeometry relative="1" as="geometry">
            <Array as="points">
              <mxPoint x="175" y="80" />
              <mxPoint x="555" y="80" />
            </Array>
            <mxPoint x="554.75" y="110" as="targetPoint" />
          </mxGeometry>
        </mxCell>
        <mxCell id="cQqEcAG9wyddE5vLyB6S-1" value="switch f_SerialCfg_SoftLineMode_e" style="rounded=1;whiteSpace=wrap;html=1;fillColor=#f5f5f5;fontColor=#333333;strokeColor=#666666;" vertex="1" parent="ZrDVfHAGlsQ_2rUeivIh-1">
          <mxGeometry x="174.75" y="-30" width="478.5" height="40" as="geometry" />
        </mxCell>
        <mxCell id="cQqEcAG9wyddE5vLyB6S-5" style="edgeStyle=orthogonalEdgeStyle;rounded=0;orthogonalLoop=1;jettySize=auto;html=1;exitX=0.5;exitY=1;exitDx=0;exitDy=0;entryX=0.5;entryY=0;entryDx=0;entryDy=0;fontFamily=Helvetica;fontSize=12;fontColor=#000000;" edge="1" parent="ZrDVfHAGlsQ_2rUeivIh-1" source="cQqEcAG9wyddE5vLyB6S-2" target="ZrDVfHAGlsQ_2rUeivIh-5">
          <mxGeometry relative="1" as="geometry" />
        </mxCell>
        <mxCell id="cQqEcAG9wyddE5vLyB6S-2" value="HAL_USART_Init(&lt;span style=&quot;color: rgb(0, 0, 0);&quot;&gt;f_SerialInfo_ps&lt;/span&gt;&lt;span style=&quot;background-color: initial; color: rgb(0, 0, 0);&quot;&gt;&amp;nbsp;&lt;/span&gt;&lt;span style=&quot;color: rgb(0, 0, 0);&quot;&gt;-&amp;gt;bspIsct_u&lt;/span&gt;)" style="rounded=1;whiteSpace=wrap;html=1;fillColor=#f5f5f5;fontColor=#333333;strokeColor=#666666;" vertex="1" parent="ZrDVfHAGlsQ_2rUeivIh-1">
          <mxGeometry x="315.5" y="150" width="478.5" height="40" as="geometry" />
        </mxCell>
        <mxCell id="cQqEcAG9wyddE5vLyB6S-3" value="&lt;span style=&quot;color: rgb(255, 255, 255); text-align: left; text-wrap: wrap;&quot;&gt;FMKSRL_USART_TYPE_USART&lt;/span&gt;" style="text;html=1;align=center;verticalAlign=middle;resizable=0;points=[];autosize=1;strokeColor=none;fillColor=none;fontFamily=Helvetica;fontSize=12;fontColor=#000000;" vertex="1" parent="ZrDVfHAGlsQ_2rUeivIh-1">
          <mxGeometry x="374" y="50" width="200" height="30" as="geometry" />
        </mxCell>
      </root>
    </mxGraphModel>
  </diagram>
  <diagram id="wpYUtTh9ri-NjtD8XBME" name="TransmitMsg">
    <mxGraphModel dx="1420" dy="822" grid="1" gridSize="10" guides="1" tooltips="1" connect="1" arrows="1" fold="1" page="1" pageScale="1" pageWidth="827" pageHeight="1169" math="0" shadow="0">
      <root>
        <mxCell id="0" />
        <mxCell id="1" parent="0" />
      </root>
    </mxGraphModel>
  </diagram>
  <diagram id="rbZJLu-IJqQ9WuYWpICl" name="ReceiveMsg">
    <mxGraphModel dx="1420" dy="822" grid="1" gridSize="10" guides="1" tooltips="1" connect="1" arrows="1" fold="1" page="1" pageScale="1" pageWidth="827" pageHeight="1169" math="0" shadow="0">
      <root>
        <mxCell id="0" />
        <mxCell id="1" parent="0" />
      </root>
    </mxGraphModel>
  </diagram>
</mxfile>
